<svg width="125" height="127" viewBox="0 0 125 127" fill="none" xmlns="http://www.w3.org/2000/svg">
<rect x="9" width="116" height="81" rx="5" fill="#D5F0FF"/>
<g clip-path="url(#clip0)">
<path d="M55.2428 105.85C54.8884 105.751 54.5541 105.672 54.2199 105.554C53.6282 105.379 53.0499 105.162 52.4889 104.904C52.292 104.827 52.0951 104.748 51.8982 104.649C51.4458 104.433 50.9934 104.196 50.5611 103.941C50.1663 103.714 49.785 103.465 49.42 103.194C49.0098 102.921 48.616 102.625 48.2395 102.308C48.177 102.267 48.1175 102.221 48.0627 102.171C47.6891 101.856 47.3346 101.521 46.9802 101.167C46.6267 100.813 46.2924 100.459 45.9774 100.085C45.9265 100.03 45.8803 99.971 45.839 99.9085C45.523 99.531 45.2272 99.1372 44.9544 98.728C44.6825 98.3669 44.4386 97.9855 44.2263 97.5869C43.9573 97.1556 43.7143 96.7089 43.4982 96.2488C43.4002 96.0519 43.3214 95.856 43.2427 95.6591C42.9852 95.0981 42.7691 94.5198 42.5933 93.9281C42.4752 93.5929 42.3964 93.2586 42.2985 92.9052C42.1803 92.3932 42.0622 91.8822 41.9834 91.351C41.9046 90.8198 41.846 90.2291 41.8067 89.6393L23.1182 108.328H39.8202V125.03L58.5087 106.341C57.918 106.302 57.3474 106.242 56.797 106.164C56.2658 106.085 55.7539 105.967 55.2428 105.85Z" fill="#86DBFF"/>
<path d="M76.6852 92.9052C76.5872 93.2586 76.5085 93.5929 76.3903 93.9281C76.2155 94.5198 75.9984 95.0981 75.741 95.6591C75.6622 95.856 75.5835 96.0519 75.4855 96.2488C75.2694 96.7013 75.0331 97.1537 74.7776 97.5869C74.5509 97.9817 74.3011 98.363 74.0293 98.728C73.7565 99.1372 73.4616 99.531 73.1446 99.9085C73.1033 99.971 73.0572 100.03 73.0063 100.085C72.6922 100.459 72.3579 100.813 72.0035 101.167C71.6491 101.521 71.2956 101.856 70.921 102.171C70.8662 102.221 70.8067 102.267 70.7442 102.308C70.3677 102.625 69.9739 102.921 69.5637 103.194C69.1987 103.465 68.8183 103.714 68.4235 103.941C67.9903 104.196 67.5379 104.433 67.0855 104.649C66.8886 104.748 66.6916 104.827 66.4947 104.904C65.9338 105.162 65.3555 105.379 64.7638 105.554C64.4296 105.672 64.0953 105.751 63.7408 105.85C63.2298 105.967 62.7178 106.085 62.1867 106.164C61.6555 106.242 61.0657 106.302 60.4759 106.341L79.1644 125.03V108.328H95.8655L77.177 89.6393C77.1376 90.2291 77.0791 90.7996 77.0003 91.351C76.9215 91.8822 76.8034 92.3932 76.6852 92.9052Z" fill="#86DBFF"/>
<path d="M59.4923 70.9506C49.7139 70.9506 41.7874 78.877 41.7874 88.6555C41.7874 88.9897 41.7874 89.324 41.8067 89.6391C41.846 90.2288 41.9046 90.7994 41.9834 91.3508C42.0622 91.8819 42.1803 92.393 42.2985 92.9049C42.3964 93.2584 42.4752 93.5927 42.5933 93.9279C42.7691 94.5196 42.9853 95.0979 43.2427 95.6588C43.3214 95.8557 43.4002 96.0517 43.4982 96.2486C43.7143 96.7087 43.9573 97.1554 44.2263 97.5867C44.4386 97.9853 44.6825 98.3666 44.9544 98.7278C45.2272 99.137 45.523 99.5308 45.8391 99.9083C45.8804 99.9708 45.9265 100.029 45.9774 100.085C46.2924 100.459 46.6267 100.813 46.9802 101.167C47.3346 101.521 47.6891 101.855 48.0627 102.17C48.1175 102.22 48.177 102.266 48.2395 102.308C48.616 102.625 49.0098 102.921 49.42 103.193C49.785 103.465 50.1663 103.714 50.5611 103.941C50.9934 104.196 51.4458 104.433 51.8982 104.649C52.0951 104.748 52.292 104.826 52.4889 104.904C53.0499 105.162 53.6282 105.379 54.2199 105.553C54.5541 105.672 54.8884 105.75 55.2429 105.849C55.7539 105.967 56.2658 106.085 56.797 106.163C57.3282 106.242 57.918 106.302 58.5087 106.341C58.8228 106.36 59.1571 106.36 59.4923 106.36C59.8266 106.36 60.1609 106.36 60.4759 106.341C61.0657 106.302 61.6363 106.242 62.1867 106.163C62.7179 106.085 63.2298 105.967 63.7408 105.849C64.0953 105.75 64.4296 105.672 64.7638 105.553C65.3555 105.379 65.9338 105.162 66.4948 104.904C66.6917 104.826 66.8886 104.748 67.0855 104.649C67.5379 104.433 67.9903 104.196 68.4235 103.941C68.8183 103.714 69.1987 103.465 69.5637 103.193C69.9739 102.921 70.3677 102.625 70.7442 102.308C70.8067 102.266 70.8662 102.22 70.921 102.17C71.2956 101.855 71.6491 101.521 72.0035 101.167C72.358 100.813 72.6922 100.459 73.0063 100.085C73.0572 100.029 73.1033 99.9708 73.1446 99.9083C73.4616 99.5308 73.7565 99.137 74.0293 98.7278C74.3012 98.3628 74.5509 97.9815 74.7776 97.5867C75.0331 97.1535 75.2694 96.701 75.4855 96.2486C75.5835 96.0517 75.6623 95.8557 75.741 95.6588C75.9984 95.0979 76.2155 94.5196 76.3904 93.9279C76.5085 93.5927 76.5873 93.2584 76.6852 92.9049C76.8034 92.393 76.9215 91.8819 77.0003 91.3508C77.0791 90.8196 77.1377 90.2288 77.177 89.6391C77.1972 89.324 77.1972 88.9897 77.1972 88.6555C77.1972 78.877 69.2698 70.9506 59.4923 70.9506ZM49.6563 88.6555V89.1021C49.6832 89.495 49.7206 89.8734 49.7677 90.1962C49.7206 89.8734 49.6832 89.4931 49.6563 89.1021C49.6563 88.9974 49.6563 88.8264 49.6563 88.6555C49.662 83.2255 54.0623 78.8261 59.4923 78.8194C54.0623 78.8261 49.662 83.2255 49.6563 88.6555Z" fill="#86DBFF"/>
<path d="M116.542 8H2.44347C1.35708 8 0.476257 8.88083 0.476257 9.96721V88.6556C0.476257 89.742 1.35708 90.6228 2.44347 90.6228H38.0492L21.7217 106.937C21.1588 107.501 20.9908 108.348 21.2962 109.084C21.6026 109.818 22.3221 110.297 23.1184 110.295H37.8532V125.03C37.8532 125.825 38.3325 126.542 39.0674 126.846C39.8022 127.151 40.6484 126.983 41.2113 126.42L59.3091 108.322L59.4925 108.328H59.677L77.7757 126.426C78.3385 126.987 79.1858 127.154 79.9206 126.849C80.6544 126.544 81.1328 125.825 81.1318 125.03V110.295H95.8657C96.6611 110.295 97.3786 109.816 97.6831 109.081C97.9876 108.346 97.8195 107.5 97.2566 106.937L80.9349 90.6228H116.542C117.628 90.6228 118.509 89.742 118.509 88.6556V9.96721C118.509 8.88083 117.628 8 116.542 8V8ZM75.2158 89.5057C75.1783 90.0465 75.1255 90.568 75.0544 91.0637C74.9843 91.5276 74.8796 91.9762 74.7912 92.3758L74.7067 92.6861C74.6539 92.883 74.6039 93.0799 74.5098 93.3632C74.3503 93.9011 74.1534 94.4266 73.92 94.9366C73.8624 95.0769 73.8095 95.2161 73.7231 95.3929C73.5262 95.7867 73.3293 96.1959 73.0978 96.5734C72.8884 96.9384 72.6578 97.2909 72.4071 97.6281C72.1747 97.9768 71.9221 98.312 71.6512 98.6309C71.6022 98.6885 71.5561 98.7481 71.5138 98.8105C71.2362 99.139 70.9394 99.4531 70.6224 99.7701C70.3055 100.087 69.9952 100.38 69.6705 100.66C69.6062 100.702 69.5437 100.747 69.4851 100.797C69.1288 101.095 68.7561 101.373 68.3699 101.632C68.0703 101.852 67.7581 102.054 67.4353 102.239C67.0521 102.465 66.6486 102.674 66.2145 102.882C66.0723 102.953 65.933 103.006 65.6775 103.115C65.1732 103.343 64.6545 103.535 64.1233 103.689C63.9264 103.76 63.7295 103.809 63.5326 103.862L63.2733 103.933C62.8228 104.035 62.3742 104.13 61.9198 104.208C61.4184 104.281 60.8969 104.333 60.3599 104.369C60.0823 104.393 59.7951 104.393 59.4925 104.393C59.189 104.393 58.9018 104.393 58.6424 104.38C58.1017 104.342 57.5801 104.289 57.0844 104.218C56.6205 104.147 56.1719 104.043 55.7723 103.954L55.4611 103.87C55.2642 103.817 55.0682 103.768 54.7849 103.673C54.247 103.514 53.7206 103.317 53.2105 103.083C53.0712 103.026 52.932 102.973 52.7543 102.886C52.3614 102.689 51.9522 102.493 51.5737 102.267C51.2068 102.055 50.8524 101.823 50.5114 101.57C50.1646 101.338 49.8303 101.086 49.5105 100.817C49.4528 100.767 49.3923 100.72 49.3299 100.677C49.0014 100.4 48.6863 100.102 48.3693 99.7864C48.0524 99.4695 47.7594 99.1582 47.4808 98.8336C47.4386 98.7702 47.3934 98.7097 47.3444 98.6511C47.0447 98.2937 46.7652 97.9201 46.5068 97.532C46.2753 97.2199 46.0688 96.8913 45.8873 96.5484C45.6539 96.1729 45.4435 95.7838 45.2572 95.3833C45.187 95.2421 45.1332 95.1018 45.0276 94.8463C44.798 94.343 44.6049 93.8233 44.4513 93.2922C44.3802 93.0952 44.3312 92.8993 44.2774 92.7024L44.2073 92.4421C44.1045 91.9916 44.0008 91.543 43.9316 91.0887C43.8586 90.5872 43.8077 90.0657 43.7702 89.5287C43.7549 89.2454 43.7549 88.9466 43.7549 88.6556C43.7549 79.9635 50.8005 72.9179 59.4925 72.9179C68.1836 72.9179 75.2302 79.9635 75.2302 88.6556C75.2302 88.9485 75.2302 89.2454 75.2158 89.5057ZM41.7876 120.281V108.328C41.7876 107.241 40.9068 106.36 39.8204 106.36H27.8673L40.4871 93.7407C40.5082 93.8195 40.5284 93.8906 40.5495 93.9655C40.5716 94.0395 40.5812 94.0875 40.5994 94.1442C40.6369 94.2738 40.6734 94.3939 40.709 94.4919C40.9011 95.146 41.1393 95.7848 41.4236 96.4043C41.5197 96.6483 41.6205 96.8904 41.7243 97.0969C41.9567 97.5916 42.2189 98.0709 42.5109 98.5329C42.7463 98.9834 43.0191 99.4137 43.3255 99.8191C43.6242 100.266 43.945 100.696 44.288 101.11C44.3802 101.236 44.4839 101.354 44.4839 101.354C44.8364 101.771 45.2082 102.167 45.6001 102.556C45.991 102.946 46.3868 103.323 46.6836 103.561C46.7969 103.671 46.918 103.772 47.0457 103.864C47.4232 104.18 47.817 104.476 48.2262 104.75C48.6575 105.07 49.107 105.366 49.5739 105.634C50.0551 105.92 50.5575 106.184 51.0272 106.406C51.2366 106.511 51.4508 106.604 51.6708 106.687C52.2874 106.973 52.9252 107.214 53.5765 107.409C53.856 107.507 54.1336 107.584 54.4189 107.661L41.7876 120.281ZM79.1646 106.36C78.0782 106.36 77.1974 107.241 77.1974 108.328V120.281L64.5777 107.661L64.8015 107.598C64.863 107.582 64.9235 107.566 64.9811 107.549C65.1108 107.511 65.2309 107.474 65.3288 107.438C65.982 107.246 66.6217 107.008 67.2413 106.725C67.4853 106.628 67.7273 106.528 67.9339 106.424C68.4372 106.184 68.9405 105.92 69.4362 105.636C69.8578 105.395 70.2651 105.129 70.6561 104.84C71.1037 104.542 71.534 104.22 71.9461 103.876C72.0316 103.815 72.1132 103.75 72.1901 103.68C72.6079 103.327 73.0027 102.955 73.3927 102.563C73.7817 102.172 74.1592 101.777 74.3974 101.48C74.5079 101.366 74.6097 101.245 74.7029 101.116C75.0179 100.739 75.3119 100.345 75.5837 99.9353C75.9064 99.504 76.2023 99.0526 76.4712 98.5858C76.7565 98.1045 77.0197 97.6021 77.2426 97.1324C77.3645 96.8904 77.4644 96.6483 77.5259 96.4889C77.8112 95.8712 78.0513 95.2344 78.2454 94.5831C78.3443 94.3036 78.4202 94.026 78.497 93.7407L91.1168 106.36H79.1646ZM114.574 86.6884H79.0657V86.6711C79.0503 86.5097 79.0148 86.3541 78.9946 86.1946C78.936 85.7182 78.8707 85.2427 78.7785 84.7778C78.7295 84.5319 78.6584 84.2966 78.6017 84.0565C78.5114 83.6847 78.4269 83.3111 78.3165 82.9489C78.2358 82.6867 78.1397 82.437 78.0485 82.1815C77.9332 81.8491 77.8189 81.5148 77.6844 81.1979C77.5788 80.9385 77.4548 80.6868 77.3386 80.4323C77.1955 80.1259 77.0553 79.8185 76.8977 79.5217C76.7642 79.2681 76.6182 79.026 76.4751 78.7802C76.3079 78.4949 76.1427 78.2096 75.9612 77.9339C75.8046 77.6947 75.6375 77.4623 75.4694 77.2279C75.2734 76.9647 75.088 76.7006 74.8796 76.4412C74.6712 76.1819 74.5136 75.9965 74.3254 75.7803C74.1121 75.5344 73.896 75.2943 73.6722 75.0599C73.4474 74.8265 73.2784 74.6507 73.0603 74.4519C72.8413 74.254 72.5839 74.01 72.338 73.7968C72.1219 73.6009 71.9029 73.4251 71.679 73.2464C71.4235 73.0495 71.1594 72.8526 70.8924 72.6566C70.6618 72.4914 70.4274 72.3281 70.1902 72.1706C69.9126 71.991 69.6273 71.8219 69.3401 71.6548C69.0961 71.5136 68.8521 71.3695 68.6005 71.2379C68.3018 71.0804 67.9944 70.9392 67.686 70.797C67.4334 70.6789 67.1817 70.5588 66.9243 70.4531C66.5996 70.3196 66.2654 70.2053 65.9407 70.0891C65.6852 70.0007 65.4335 69.9037 65.1713 69.8259C64.8178 69.7193 64.4519 69.629 64.0897 69.5464C63.84 69.4868 63.5941 69.4167 63.3395 69.3667C62.9303 69.2841 62.5115 69.2313 62.0927 69.1708C61.8766 69.141 61.6643 69.0978 61.4453 69.0757C60.8046 69.0133 60.1534 68.9777 59.4964 68.9777C58.8394 68.9777 58.1881 69.0133 57.5465 69.0757C57.3284 69.0978 57.1161 69.141 56.899 69.1708C56.4802 69.2255 56.0614 69.2784 55.6522 69.3667C55.3987 69.4167 55.1528 69.4868 54.903 69.5464C54.5409 69.6347 54.1749 69.7193 53.8205 69.8259C53.5592 69.9037 53.3075 70.0007 53.0511 70.0891C52.7187 70.2053 52.3844 70.3196 52.0675 70.4531C51.81 70.5588 51.5584 70.6789 51.3067 70.797C50.9974 70.9392 50.691 71.0804 50.3923 71.2379C50.1396 71.3695 49.8957 71.5136 49.6517 71.6548C49.3645 71.8219 49.0802 71.991 48.8026 72.1706C48.5643 72.3281 48.33 72.4914 48.1004 72.6566C47.8324 72.8526 47.5692 73.0495 47.3127 73.2464C47.0889 73.4251 46.8709 73.6085 46.6538 73.7968C46.4079 74.01 46.1658 74.2281 45.9324 74.4519C45.6981 74.6767 45.5213 74.8457 45.3206 75.0599C45.1198 75.2751 44.8797 75.5344 44.6674 75.7803C44.4705 75.9965 44.2937 76.2145 44.1122 76.4412C43.9316 76.6669 43.7193 76.9589 43.5224 77.2279C43.3553 77.4623 43.1881 77.6947 43.0306 77.9339C42.85 78.2096 42.6838 78.4949 42.5167 78.7802C42.3736 79.026 42.2276 79.2681 42.0941 79.5217C41.9365 79.8185 41.7973 80.1259 41.6532 80.4323C41.5369 80.6868 41.413 80.9385 41.3074 81.1979C41.1739 81.5225 41.0596 81.8568 40.9433 82.1815C40.853 82.437 40.7464 82.6867 40.6753 82.9489C40.5658 83.3111 40.4794 83.6847 40.391 84.0565C40.3334 84.2966 40.2623 84.5319 40.2133 84.7778C40.1211 85.2427 40.0558 85.7182 39.9972 86.1946C39.977 86.3541 39.9424 86.5097 39.9261 86.6711V86.6884H4.41068V11.9344H114.574V86.6884Z" fill="#009EE1"/>
<path d="M59.4923 76.8523C56.3388 76.8638 53.3207 78.1317 51.1057 80.3756C48.8907 82.6185 47.6612 85.6529 47.689 88.8054V89.2376C47.7178 89.6805 47.7611 90.1069 47.8129 90.4729C47.9503 91.4421 48.7793 92.1625 49.7581 92.1635C49.8522 92.1635 49.9463 92.1568 50.0395 92.1433C51.1153 91.9906 51.8626 90.9945 51.7099 89.9187C51.6686 89.6372 51.6369 89.3068 51.6167 89.0158V88.6556C51.6167 84.31 55.14 80.7867 59.4856 80.7867C60.5729 80.7867 61.4528 79.9059 61.4528 78.8195C61.4528 77.7331 60.5729 76.8523 59.4856 76.8523H59.4923Z" fill="#009EE1"/>
<path d="M94.9021 31.6065H24.0826C22.9962 31.6065 22.1154 30.7257 22.1154 29.6393C22.1154 28.5529 22.9962 27.6721 24.0826 27.6721H94.9021C95.9885 27.6721 96.8693 28.5529 96.8693 29.6393C96.8693 30.7257 95.9885 31.6065 94.9021 31.6065Z" fill="#009EE1"/>
<path d="M94.9021 43.4098H24.0826C22.9962 43.4098 22.1154 42.5289 22.1154 41.4426C22.1154 40.3562 22.9962 39.4753 24.0826 39.4753H94.9021C95.9885 39.4753 96.8693 40.3562 96.8693 41.4426C96.8693 42.5289 95.9885 43.4098 94.9021 43.4098Z" fill="#009EE1"/>
<path d="M94.9021 55.2131H24.0826C22.9962 55.2131 22.1154 54.3323 22.1154 53.2459C22.1154 52.1595 22.9962 51.2787 24.0826 51.2787H94.9021C95.9885 51.2787 96.8693 52.1595 96.8693 53.2459C96.8693 54.3323 95.9885 55.2131 94.9021 55.2131Z" fill="#009EE1"/>
</g>
<defs>
<clipPath id="clip0">
<rect width="119" height="119" fill="white" transform="translate(0 8)"/>
</clipPath>
</defs>
</svg>
