<svg width="562" height="853" viewBox="0 0 562 853" fill="none" xmlns="http://www.w3.org/2000/svg">
<path fill-rule="evenodd" clip-rule="evenodd" d="M947.124 522.31C928.008 584.7 886.806 642.979 812.495 671.027C741.568 697.798 671.371 615.808 616.239 669.057C478.137 802.444 361.119 705.421 330.944 610.482C287.329 473.257 245.977 529.399 150.117 455.656C103.724 419.966 88.7754 309.386 104.901 250.487C121.279 190.668 173.502 154.052 240.935 123.943C351.803 91.931 385.57 167.509 470.885 177.424C551.996 186.851 602.989 116.81 676.608 152.869C756.592 192.046 747.765 308.325 790.305 370.885C865.226 515.572 957.284 433.23 947.124 522.31Z" fill="#FBFCFF"/>
</svg>
