<svg width="225" height="60" viewBox="0 0 225 60" fill="none" xmlns="http://www.w3.org/2000/svg">
<path d="M201.824 4.25879H10.5753C4.73599 4.25879 0 8.66061 0 14.0938V50.1553C0 55.5855 4.73599 59.9874 10.5753 59.9874H201.824C207.666 59.9874 212.399 55.5855 212.399 50.1553V14.0938C212.399 8.66061 207.666 4.25879 201.824 4.25879ZM210.628 48.6285C210.628 53.6036 205.972 57.6309 200.228 57.6309H12.1742C6.42989 57.6309 1.77456 53.6036 1.77456 48.6285V15.6148C1.77456 10.6426 6.42989 6.61238 12.1742 6.61238H200.228C205.972 6.61238 210.628 10.6426 210.628 15.6148V48.6285Z" fill="#CF4037"/>
<path d="M208.384 46.9607C208.384 51.7025 204.521 55.5829 199.802 55.5829H12.6005C7.87895 55.5829 4.01871 51.7025 4.01871 46.9607V17.283C4.01871 12.5412 7.88183 8.66084 12.6005 8.66084H199.802C204.523 8.66084 208.384 12.5412 208.384 17.283V46.9607ZM218.737 3.71167C219.82 3.71167 220.281 3.98246 220.281 4.59894C220.281 5.18086 219.866 5.41996 218.786 5.41996H217.836V3.71167H218.737ZM216.724 8.83368H217.838V6.24963H218.945L220.149 8.83368H221.37L220.08 6.03933C220.457 5.99519 220.804 5.80888 221.049 5.51829C221.294 5.22771 221.419 4.85468 221.399 4.47507C221.399 3.42071 220.587 2.882 218.962 2.882H216.729V8.83368H216.724ZM220.564 1.75562C222.188 2.42972 223.318 4.10345 223.318 6.00188C223.318 7.81389 222.137 9.47898 220.52 10.1502C219.976 10.3791 219.391 10.4962 218.8 10.4948C218.209 10.4933 217.624 10.3732 217.081 10.1416C216.267 9.78244 215.574 9.19796 215.082 8.45722C214.591 7.71648 214.322 6.85046 214.307 5.96155C214.307 4.20716 215.439 2.42972 217.092 1.74698C218.206 1.29737 219.452 1.30047 220.564 1.75562ZM216.531 1.23708C215.663 1.68496 214.934 2.36045 214.42 3.19118C213.907 4.02192 213.63 4.97659 213.618 5.95291C213.618 8.0213 214.943 9.96583 216.827 10.7753C218.703 11.5762 220.967 11.1325 222.488 9.64318C223.467 8.68676 224.003 7.39041 224.003 5.95291C224.003 4.54421 223.479 3.24498 222.514 2.27704C222.034 1.7806 221.458 1.38695 220.821 1.12002C220.184 0.853094 219.5 0.71846 218.809 0.724303C217.982 0.724303 217.225 0.894269 216.531 1.23708Z" fill="#CF4037"/>
<path d="M24.6163 35.9706V30.1226H41.3276C41.3824 31.0416 41.4083 31.5284 41.4083 31.586C41.4083 35.9763 40.0284 39.6407 37.2715 42.582C34.5146 45.5232 31.0894 46.9924 26.9987 46.9924C23.0146 46.9924 19.6441 45.5319 16.8872 42.6108C14.1303 39.6897 12.7504 36.1261 12.7504 31.9231C12.7504 27.72 14.136 24.194 16.9073 21.3449C19.6786 18.4958 23.0952 17.0698 27.16 17.0698C30.228 17.0698 33.0425 18.0406 35.5978 19.9794C38.1559 21.921 39.8095 24.3582 40.5642 27.2908H34.434C33.1693 24.8277 31.7231 22.8343 27.4654 22.8343C24.2677 22.8343 22.3405 24.3668 20.9404 25.9052C19.5404 27.4435 18.8403 29.3621 18.8403 31.6638C18.8403 34.3401 19.5548 36.4949 20.9807 38.134C22.4067 39.7732 25.0714 41.1012 27.4423 41.1012C28.949 41.1012 30.7466 40.1823 31.8096 39.3612C32.8755 38.5402 33.5668 37.4138 33.8924 35.9735H24.6163V35.9706ZM58.2176 31.4478C59.2605 32.5338 59.7848 33.8561 59.7848 35.4117C59.7848 36.999 59.2691 38.3299 58.2378 39.3987C57.2094 40.4732 55.9216 41.0091 54.3775 41.0091C52.8046 41.0091 51.4939 40.4732 50.4482 39.3987C49.4053 38.3271 48.8839 36.9846 48.8839 35.3685C48.8839 33.8129 49.4111 32.4964 50.4741 31.4247C51.5342 30.3531 52.8363 29.8144 54.3775 29.8144C55.8957 29.8172 57.1719 30.3617 58.2176 31.4478ZM63.0948 43.8264C65.4023 41.5967 66.5575 38.7909 66.5575 35.4146C66.5575 32.0383 65.3965 29.2353 63.0717 27.0056C60.7469 24.773 57.8374 23.6553 54.3343 23.6553C50.8025 23.6553 47.8843 24.7788 45.5739 27.0229C43.2635 29.2699 42.1112 32.1103 42.1112 35.5442C42.1112 38.8946 43.2722 41.6659 45.597 43.8697C47.9217 46.0735 50.8486 47.1739 54.3775 47.1739C57.8806 47.1739 60.7844 46.0562 63.0948 43.8264ZM83.5828 31.4478C84.617 32.5338 85.1385 33.8561 85.1385 35.4117C85.1385 36.999 84.6257 38.3299 83.6059 39.3987C83.119 39.9225 82.5265 40.3369 81.8675 40.6145C81.2084 40.8921 80.498 41.0266 79.7831 41.0091C78.2246 41.0091 76.9254 40.4732 75.8912 39.3987C74.8541 38.3271 74.3356 36.9846 74.3356 35.3685C74.3356 33.8129 74.8599 32.4964 75.9113 31.4247C76.4095 30.903 77.0107 30.4905 77.6767 30.2133C78.3427 29.9361 79.059 29.8002 79.7802 29.8144C81.2782 29.8172 82.5486 30.3617 83.5828 31.4478ZM88.4139 43.8264C90.7012 41.5967 91.8449 38.7909 91.8449 35.4146C91.8449 32.0383 90.6926 29.2353 88.3908 27.0056C86.0891 24.773 83.2026 23.6553 79.7341 23.6553C76.234 23.6553 73.3446 24.7788 71.0544 27.0229C68.767 29.2699 67.6262 32.1103 67.6262 35.5442C67.6262 38.8946 68.7728 41.6659 71.0774 43.8697C73.3791 46.0706 76.2801 47.1739 79.7802 47.1739C83.2487 47.1739 86.1237 46.0562 88.4139 43.8264ZM108.735 31.5025C109.732 32.554 110.23 33.8532 110.23 35.4002C110.23 37.0365 109.732 38.3876 108.735 39.4534C107.741 40.5193 106.465 41.0523 104.918 41.0523C103.397 41.0523 102.147 40.5251 101.164 39.4765C100.182 38.425 99.6921 37.0797 99.6921 35.4463C99.6921 33.8417 100.188 32.5194 101.184 31.4823C102.181 30.4453 103.452 29.9267 105.001 29.9267C106.497 29.9238 107.741 30.451 108.735 31.5025ZM109.933 26.3546C108.268 24.6491 106.22 23.7964 103.783 23.7964C100.819 23.7964 98.3612 24.8998 96.408 27.1007C94.4549 29.3045 93.4783 32.0844 93.4783 35.4405C93.4783 38.8571 94.452 41.663 96.3994 43.8668C98.3497 46.0677 100.844 47.171 103.884 47.171C106.537 47.171 108.651 46.1484 110.227 44.1001V46.4249H116.147V17.1735H109.933V26.3546ZM125.518 46.4422H119.25V24.5598H125.216V26.9048C126.472 24.8825 128.382 23.8742 130.946 23.8742C133.622 23.8742 135.644 25.159 137.01 27.7344C138.542 25.159 140.76 23.8742 143.661 23.8742C145.808 23.8742 147.605 24.6002 149.057 26.055C150.143 27.1324 150.826 28.4431 151.105 29.9843C151.272 30.7967 151.356 32.312 151.356 34.5216V46.4393H145.09V34.8269C145.09 31.3988 144.226 29.9815 141.976 29.9815C139.674 29.9815 138.525 31.4939 138.525 34.5216V46.4393H132.259V34.5216C132.259 31.4939 131.185 29.9815 129.033 29.9815C126.688 29.9815 125.515 31.4939 125.515 34.5216V46.4422H125.518ZM168.828 31.4996C169.825 32.554 170.323 33.8705 170.323 35.452C170.323 37.0912 169.83 38.4394 168.851 39.4909C167.869 40.5452 166.607 41.0695 165.066 41.0695C163.579 41.0695 162.332 40.5366 161.321 39.4678C160.309 38.3991 159.805 37.0768 159.805 35.4953C159.805 33.9137 160.304 32.5886 161.297 31.5198C162.294 30.4539 163.536 29.9181 165.022 29.9181C166.564 29.921 167.831 30.4481 168.828 31.4996ZM170.683 26.9048C169.536 24.845 167.41 23.8137 164.308 23.8137C161.148 23.8137 158.564 24.9055 156.553 27.0892C154.539 29.2728 153.534 32.0815 153.534 35.5154C153.534 38.981 154.519 41.7926 156.489 43.9446C158.457 46.0994 161.024 47.1739 164.181 47.1739C167.534 47.1739 169.704 46.1426 170.683 44.0713V46.4278H176.597V24.5598H170.683V26.9048ZM185.989 46.4422H179.464V24.5598H185.675V26.9048C187.095 24.8825 189.085 23.8742 191.641 23.8742C194.02 23.8742 195.965 24.6146 197.474 26.0982C198.313 26.9422 198.886 27.8238 199.194 28.7398C199.497 29.6559 199.649 31.0041 199.649 32.7758V46.4393H193.124V34.5216C193.124 31.4939 191.986 29.9815 189.708 29.9815C187.224 29.9815 185.983 31.4074 185.983 34.2565V46.4422H185.989Z" fill="white"/>
</svg>
