<svg width="225" height="40" viewBox="0 0 225 40" fill="none" xmlns="http://www.w3.org/2000/svg">
<path fill-rule="evenodd" clip-rule="evenodd" d="M211.488 30.2846H202.977V0H211.488V30.2846ZM224.003 30.2846V0H215.492V30.2846H224.003ZM11.2645 11.7593H18.1474V0H29.4118V30.2846H18.1474V15.2682H11.2645V30.2846H0V0H11.2645V11.7593ZM70.3221 9.26712L71.0149 11.2645C77.151 6.01013 85.7163 9.0062 85.7163 16.6448V30.2846H76.4582V16.3929C76.4582 13.6398 74.8297 13.3878 73.5791 13.3878C72.0766 13.3878 70.3221 14.8904 70.3221 17.6435V30.2936H61.064V9.26712H70.3221ZM161.806 9.25812L166.124 21.4583L170.254 9.25812H173.943L166.745 30.2846H160.366L156.11 18.2103L151.981 30.2846H145.224L137.81 9.33909L127.517 34.2253C126.888 35.7909 125.016 39.4797 120.571 39.6687C116.127 39.8576 113.878 36.9155 113.86 34.6662C113.86 32.5159 115.605 30.7704 117.755 30.7704C119.906 30.7704 121.651 32.5159 121.651 34.6662C121.912 35.8538 123.262 35.7909 123.828 34.5403L125.457 30.5365L113.005 9.25812H123.577L129.83 19.9558L134.274 9.25812H146.663L151.171 21.9622L155.49 9.25812H161.806ZM32.5339 19.9558C32.5339 13.4598 38.2741 8.18745 45.3639 8.18745C52.4537 8.18745 58.1939 13.4598 58.1939 19.9558C58.1939 26.4518 52.4537 31.7241 45.3639 31.7241C38.2741 31.7241 32.5339 26.4608 32.5339 19.9558ZM45.3639 28.6561C47.1273 28.6561 48.5579 27.2255 48.5579 25.4621V14.4495C48.5579 12.6951 47.1273 11.2645 45.3639 11.2645C43.6004 11.2645 42.1699 12.695 42.1699 14.4585V25.4621C42.1699 27.2255 43.6004 28.6561 45.3639 28.6561ZM114.129 19.9554C114.129 20.4683 114.093 21.1521 114.031 21.6469H98.1055V25.4617C98.1055 27.2252 99.536 28.8897 101.299 28.8897C104.898 28.8897 108.038 27.1352 109.748 24.517L112.582 25.5697C110.405 29.2316 106.167 31.7238 101.299 31.7238C94.2097 31.7238 88.4695 26.4604 88.4695 19.9554C88.4695 13.4595 94.2097 8.1871 101.299 8.1871C108.389 8.1871 114.129 13.4595 114.129 19.9554ZM101.308 11.2731C99.545 11.2731 98.1145 12.6947 98.1145 14.4581H98.1235V18.6508H104.502V14.4581C104.502 12.7037 103.072 11.2731 101.308 11.2731ZM199.855 19.9554C199.855 20.4683 199.819 21.1521 199.747 21.6469H183.831V25.4617C183.831 27.2252 185.261 28.8897 187.025 28.8897C190.624 28.8897 193.764 27.1352 195.473 24.517L198.307 25.5697C196.13 29.2316 191.892 31.7238 187.025 31.7238C179.935 31.7238 174.195 26.4604 174.195 19.9554C174.195 13.4595 179.935 8.1871 187.025 8.1871C194.115 8.1871 199.855 13.4595 199.855 19.9554ZM187.025 11.2731C185.261 11.2731 183.831 12.6947 183.831 14.4581L183.84 18.6508H190.219V14.4581C190.219 12.7037 188.788 11.2731 187.025 11.2731Z" fill="#DE1E34"/>
</svg>
