<svg width="225" height="48" viewBox="0 0 225 48" fill="none" xmlns="http://www.w3.org/2000/svg">
<path fill-rule="evenodd" clip-rule="evenodd" d="M0.00101888 0H0V23.5452L0.00101888 23.5442V47.0685L51.0181 0H25.5048H0.00101888ZM115.598 36.8425L122.258 10.2161H134.02L127.365 36.8425H115.598ZM92.687 25.6476H95.3855L98.4494 25.6483L97.0385 17.9668L92.687 25.6476ZM78.58 36.838L93.7115 10.2131L107.086 10.2139L111.967 36.8387H100.481L99.6769 32.4007H88.8737L86.3615 36.838H78.58ZM169.352 36.8425L175.994 10.2161H187.758L181.116 36.8425H169.352ZM158.678 10.2161H170.736L155.949 22.8986L166.028 36.8425H152.42L146.409 27.6508L144.112 36.8425H132.87L139.512 10.2161H150.79L148.587 18.926L158.678 10.2161ZM61.213 30.965C68.5826 30.965 69.3463 22.3161 69.3463 22.3161C69.7732 16.9633 65.8539 16.6115 64.5001 16.6032H60.7161L57.0434 30.965H61.213ZM65.7066 10.2192L68.7502 10.2289L68.7494 10.2282C68.7494 10.2282 80.9012 10.5717 80.9012 21.496C80.9012 30.7809 72.8875 36.8425 64.7444 36.8425L58.9609 36.8342H44.3421L50.9848 10.2192H65.7066ZM211.935 25.8904L215.859 10.2124H224.003L217.346 36.8425H204.317L199.073 21.0269L195.111 36.8425H186.974L193.622 10.2124H206.706L211.935 25.8904Z" fill="#00A0E4"/>
</svg>
