<svg width="225" height="76" viewBox="0 0 225 76" fill="none" xmlns="http://www.w3.org/2000/svg">
<path fill-rule="evenodd" clip-rule="evenodd" d="M29.504 49.4036L29.7028 48.8074L74.3447 48.2135C74.5437 47.6175 74.6927 47.0216 74.8416 46.4254C74.9902 45.8309 75.1388 45.2361 75.3373 44.6407L31.0929 44.0468L31.2916 43.4506L75.5372 42.8567C75.6369 42.2598 75.6866 41.663 75.7363 41.0661C75.7857 40.4728 75.835 39.8796 75.9335 39.2863L32.6805 38.69L32.8793 38.0962L75.9335 37.6987C75.9335 36.9774 75.8799 36.3098 75.8284 35.6679V35.6678C75.7807 35.0737 75.7348 34.5016 75.7348 33.9295L34.267 33.3333L34.4657 32.7382L75.536 32.3419C75.3373 30.953 75.1385 29.7629 74.7422 28.5727L36.0534 27.9777L36.2521 27.3814L74.3459 26.9839L73.1558 23.4135L37.4422 23.016L37.641 22.4197L72.5607 22.0234C66.6052 9.12714 53.5114 0 38.2337 0C20.1794 0 4.90162 12.8963 1.52878 29.9592L55.4954 29.3642L54.9003 31.3481L1.33003 30.753C1.23065 31.5469 1.13128 32.2907 1.0319 33.0345C0.932521 33.7783 0.833143 34.5222 0.733765 35.316L53.9077 34.7209L53.3127 36.7049L0.733765 36.1098V37.6975C0.733765 38.6888 0.733765 39.6802 0.932519 40.674L52.3201 40.0777L51.725 42.0629L0.932519 41.4666C1.13127 43.0543 1.33003 44.4431 1.72634 46.0296L50.7324 45.4357L50.1374 47.4185L1.92509 46.8246C2.3226 48.4122 2.71891 49.7987 3.31398 51.1888L48.9472 50.7937L48.3522 52.7765L3.71029 52.1826C4.30655 53.7678 5.09917 55.1567 5.89299 56.5468L47.3596 56.1517L46.7645 58.1344L6.48806 57.537C7.48063 59.1246 8.47201 60.5135 9.66214 61.9024L45.7732 61.5049L45.1769 63.49L10.6547 63.0925C17.4004 70.4333 27.3213 75.1938 38.2337 75.1938C54.7015 75.1938 68.7892 64.6802 73.7484 49.9963L29.504 49.4036ZM97.7558 22.4197H122.161L119.582 30.9518H112.835L107.478 49.0061H97.3595L102.914 30.9518H95.1756L97.7558 22.4197ZM142.594 49.0061H132.08L128.51 38.8876H128.311L125.335 49.0061H115.614L123.551 22.4185H134.064C146.168 22.4185 144.779 29.7605 144.183 31.7444C142.993 35.3148 141.209 37.1012 137.438 38.2925L140.027 43.6712L151.921 22.4184H163.429L165.315 43.4906L171.763 22.4198H181.285L184.262 33.9272H184.461L187.436 22.4198H197.356L189.421 49.0062H179.896L176.919 37.1013H176.722L173.547 49.0062H163.627L163.627 49.006H156.485L156.287 44.2443H149.54L147.358 49.006H142.594L142.594 49.0061ZM130.095 32.9357H131.484C131.711 32.9357 131.928 32.9376 132.133 32.9393C134.084 32.9556 135.092 32.964 135.452 31.3481C135.85 29.7605 134.262 29.5617 132.478 29.5617H131.089L130.095 32.9357ZM155.889 30.9517H155.492L152.12 38.0949H156.088L155.889 30.9517ZM218.586 22.4198H199.54L191.603 49.0062H210.848L213.031 41.8642H203.505L204.301 39.0864H213.23L215.411 32.3408H206.483L207.275 29.7617H216.403L218.586 22.4198ZM220.172 25.5951H220.768V23.0149H221.363V22.4198H219.379V23.0149H220.172V25.5951ZM224.141 25.5951H224.737V22.4198H223.942L223.348 24.9988L222.752 22.4198H221.761V25.5951H222.357V23.0149L222.951 25.5951H223.547L224.141 23.0149V25.5951Z" fill="#D35D35"/>
</svg>
