<svg width="45" height="45" viewBox="0 0 45 45" fill="none" xmlns="http://www.w3.org/2000/svg">
<path d="M0 6C0 2.68629 2.68629 0 6 0H39C42.3137 0 45 2.68629 45 6V39C45 42.3137 42.3137 45 39 45H6C2.68629 45 0 42.3137 0 39V6Z" fill="#01A9F1"/>
<path fill-rule="evenodd" clip-rule="evenodd" d="M16.9731 14.0953C17.0634 14.1739 17.1858 14.218 17.3134 14.218H29.1264C29.254 14.218 29.3765 14.1739 29.4667 14.0953C29.557 14.0167 29.6077 13.9102 29.6077 13.7991V12.9056H33.4771V36.4864H28.2691C28.1414 36.4864 28.019 36.5306 27.9287 36.6091C27.8385 36.6877 27.7878 36.7943 27.7878 36.9054C27.7878 37.0165 27.8385 37.123 27.9287 37.2016C28.019 37.2801 28.1414 37.3243 28.2691 37.3243H33.9585C34.0861 37.3243 34.2086 37.2801 34.2988 37.2016C34.3891 37.123 34.4398 37.0165 34.4398 36.9054V12.4867C34.4398 12.3756 34.3891 12.269 34.2988 12.1904C34.2086 12.1119 34.0861 12.0677 33.9585 12.0677H29.6077V11.1775C29.6077 11.0664 29.557 10.9598 29.4667 10.8813C29.3765 10.8027 29.254 10.7586 29.1264 10.7586H26.739C26.6467 10.0019 26.2363 9.30171 25.5867 8.79249C24.9371 8.28327 24.0942 8.00102 23.2199 8C22.3455 8.00064 21.5022 8.28275 20.8525 8.79203C20.2027 9.30131 19.7924 10.0018 19.7004 10.7586H17.3134C17.1858 10.7586 17.0634 10.8027 16.9731 10.8813C16.8828 10.9598 16.8321 11.0664 16.8321 11.1775V12.0677H12.4813C12.3537 12.0677 12.2312 12.1118 12.141 12.1904C12.0507 12.269 12 12.3755 12 12.4866V36.9053C12 37.0164 12.0507 37.123 12.141 37.2015C12.2312 37.2801 12.3537 37.3242 12.4813 37.3242H15.3308C15.4585 37.3242 15.5809 37.2801 15.6712 37.2015C15.7615 37.123 15.8122 37.0164 15.8122 36.9053C15.8122 36.7942 15.7615 36.6876 15.6712 36.6091C15.5809 36.5305 15.4585 36.4864 15.3308 36.4864H12.9627V12.9055H16.8321V13.7991C16.8321 13.9102 16.8828 14.0167 16.9731 14.0953ZM28.645 12.4675V11.5964H26.2764C26.1487 11.5964 26.0263 11.5523 25.936 11.4737C25.8458 11.3951 25.7951 11.2886 25.7951 11.1775V11.079C25.7951 10.6358 25.6441 10.2025 25.3612 9.83398C25.0782 9.46545 24.6761 9.17822 24.2055 9.00862C23.735 8.83902 23.2173 8.79468 22.7178 8.88121C22.2183 8.96773 21.7595 9.18123 21.3995 9.4947C21.1589 9.70181 20.9683 9.94861 20.8387 10.2207C20.7091 10.4927 20.6431 10.7845 20.6448 11.079V11.1775C20.6448 11.2886 20.5941 11.3951 20.5038 11.4737C20.4135 11.5523 20.2911 11.5964 20.1634 11.5964H17.7948V12.4674C17.7951 12.4738 17.7953 12.4802 17.7953 12.4866C17.7953 12.493 17.7951 12.4994 17.7948 12.5058V13.3802H28.645V12.5058C28.6447 12.4995 28.6445 12.4931 28.6445 12.4867C28.6445 12.4803 28.6447 12.4739 28.645 12.4675ZM23.2199 11.6199C22.9952 11.62 22.7756 11.562 22.5887 11.4535C22.4018 11.3449 22.2562 11.1905 22.1701 11.0099C22.0841 10.8292 22.0615 10.6304 22.1053 10.4386C22.149 10.2468 22.2572 10.0706 22.416 9.93229C22.5749 9.79399 22.7773 9.69979 22.9977 9.66161C23.218 9.62342 23.4465 9.64298 23.654 9.71779C23.8616 9.79261 24.0391 9.91933 24.1639 10.0819C24.2888 10.2445 24.3554 10.4357 24.3554 10.6312C24.3551 10.8933 24.2355 11.1446 24.0226 11.3299C23.8097 11.5153 23.521 11.6195 23.2199 11.6199ZM23.4703 37.3242H24.8998C25.0275 37.3242 25.1499 37.28 25.2402 37.2015C25.3304 37.1229 25.3812 37.0163 25.3812 36.9052C25.3812 36.7941 25.3304 36.6876 25.2402 36.609C25.1499 36.5305 25.0275 36.4863 24.8998 36.4863H23.4703C23.3426 36.4863 23.2202 36.5305 23.1299 36.609C23.0396 36.6876 22.9889 36.7941 22.9889 36.9052C22.9889 37.0163 23.0396 37.1229 23.1299 37.2015C23.2202 37.28 23.3426 37.3242 23.4703 37.3242ZM18.7002 37.3242H20.1009C20.2285 37.3242 20.351 37.28 20.4412 37.2015C20.5315 37.1229 20.5822 37.0163 20.5822 36.9052C20.5822 36.7941 20.5315 36.6876 20.4412 36.609C20.351 36.5305 20.2285 36.4863 20.1009 36.4863H18.7002C18.5725 36.4863 18.4501 36.5305 18.3598 36.609C18.2696 36.6876 18.2189 36.7941 18.2189 36.9052C18.2189 37.0163 18.2696 37.1229 18.3598 37.2015C18.4501 37.28 18.5725 37.3242 18.7002 37.3242ZM30.9257 18.2849H21.62C21.4923 18.2849 21.3699 18.2407 21.2796 18.1622C21.1894 18.0836 21.1387 17.977 21.1387 17.8659C21.1387 17.7548 21.1894 17.6483 21.2796 17.5697C21.3699 17.4912 21.4923 17.447 21.62 17.447H30.9257C31.0533 17.447 31.1757 17.4912 31.266 17.5697C31.3563 17.6483 31.407 17.7548 31.407 17.8659C31.407 17.977 31.3563 18.0836 31.266 18.1622C31.1757 18.2407 31.0533 18.2849 30.9257 18.2849ZM21.62 22.9927H30.9257C31.0533 22.9927 31.1757 22.9486 31.266 22.87C31.3563 22.7915 31.407 22.6849 31.407 22.5738C31.407 22.4627 31.3563 22.3562 31.266 22.2776C31.1757 22.199 31.0533 22.1549 30.9257 22.1549H21.62C21.4923 22.1549 21.3699 22.199 21.2796 22.2776C21.1894 22.3562 21.1387 22.4627 21.1387 22.5738C21.1387 22.6849 21.1894 22.7915 21.2796 22.87C21.3699 22.9486 21.4923 22.9927 21.62 22.9927ZM30.9257 27.7005H21.62C21.4923 27.7005 21.3699 27.6564 21.2796 27.5778C21.1894 27.4992 21.1387 27.3927 21.1387 27.2816C21.1387 27.1705 21.1894 27.0639 21.2796 26.9854C21.3699 26.9068 21.4923 26.8627 21.62 26.8627H30.9257C31.0533 26.8627 31.1757 26.9068 31.266 26.9854C31.3563 27.0639 31.407 27.1705 31.407 27.2816C31.407 27.3927 31.3563 27.4992 31.266 27.5778C31.1757 27.6564 31.0533 27.7005 30.9257 27.7005ZM21.62 32.4083H30.9257C31.0533 32.4083 31.1757 32.3641 31.266 32.2856C31.3563 32.207 31.407 32.1005 31.407 31.9894C31.407 31.8782 31.3563 31.7717 31.266 31.6931C31.1757 31.6146 31.0533 31.5704 30.9257 31.5704H21.62C21.4923 31.5704 21.3699 31.6146 21.2796 31.6931C21.1894 31.7717 21.1387 31.8782 21.1387 31.9894C21.1387 32.1005 21.1894 32.207 21.2796 32.2856C21.3699 32.3641 21.4923 32.4083 21.62 32.4083ZM16.5655 19.5981C16.4379 19.5981 16.3154 19.5539 16.2252 19.4753L15.2524 18.6283C15.1647 18.5493 15.1162 18.4435 15.1173 18.3336C15.1184 18.2238 15.169 18.1187 15.2583 18.041C15.3475 17.9634 15.4683 17.9193 15.5945 17.9184C15.7207 17.9174 15.8422 17.9596 15.933 18.0359L16.5655 18.5864L18.9621 16.501C19.0529 16.4247 19.1744 16.3825 19.3006 16.3834C19.4268 16.3844 19.5476 16.4285 19.6368 16.5061C19.7261 16.5838 19.7767 16.6889 19.7778 16.7987C19.7789 16.9085 19.7304 17.0144 19.6427 17.0934L16.9058 19.4753C16.8156 19.5539 16.6932 19.5981 16.5655 19.5981ZM16.2252 23.8225C16.3155 23.9009 16.4379 23.9449 16.5655 23.9448C16.6931 23.9449 16.8155 23.9009 16.9058 23.8225L19.6427 21.4405C19.7303 21.3615 19.7789 21.2557 19.7778 21.1459C19.7767 21.036 19.726 20.931 19.6368 20.8533C19.5476 20.7756 19.4268 20.7316 19.3006 20.7306C19.1744 20.7297 19.0528 20.7719 18.9621 20.8482L16.5655 22.9336L15.933 22.3827C15.8883 22.3438 15.8352 22.3129 15.7768 22.2919C15.7184 22.2709 15.6558 22.26 15.5925 22.2601C15.5293 22.2601 15.4667 22.2709 15.4083 22.292C15.3499 22.3131 15.2968 22.344 15.2522 22.3829C15.2075 22.4218 15.172 22.468 15.1479 22.5189C15.1237 22.5697 15.1112 22.6242 15.1113 22.6792C15.1113 22.7342 15.1238 22.7887 15.148 22.8395C15.1722 22.8904 15.2077 22.9366 15.2524 22.9754L16.2252 23.8225ZM16.5655 29.1297C16.4378 29.1297 16.3154 29.0855 16.2252 29.0069L15.2524 28.1603C15.1621 28.0818 15.1113 27.9752 15.1113 27.8641C15.1112 27.753 15.1619 27.6464 15.2522 27.5678C15.3424 27.4891 15.4648 27.445 15.5925 27.4449C15.7202 27.4449 15.8427 27.489 15.933 27.5675L16.5655 28.1184L18.9621 26.0326C19.0528 25.9563 19.1744 25.9141 19.3006 25.9151C19.4268 25.916 19.5476 25.9601 19.6368 26.0377C19.726 26.1154 19.7767 26.2205 19.7778 26.3303C19.7789 26.4402 19.7303 26.546 19.6427 26.625L16.9058 29.0069C16.8155 29.0855 16.6931 29.1297 16.5655 29.1297ZM16.2252 33.3541C16.3155 33.4327 16.4379 33.4768 16.5655 33.4768C16.6288 33.4767 16.6914 33.4657 16.7498 33.4445C16.8082 33.4233 16.8612 33.3923 16.9058 33.3533L19.6427 30.9713C19.7304 30.8923 19.7789 30.7865 19.7778 30.6766C19.7767 30.5668 19.7261 30.4617 19.6368 30.3841C19.5476 30.3064 19.4269 30.2623 19.3007 30.2614C19.1745 30.2604 19.0529 30.3026 18.9621 30.3789L16.5655 32.4647L15.9331 31.9143C15.8886 31.8743 15.8355 31.8424 15.7768 31.8204C15.7181 31.7984 15.6549 31.7869 15.591 31.7864C15.5271 31.7859 15.4637 31.7965 15.4046 31.8176C15.3454 31.8386 15.2917 31.8698 15.2465 31.9091C15.2013 31.9484 15.1655 31.9952 15.1413 32.0467C15.1171 32.0982 15.105 32.1533 15.1055 32.2089C15.1061 32.2646 15.1193 32.3195 15.1446 32.3706C15.1698 32.4218 15.2065 32.468 15.2524 32.5066L16.2252 33.3541Z" fill="white"/>
<path d="M16.9731 14.0953L17.3013 13.7181L17.3013 13.7181L16.9731 14.0953ZM29.4667 14.0953L29.795 14.4725L29.795 14.4725L29.4667 14.0953ZM29.6077 12.9056V12.4056H29.1077V12.9056H29.6077ZM33.4771 12.9056H33.9771V12.4056H33.4771V12.9056ZM33.4771 36.4864V36.9864H33.9771V36.4864H33.4771ZM27.9287 36.6091L28.257 36.9863L28.257 36.9863L27.9287 36.6091ZM27.9287 37.2016L28.257 36.8244L28.257 36.8244L27.9287 37.2016ZM34.2988 37.2016L34.6271 37.5787L34.6271 37.5787L34.2988 37.2016ZM34.2988 12.1904L34.6271 11.8133L34.6271 11.8133L34.2988 12.1904ZM29.6077 12.0677H29.1077V12.5677H29.6077V12.0677ZM29.4667 10.8813L29.795 10.5041L29.795 10.5041L29.4667 10.8813ZM26.739 10.7586L26.2426 10.8191L26.2962 11.2586H26.739V10.7586ZM25.5867 8.79249L25.8952 8.39898L25.8952 8.39898L25.5867 8.79249ZM23.2199 8L23.2205 7.5L23.2195 7.5L23.2199 8ZM20.8525 8.79203L21.1609 9.18556L21.1609 9.18556L20.8525 8.79203ZM19.7004 10.7586V11.2586H20.1433L20.1967 10.8189L19.7004 10.7586ZM16.9731 10.8813L17.3013 11.2584L17.3013 11.2584L16.9731 10.8813ZM16.8321 12.0677V12.5677H17.3321V12.0677H16.8321ZM12.141 12.1904L11.8127 11.8132L11.8127 11.8132L12.141 12.1904ZM12.141 37.2015L11.8127 37.5787L12.141 37.2015ZM15.6712 37.2015L15.9994 37.5787L15.9994 37.5787L15.6712 37.2015ZM15.6712 36.6091L15.3429 36.9862L15.3429 36.9862L15.6712 36.6091ZM12.9627 36.4864H12.4627V36.9864H12.9627V36.4864ZM12.9627 12.9055V12.4055H12.4627V12.9055H12.9627ZM16.8321 12.9055H17.3321V12.4055H16.8321V12.9055ZM28.645 11.5964H29.145V11.0964H28.645V11.5964ZM28.645 12.4675L29.1444 12.4938L29.145 12.4807V12.4675H28.645ZM25.7951 11.079L25.2951 11.079V11.079H25.7951ZM25.3612 9.83398L25.7578 9.5295L25.7578 9.5295L25.3612 9.83398ZM24.2055 9.00862L24.3751 8.53824L24.3751 8.53824L24.2055 9.00862ZM21.3995 9.4947L21.7257 9.87363L21.7278 9.8718L21.3995 9.4947ZM20.8387 10.2207L21.2901 10.4357L21.2901 10.4357L20.8387 10.2207ZM20.6448 11.079L21.1448 11.079L21.1448 11.0763L20.6448 11.079ZM20.5038 11.4737L20.832 11.8509L20.832 11.8509L20.5038 11.4737ZM17.7948 11.5964V11.0964H17.2948V11.5964H17.7948ZM17.7948 12.4674H17.2948V12.4806L17.2955 12.4937L17.7948 12.4674ZM17.7948 12.5058L17.2955 12.4795L17.2948 12.4926V12.5058H17.7948ZM17.7948 13.3802H17.2948V13.8802H17.7948V13.3802ZM28.645 13.3802V13.8802H29.145V13.3802H28.645ZM28.645 12.5058H29.145V12.4927L29.1444 12.4795L28.645 12.5058ZM22.5887 11.4535L22.8399 11.0211L22.8399 11.0211L22.5887 11.4535ZM23.2199 11.6199L23.2201 12.1199L23.2205 12.1199L23.2199 11.6199ZM22.1701 11.0099L22.6215 10.7948L22.6215 10.7948L22.1701 11.0099ZM22.416 9.93229L22.0877 9.5552L22.0877 9.5552L22.416 9.93229ZM22.9977 9.66161L23.083 10.1543L23.083 10.1543L22.9977 9.66161ZM23.654 9.71779L23.8236 9.24741L23.8236 9.24741L23.654 9.71779ZM24.1639 10.0819L23.7673 10.3864L23.7673 10.3864L24.1639 10.0819ZM24.3554 10.6312L24.8554 10.6317V10.6312H24.3554ZM24.0226 11.3299L24.3509 11.707L24.3509 11.707L24.0226 11.3299ZM25.2402 37.2015L25.5684 37.5786L25.5684 37.5786L25.2402 37.2015ZM23.1299 37.2015L22.8016 37.5786L22.8016 37.5786L23.1299 37.2015ZM20.4412 37.2015L20.7695 37.5786L20.7695 37.5786L20.4412 37.2015ZM20.4412 36.609L20.113 36.9862L20.113 36.9862L20.4412 36.609ZM18.3598 36.609L18.6881 36.9862L18.6881 36.9862L18.3598 36.609ZM18.3598 37.2015L18.0316 37.5786L18.0316 37.5786L18.3598 37.2015ZM21.2796 18.1622L20.9514 18.5393L20.9514 18.5393L21.2796 18.1622ZM21.2796 17.5697L21.6079 17.9469L21.6079 17.9469L21.2796 17.5697ZM31.266 17.5697L30.9378 17.9469L30.9378 17.9469L31.266 17.5697ZM31.266 18.1622L31.5943 18.5393L31.5943 18.5393L31.266 18.1622ZM31.266 22.87L31.5943 23.2472L31.5943 23.2472L31.266 22.87ZM31.266 22.2776L30.9378 22.6548L30.9378 22.6548L31.266 22.2776ZM21.2796 22.2776L21.6079 22.6548L21.6079 22.6548L21.2796 22.2776ZM21.2796 22.87L20.9514 23.2472L20.9514 23.2472L21.2796 22.87ZM21.2796 27.5778L20.9514 27.955L20.9514 27.955L21.2796 27.5778ZM31.266 27.5778L31.5943 27.955L31.5943 27.955L31.266 27.5778ZM31.266 32.2856L31.5943 32.6627L31.5943 32.6627L31.266 32.2856ZM21.2796 32.2856L20.9514 32.6627L20.9514 32.6627L21.2796 32.2856ZM16.2252 19.4753L15.8969 19.8524L15.8969 19.8524L16.2252 19.4753ZM16.5655 19.5981L16.5654 20.0981L16.5656 20.0981L16.5655 19.5981ZM15.2524 18.6283L14.9177 18.9998L14.9241 19.0054L15.2524 18.6283ZM15.2583 18.041L15.5865 18.4182L15.5865 18.4182L15.2583 18.041ZM15.5945 17.9184L15.5907 17.4184L15.5907 17.4184L15.5945 17.9184ZM15.933 18.0359L16.2613 17.6587L16.2548 17.6532L15.933 18.0359ZM16.5655 18.5864L16.2373 18.9635L16.5655 19.2492L16.8937 18.9636L16.5655 18.5864ZM18.9621 16.501L18.6403 16.1182L18.6339 16.1238L18.9621 16.501ZM19.3006 16.3834L19.2969 16.8834L19.2969 16.8834L19.3006 16.3834ZM19.6368 16.5061L19.3086 16.8833L19.3086 16.8833L19.6368 16.5061ZM19.7778 16.7987L20.2778 16.7937L20.2778 16.7937L19.7778 16.7987ZM19.6427 17.0934L19.971 17.4706L19.9774 17.4648L19.6427 17.0934ZM16.9058 19.4753L16.5776 19.0982L16.5775 19.0982L16.9058 19.4753ZM16.5655 23.9448L16.5658 23.4448L16.5651 23.4448L16.5655 23.9448ZM16.2252 23.8225L15.8968 24.1996L15.8974 24.2001L16.2252 23.8225ZM16.9058 23.8225L17.2336 24.2001L17.234 24.1997L16.9058 23.8225ZM19.6427 21.4405L19.971 21.8178L19.9774 21.812L19.6427 21.4405ZM19.6368 20.8533L19.9651 20.4761L19.965 20.4761L19.6368 20.8533ZM19.3006 20.7306L19.2968 21.2306L19.2968 21.2306L19.3006 20.7306ZM18.9621 20.8482L18.6403 20.4654L18.6338 20.471L18.9621 20.8482ZM16.5655 22.9336L16.2371 23.3106L16.5653 23.5965L16.8937 23.3108L16.5655 22.9336ZM15.933 22.3827L16.2614 22.0056L16.2611 22.0054L15.933 22.3827ZM15.4083 22.292L15.2386 21.8217L15.2386 21.8217L15.4083 22.292ZM15.2522 22.3829L15.5805 22.7599L15.5805 22.7599L15.2522 22.3829ZM15.1479 22.5189L14.6963 22.3042L14.6963 22.3042L15.1479 22.5189ZM15.148 22.8395L14.6966 23.0546L14.6966 23.0546L15.148 22.8395ZM15.2524 22.9754L15.5807 22.5984L15.5805 22.5982L15.2524 22.9754ZM16.2252 29.0069L16.5535 28.6298L16.5534 28.6298L16.2252 29.0069ZM16.5655 29.1297L16.5654 29.6297L16.5656 29.6297L16.5655 29.1297ZM15.2524 28.1603L15.5806 27.7832L15.5805 27.783L15.2524 28.1603ZM15.2522 27.5678L14.9238 27.1907L14.9238 27.1907L15.2522 27.5678ZM15.5925 27.4449L15.5927 27.9449L15.5927 27.9449L15.5925 27.4449ZM15.933 27.5675L16.2614 27.1905L16.2611 27.1903L15.933 27.5675ZM16.5655 28.1184L16.2371 28.4955L16.5654 28.7814L16.8937 28.4956L16.5655 28.1184ZM18.9621 26.0326L18.6403 25.6498L18.6338 25.6555L18.9621 26.0326ZM19.3006 25.9151L19.3044 25.4151L19.3044 25.4151L19.3006 25.9151ZM19.6368 26.0377L19.9651 25.6606L19.965 25.6606L19.6368 26.0377ZM19.7778 26.3303L19.2778 26.3353L19.2778 26.3353L19.7778 26.3303ZM19.6427 26.625L19.971 27.0022L19.9774 26.9964L19.6427 26.625ZM16.9058 29.0069L16.5775 28.6298L16.5775 28.6298L16.9058 29.0069ZM16.5655 33.4768L16.5654 33.9768L16.5665 33.9768L16.5655 33.4768ZM16.2252 33.3541L15.8968 33.7311L15.8969 33.7312L16.2252 33.3541ZM16.7498 33.4445L16.5792 32.9746L16.5791 32.9746L16.7498 33.4445ZM16.9058 33.3533L16.5776 32.9761L16.5765 32.9771L16.9058 33.3533ZM19.6427 30.9713L19.971 31.3485L19.9774 31.3427L19.6427 30.9713ZM19.6368 30.3841L19.9651 30.0069L19.9651 30.0069L19.6368 30.3841ZM19.3007 30.2614L19.3045 29.7614L19.3044 29.7614L19.3007 30.2614ZM18.9621 30.3789L18.6403 29.9962L18.6338 30.0018L18.9621 30.3789ZM16.5655 32.4647L16.2373 32.8419L16.5655 33.1276L16.8938 32.8419L16.5655 32.4647ZM15.9331 31.9143L15.5983 32.2858L15.6048 32.2914L15.9331 31.9143ZM15.591 31.7864L15.5872 32.2864L15.5872 32.2864L15.591 31.7864ZM15.4046 31.8176L15.2368 31.3466L15.2368 31.3466L15.4046 31.8176ZM15.1413 32.0467L15.5938 32.2594L15.5938 32.2594L15.1413 32.0467ZM15.1055 32.2089L14.6055 32.2139L14.6055 32.2139L15.1055 32.2089ZM15.2524 32.5066L15.5809 32.1296L15.5742 32.1239L15.2524 32.5066ZM17.3134 13.718C17.3069 13.718 17.3018 13.7168 17.2988 13.7157C17.2958 13.7146 17.2972 13.7145 17.3013 13.7181L16.6448 14.4725C16.8325 14.6358 17.0739 14.718 17.3134 14.718V13.718ZM29.1264 13.718H17.3134V14.718H29.1264V13.718ZM29.1385 13.7181C29.1427 13.7145 29.144 13.7146 29.141 13.7157C29.138 13.7168 29.1329 13.718 29.1264 13.718V14.718C29.3659 14.718 29.6073 14.6358 29.795 14.4725L29.1385 13.7181ZM29.1077 13.7991C29.1077 13.7534 29.1292 13.7263 29.1385 13.7181L29.795 14.4725C29.9849 14.3072 30.1077 14.067 30.1077 13.7991H29.1077ZM29.1077 12.9056V13.7991H30.1077V12.9056H29.1077ZM33.4771 12.4056H29.6077V13.4056H33.4771V12.4056ZM33.9771 36.4864V12.9056H32.9771V36.4864H33.9771ZM28.2691 36.9864H33.4771V35.9864H28.2691V36.9864ZM28.257 36.9863C28.2528 36.9899 28.2514 36.9898 28.2545 36.9887C28.2575 36.9876 28.2626 36.9864 28.2691 36.9864V35.9864C28.0295 35.9864 27.7882 36.0686 27.6005 36.232L28.257 36.9863ZM28.2878 36.9054C28.2878 36.951 28.2663 36.9782 28.257 36.9863L27.6005 36.232C27.4106 36.3972 27.2878 36.6375 27.2878 36.9054H28.2878ZM28.257 36.8244C28.2663 36.8325 28.2878 36.8597 28.2878 36.9054H27.2878C27.2878 37.1732 27.4106 37.4135 27.6005 37.5787L28.257 36.8244ZM28.2691 36.8243C28.2626 36.8243 28.2575 36.8231 28.2545 36.822C28.2514 36.8209 28.2528 36.8208 28.257 36.8244L27.6005 37.5787C27.7882 37.7421 28.0295 37.8243 28.2691 37.8243V36.8243ZM33.9585 36.8243H28.2691V37.8243H33.9585V36.8243ZM33.9706 36.8244C33.9748 36.8208 33.9761 36.8209 33.9731 36.822C33.9701 36.8231 33.965 36.8243 33.9585 36.8243V37.8243C34.1981 37.8243 34.4394 37.7421 34.6271 37.5787L33.9706 36.8244ZM33.9398 36.9054C33.9398 36.8597 33.9613 36.8325 33.9706 36.8244L34.6271 37.5787C34.817 37.4135 34.9398 37.1733 34.9398 36.9054H33.9398ZM33.9398 12.4867V36.9054H34.9398V12.4867H33.9398ZM33.9706 12.5676C33.9613 12.5595 33.9398 12.5324 33.9398 12.4867H34.9398C34.9398 12.2188 34.817 11.9785 34.6271 11.8133L33.9706 12.5676ZM33.9585 12.5677C33.965 12.5677 33.9701 12.5689 33.9731 12.57C33.9761 12.5711 33.9748 12.5712 33.9706 12.5676L34.6271 11.8133C34.4394 11.65 34.1981 11.5677 33.9585 11.5677V12.5677ZM29.6077 12.5677H33.9585V11.5677H29.6077V12.5677ZM29.1077 11.1775V12.0677H30.1077V11.1775H29.1077ZM29.1385 11.2584C29.1292 11.2503 29.1077 11.2232 29.1077 11.1775H30.1077C30.1077 10.9096 29.9849 10.6694 29.795 10.5041L29.1385 11.2584ZM29.1264 11.2586C29.1329 11.2586 29.138 11.2598 29.141 11.2608C29.144 11.2619 29.1427 11.2621 29.1385 11.2584L29.795 10.5041C29.6073 10.3408 29.3659 10.2586 29.1264 10.2586V11.2586ZM26.739 11.2586H29.1264V10.2586H26.739V11.2586ZM25.2782 9.186C25.8331 9.62096 26.1678 10.2055 26.2426 10.8191L27.2353 10.698C27.1256 9.79837 26.6395 8.98246 25.8952 8.39898L25.2782 9.186ZM23.2193 8.5C23.989 8.5009 24.7219 8.7499 25.2782 9.186L25.8952 8.39898C25.1523 7.81665 24.1993 7.50114 23.2205 7.5L23.2193 8.5ZM21.1609 9.18556C21.7173 8.74943 22.4505 8.50056 23.2203 8.5L23.2195 7.5C22.2405 7.50072 21.2871 7.81607 20.544 8.3985L21.1609 9.18556ZM20.1967 10.8189C20.2713 10.2052 20.6059 9.62054 21.1609 9.18556L20.544 8.3985C19.7995 8.98207 19.3134 9.79829 19.204 10.6983L20.1967 10.8189ZM17.3134 11.2586H19.7004V10.2586H17.3134V11.2586ZM17.3013 11.2584C17.2972 11.2621 17.2958 11.2619 17.2988 11.2608C17.3018 11.2598 17.3069 11.2586 17.3134 11.2586V10.2586C17.0739 10.2586 16.8325 10.3408 16.6448 10.5041L17.3013 11.2584ZM17.3321 11.1775C17.3321 11.2232 17.3107 11.2503 17.3013 11.2584L16.6448 10.5041C16.455 10.6694 16.3321 10.9096 16.3321 11.1775H17.3321ZM17.3321 12.0677V11.1775H16.3321V12.0677H17.3321ZM12.4813 12.5677H16.8321V11.5677H12.4813V12.5677ZM12.4692 12.5676C12.465 12.5712 12.4637 12.571 12.4667 12.5699C12.4697 12.5689 12.4748 12.5677 12.4813 12.5677V11.5677C12.2418 11.5677 12.0004 11.6499 11.8127 11.8132L12.4692 12.5676ZM12.5 12.4866C12.5 12.5323 12.4786 12.5594 12.4692 12.5676L11.8127 11.8132C11.6229 11.9785 11.5 12.2187 11.5 12.4866H12.5ZM12.5 36.9053V12.4866H11.5V36.9053H12.5ZM12.4692 36.8244C12.4786 36.8325 12.5 36.8596 12.5 36.9053H11.5C11.5 37.1732 11.6229 37.4134 11.8127 37.5787L12.4692 36.8244ZM12.4813 36.8242C12.4748 36.8242 12.4697 36.823 12.4667 36.822C12.4637 36.8209 12.465 36.8207 12.4692 36.8244L11.8127 37.5787C12.0004 37.742 12.2418 37.8242 12.4813 37.8242V36.8242ZM15.3308 36.8242H12.4813V37.8242H15.3308V36.8242ZM15.3429 36.8244C15.3471 36.8207 15.3485 36.8209 15.3455 36.822C15.3425 36.823 15.3374 36.8242 15.3308 36.8242V37.8242C15.5704 37.8242 15.8118 37.742 15.9994 37.5787L15.3429 36.8244ZM15.3122 36.9053C15.3122 36.8596 15.3336 36.8325 15.3429 36.8244L15.9994 37.5787C16.1893 37.4134 16.3122 37.1732 16.3122 36.9053H15.3122ZM15.3429 36.9862C15.3336 36.9781 15.3122 36.951 15.3122 36.9053H16.3122C16.3122 36.6374 16.1893 36.3972 15.9994 36.2319L15.3429 36.9862ZM15.3308 36.9864C15.3374 36.9864 15.3425 36.9876 15.3455 36.9886C15.3485 36.9897 15.3471 36.9899 15.3429 36.9862L15.9995 36.2319C15.8118 36.0686 15.5704 35.9864 15.3308 35.9864V36.9864ZM12.9627 36.9864H15.3308V35.9864H12.9627V36.9864ZM12.4627 12.9055V36.4864H13.4627V12.9055H12.4627ZM16.8321 12.4055H12.9627V13.4055H16.8321V12.4055ZM17.3321 13.7991V12.9055H16.3321V13.7991H17.3321ZM17.3013 13.7181C17.3107 13.7263 17.3321 13.7534 17.3321 13.7991H16.3321C16.3321 14.067 16.455 14.3072 16.6448 14.4725L17.3013 13.7181ZM28.145 11.5964V12.4675H29.145V11.5964H28.145ZM26.2764 12.0964H28.645V11.0964H26.2764V12.0964ZM25.6078 11.8509C25.7954 12.0142 26.0368 12.0964 26.2764 12.0964V11.0964C26.2699 11.0964 26.2647 11.0952 26.2618 11.0941C26.2587 11.0931 26.2601 11.0929 26.2643 11.0965L25.6078 11.8509ZM25.2951 11.1775C25.2951 11.4454 25.4179 11.6856 25.6078 11.8509L26.2643 11.0965C26.2736 11.1047 26.2951 11.1318 26.2951 11.1775H25.2951ZM25.2951 11.079V11.1775H26.2951V11.079H25.2951ZM24.9646 10.1385C25.1839 10.4242 25.2951 10.7515 25.2951 11.079L26.2951 11.0791C26.2951 10.5202 26.1043 9.98087 25.7578 9.5295L24.9646 10.1385ZM24.036 9.479C24.4237 9.61874 24.7444 9.85164 24.9646 10.1385L25.7578 9.5295C25.4121 9.07925 24.9284 8.73769 24.3751 8.53824L24.036 9.479ZM22.8031 9.37387C23.2184 9.30194 23.6482 9.33922 24.036 9.479L24.3751 8.53824C23.8218 8.33882 23.2162 8.28743 22.6325 8.38854L22.8031 9.37387ZM21.7278 9.8718C22.0146 9.62208 22.3879 9.4458 22.8031 9.37387L22.6325 8.38854C22.0488 8.48966 21.5044 8.74037 21.0712 9.11759L21.7278 9.8718ZM21.2901 10.4357C21.3882 10.2297 21.5349 10.0379 21.7257 9.87362L21.0733 9.11577C20.7829 9.36575 20.5483 9.66752 20.3873 10.0056L21.2901 10.4357ZM21.1448 11.0763C21.1436 10.8589 21.1921 10.6414 21.2901 10.4357L20.3873 10.0056C20.226 10.3441 20.1427 10.7102 20.1448 11.0818L21.1448 11.0763ZM21.1448 11.1775V11.079H20.1448V11.1775H21.1448ZM20.832 11.8509C21.0219 11.6856 21.1448 11.4454 21.1448 11.1775H20.1448C20.1448 11.1318 20.1662 11.1047 20.1755 11.0965L20.832 11.8509ZM20.1634 12.0964C20.403 12.0964 20.6444 12.0142 20.832 11.8509L20.1755 11.0965C20.1797 11.0929 20.1811 11.0931 20.1781 11.0941C20.1751 11.0952 20.17 11.0964 20.1634 11.0964V12.0964ZM17.7948 12.0964H20.1634V11.0964H17.7948V12.0964ZM18.2948 12.4674V11.5964H17.2948V12.4674H18.2948ZM18.2953 12.4866C18.2953 12.4714 18.2949 12.4563 18.2941 12.4411L17.2955 12.4937C17.2953 12.4913 17.2953 12.489 17.2953 12.4866H18.2953ZM18.2941 12.5321C18.2949 12.517 18.2953 12.5018 18.2953 12.4866H17.2953C17.2953 12.4842 17.2953 12.4819 17.2955 12.4795L18.2941 12.5321ZM18.2948 13.3802V12.5058H17.2948V13.3802H18.2948ZM28.645 12.8802H17.7948V13.8802H28.645V12.8802ZM28.145 12.5058V13.3802H29.145V12.5058H28.145ZM28.1445 12.4867C28.1445 12.5018 28.1449 12.517 28.1457 12.5321L29.1444 12.4795C29.1445 12.482 29.1445 12.4843 29.1445 12.4867H28.1445ZM28.1457 12.4412C28.1449 12.4564 28.1445 12.4715 28.1445 12.4867H29.1445C29.1445 12.489 29.1445 12.4914 29.1444 12.4938L28.1457 12.4412ZM22.3375 11.8858C22.6038 12.0405 22.9108 12.12 23.2201 12.1199L23.2197 11.1199C23.0797 11.1199 22.9473 11.0836 22.8399 11.0211L22.3375 11.8858ZM21.7187 11.2249C21.8516 11.5038 22.0709 11.7308 22.3375 11.8858L22.8399 11.0211C22.7328 10.9589 22.6607 10.8772 22.6215 10.7948L21.7187 11.2249ZM21.6178 10.3273C21.5485 10.6309 21.5852 10.9445 21.7187 11.2249L22.6215 10.7948C22.583 10.7139 22.5745 10.6299 22.5927 10.5499L21.6178 10.3273ZM22.0877 9.5552C21.855 9.75783 21.6868 10.0249 21.6178 10.3273L22.5927 10.5499C22.6112 10.4687 22.6594 10.3834 22.7444 10.3094L22.0877 9.5552ZM22.9123 9.16895C22.6077 9.22172 22.3198 9.35314 22.0877 9.5552L22.7444 10.3094C22.83 10.2348 22.9469 10.1779 23.083 10.1543L22.9123 9.16895ZM23.8236 9.24741C23.5332 9.14278 23.2169 9.11617 22.9123 9.16895L23.083 10.1543C23.2191 10.1307 23.3597 10.1432 23.4845 10.1882L23.8236 9.24741ZM24.5605 9.77741C24.3729 9.53311 24.114 9.35207 23.8236 9.24741L23.4845 10.1882C23.6093 10.2331 23.7052 10.3055 23.7673 10.3864L24.5605 9.77741ZM24.8554 10.6312C24.8554 10.32 24.7489 10.0228 24.5605 9.77741L23.7673 10.3864C23.8286 10.4662 23.8554 10.5514 23.8554 10.6312H24.8554ZM24.3509 11.707C24.6632 11.4351 24.855 11.0503 24.8554 10.6317L23.8554 10.6307C23.8553 10.7362 23.8077 10.8541 23.6942 10.9528L24.3509 11.707ZM23.2205 12.1199C23.6334 12.1194 24.0408 11.977 24.3509 11.707L23.6942 10.9528C23.5786 11.0535 23.4087 11.1197 23.2194 11.1199L23.2205 12.1199ZM24.8998 36.8242H23.4703V37.8242H24.8998V36.8242ZM24.9119 36.8243C24.9161 36.8207 24.9175 36.8208 24.9144 36.8219C24.9115 36.823 24.9063 36.8242 24.8998 36.8242V37.8242C25.1394 37.8242 25.3808 37.742 25.5684 37.5786L24.9119 36.8243ZM24.8812 36.9052C24.8812 36.8596 24.9026 36.8324 24.9119 36.8243L25.5684 37.5786C25.7583 37.4134 25.8812 37.1731 25.8812 36.9052H24.8812ZM24.9119 36.9862C24.9026 36.9781 24.8812 36.9509 24.8812 36.9052H25.8812C25.8812 36.6373 25.7583 36.3971 25.5684 36.2319L24.9119 36.9862ZM24.8998 36.9863C24.9063 36.9863 24.9115 36.9875 24.9144 36.9886C24.9175 36.9897 24.9161 36.9898 24.9119 36.9862L25.5684 36.2319C25.3808 36.0685 25.1394 35.9863 24.8998 35.9863V36.9863ZM23.4703 36.9863H24.8998V35.9863H23.4703V36.9863ZM23.4581 36.9862C23.454 36.9898 23.4526 36.9897 23.4556 36.9886C23.4586 36.9875 23.4637 36.9863 23.4703 36.9863V35.9863C23.2307 35.9863 22.9893 36.0685 22.8016 36.2319L23.4581 36.9862ZM23.4889 36.9052C23.4889 36.9509 23.4675 36.9781 23.4581 36.9862L22.8016 36.2319C22.6118 36.3971 22.4889 36.6374 22.4889 36.9052H23.4889ZM23.4582 36.8243C23.4675 36.8324 23.4889 36.8596 23.4889 36.9052H22.4889C22.4889 37.1731 22.6118 37.4134 22.8016 37.5786L23.4582 36.8243ZM23.4703 36.8242C23.4637 36.8242 23.4586 36.823 23.4556 36.8219C23.4526 36.8208 23.454 36.8207 23.4581 36.8243L22.8016 37.5786C22.9893 37.742 23.2307 37.8242 23.4703 37.8242V36.8242ZM20.1009 36.8242H18.7002V37.8242H20.1009V36.8242ZM20.113 36.8243C20.1172 36.8207 20.1186 36.8208 20.1155 36.8219C20.1125 36.823 20.1074 36.8242 20.1009 36.8242V37.8242C20.3405 37.8242 20.5818 37.742 20.7695 37.5786L20.113 36.8243ZM20.0822 36.9052C20.0822 36.8596 20.1037 36.8324 20.113 36.8243L20.7695 37.5786C20.9594 37.4134 21.0822 37.1731 21.0822 36.9052H20.0822ZM20.113 36.9862C20.1037 36.9781 20.0822 36.9509 20.0822 36.9052H21.0822C21.0822 36.6373 20.9594 36.3971 20.7695 36.2319L20.113 36.9862ZM20.1009 36.9863C20.1074 36.9863 20.1125 36.9875 20.1155 36.9886C20.1186 36.9897 20.1172 36.9898 20.113 36.9862L20.7695 36.2319C20.5818 36.0685 20.3405 35.9863 20.1009 35.9863V36.9863ZM18.7002 36.9863H20.1009V35.9863H18.7002V36.9863ZM18.6881 36.9862C18.6839 36.9898 18.6825 36.9897 18.6856 36.9886C18.6886 36.9875 18.6937 36.9863 18.7002 36.9863V35.9863C18.4606 35.9863 18.2193 36.0685 18.0316 36.2319L18.6881 36.9862ZM18.7189 36.9052C18.7189 36.9509 18.6974 36.9781 18.6881 36.9862L18.0316 36.2319C17.8417 36.3971 17.7189 36.6374 17.7189 36.9052H18.7189ZM18.6881 36.8243C18.6974 36.8324 18.7189 36.8596 18.7189 36.9052H17.7189C17.7189 37.1731 17.8417 37.4134 18.0316 37.5786L18.6881 36.8243ZM18.7002 36.8242C18.6937 36.8242 18.6886 36.823 18.6856 36.8219C18.6825 36.8208 18.6839 36.8207 18.6881 36.8243L18.0316 37.5786C18.2193 37.742 18.4606 37.8242 18.7002 37.8242V36.8242ZM21.62 18.7849H30.9257V17.7849H21.62V18.7849ZM20.9514 18.5393C21.1391 18.7026 21.3804 18.7849 21.62 18.7849V17.7849C21.6135 17.7849 21.6083 17.7837 21.6054 17.7826C21.6023 17.7815 21.6037 17.7814 21.6079 17.785L20.9514 18.5393ZM20.6387 17.8659C20.6387 18.1338 20.7615 18.3741 20.9514 18.5393L21.6079 17.785C21.6172 17.7931 21.6387 17.8202 21.6387 17.8659H20.6387ZM20.9514 17.1926C20.7615 17.3578 20.6387 17.598 20.6387 17.8659H21.6387C21.6387 17.9116 21.6172 17.9388 21.6079 17.9469L20.9514 17.1926ZM21.62 16.947C21.3804 16.947 21.1391 17.0292 20.9514 17.1926L21.6079 17.9469C21.6037 17.9505 21.6023 17.9504 21.6054 17.9493C21.6083 17.9482 21.6135 17.947 21.62 17.947V16.947ZM30.9257 16.947H21.62V17.947H30.9257V16.947ZM31.5943 17.1926C31.4066 17.0292 31.1652 16.947 30.9257 16.947V17.947C30.9322 17.947 30.9373 17.9482 30.9403 17.9493C30.9433 17.9504 30.9419 17.9505 30.9378 17.9469L31.5943 17.1926ZM31.907 17.8659C31.907 17.598 31.7841 17.3578 31.5943 17.1926L30.9378 17.9469C30.9284 17.9388 30.907 17.9116 30.907 17.8659H31.907ZM31.5943 18.5393C31.7841 18.3741 31.907 18.1338 31.907 17.8659H30.907C30.907 17.8202 30.9284 17.7931 30.9378 17.785L31.5943 18.5393ZM30.9257 18.7849C31.1652 18.7849 31.4066 18.7027 31.5943 18.5393L30.9378 17.785C30.9419 17.7814 30.9433 17.7815 30.9403 17.7826C30.9373 17.7837 30.9322 17.7849 30.9257 17.7849V18.7849ZM30.9257 22.4927H21.62V23.4927H30.9257V22.4927ZM30.9378 22.4929C30.9419 22.4892 30.9433 22.4894 30.9403 22.4905C30.9373 22.4916 30.9322 22.4927 30.9257 22.4927V23.4927C31.1652 23.4927 31.4066 23.4105 31.5943 23.2472L30.9378 22.4929ZM30.907 22.5738C30.907 22.5281 30.9284 22.501 30.9378 22.4929L31.5943 23.2472C31.7841 23.082 31.907 22.8417 31.907 22.5738H30.907ZM30.9378 22.6548C30.9284 22.6466 30.907 22.6195 30.907 22.5738H31.907C31.907 22.3059 31.7841 22.0657 31.5943 21.9004L30.9378 22.6548ZM30.9257 22.6549C30.9322 22.6549 30.9373 22.6561 30.9403 22.6572C30.9433 22.6583 30.9419 22.6584 30.9378 22.6548L31.5943 21.9004C31.4066 21.7371 31.1652 21.6549 30.9257 21.6549V22.6549ZM21.62 22.6549H30.9257V21.6549H21.62V22.6549ZM21.6079 22.6548C21.6037 22.6584 21.6023 22.6583 21.6054 22.6572C21.6083 22.6561 21.6135 22.6549 21.62 22.6549V21.6549C21.3804 21.6549 21.1391 21.7371 20.9514 21.9004L21.6079 22.6548ZM21.6387 22.5738C21.6387 22.6195 21.6172 22.6466 21.6079 22.6548L20.9514 21.9004C20.7615 22.0657 20.6387 22.3059 20.6387 22.5738H21.6387ZM21.6079 22.4929C21.6172 22.501 21.6387 22.5281 21.6387 22.5738H20.6387C20.6387 22.8417 20.7615 23.082 20.9514 23.2472L21.6079 22.4929ZM21.62 22.4927C21.6135 22.4927 21.6084 22.4916 21.6054 22.4905C21.6023 22.4894 21.6037 22.4892 21.6079 22.4929L20.9514 23.2472C21.1391 23.4105 21.3804 23.4927 21.62 23.4927V22.4927ZM21.62 28.2005H30.9257V27.2005H21.62V28.2005ZM20.9514 27.955C21.1391 28.1183 21.3804 28.2005 21.62 28.2005V27.2005C21.6135 27.2005 21.6083 27.1993 21.6054 27.1982C21.6023 27.1972 21.6037 27.197 21.6079 27.2006L20.9514 27.955ZM20.6387 27.2816C20.6387 27.5495 20.7615 27.7897 20.9514 27.955L21.6079 27.2006C21.6172 27.2088 21.6387 27.2359 21.6387 27.2816H20.6387ZM20.9514 26.6082C20.7615 26.7734 20.6387 27.0137 20.6387 27.2816H21.6387C21.6387 27.3273 21.6172 27.3544 21.6079 27.3625L20.9514 26.6082ZM21.62 26.3627C21.3804 26.3627 21.1391 26.4449 20.9514 26.6082L21.6079 27.3625C21.6037 27.3662 21.6023 27.366 21.6054 27.3649C21.6083 27.3639 21.6135 27.3627 21.62 27.3627V26.3627ZM30.9257 26.3627H21.62V27.3627H30.9257V26.3627ZM31.5943 26.6082C31.4066 26.4449 31.1652 26.3627 30.9257 26.3627V27.3627C30.9322 27.3627 30.9373 27.3639 30.9403 27.3649C30.9433 27.366 30.9419 27.3662 30.9378 27.3625L31.5943 26.6082ZM31.907 27.2816C31.907 27.0137 31.7841 26.7735 31.5943 26.6082L30.9378 27.3625C30.9284 27.3544 30.907 27.3273 30.907 27.2816H31.907ZM31.5943 27.955C31.7841 27.7897 31.907 27.5495 31.907 27.2816H30.907C30.907 27.2359 30.9284 27.2088 30.9378 27.2007L31.5943 27.955ZM30.9257 28.2005C31.1652 28.2005 31.4066 28.1183 31.5943 27.955L30.9378 27.2006C30.9419 27.197 30.9433 27.1972 30.9403 27.1982C30.9373 27.1993 30.9322 27.2005 30.9257 27.2005V28.2005ZM30.9257 31.9083H21.62V32.9083H30.9257V31.9083ZM30.9378 31.9084C30.9419 31.9048 30.9433 31.9049 30.9403 31.906C30.9373 31.9071 30.9322 31.9083 30.9257 31.9083V32.9083C31.1652 32.9083 31.4066 32.8261 31.5943 32.6627L30.9378 31.9084ZM30.907 31.9894C30.907 31.9437 30.9284 31.9165 30.9378 31.9084L31.5943 32.6627C31.7841 32.4975 31.907 32.2573 31.907 31.9894H30.907ZM30.9378 32.0703C30.9284 32.0622 30.907 32.035 30.907 31.9894H31.907C31.907 31.7215 31.7841 31.4812 31.5943 31.316L30.9378 32.0703ZM30.9257 32.0704C30.9322 32.0704 30.9373 32.0716 30.9403 32.0727C30.9433 32.0738 30.9419 32.0739 30.9378 32.0703L31.5943 31.316C31.4066 31.1526 31.1652 31.0704 30.9257 31.0704V32.0704ZM21.62 32.0704H30.9257V31.0704H21.62V32.0704ZM21.6079 32.0703C21.6037 32.0739 21.6023 32.0738 21.6054 32.0727C21.6083 32.0716 21.6135 32.0704 21.62 32.0704V31.0704C21.3804 31.0704 21.1391 31.1526 20.9514 31.316L21.6079 32.0703ZM21.6387 31.9894C21.6387 32.035 21.6172 32.0622 21.6079 32.0703L20.9514 31.316C20.7615 31.4812 20.6387 31.7215 20.6387 31.9894H21.6387ZM21.6079 31.9084C21.6172 31.9165 21.6387 31.9437 21.6387 31.9894H20.6387C20.6387 32.2573 20.7615 32.4975 20.9514 32.6627L21.6079 31.9084ZM21.62 31.9083C21.6135 31.9083 21.6083 31.9071 21.6054 31.906C21.6023 31.9049 21.6037 31.9048 21.6079 31.9084L20.9514 32.6627C21.1391 32.8261 21.3804 32.9083 21.62 32.9083V31.9083ZM15.8969 19.8524C16.0845 20.0158 16.3259 20.098 16.5654 20.0981L16.5656 19.0981C16.5591 19.0981 16.554 19.0969 16.551 19.0958C16.5479 19.0947 16.5493 19.0946 16.5535 19.0982L15.8969 19.8524ZM14.9241 19.0054L15.8969 19.8524L16.5535 19.0983L15.5808 18.2512L14.9241 19.0054ZM14.6173 18.3286C14.6147 18.5935 14.7325 18.8328 14.9177 18.9997L15.5871 18.2568C15.597 18.2657 15.6177 18.2934 15.6173 18.3386L14.6173 18.3286ZM14.93 17.6639C14.7424 17.8272 14.62 18.0639 14.6173 18.3286L15.6173 18.3386C15.6168 18.3836 15.5957 18.4102 15.5865 18.4182L14.93 17.6639ZM15.5907 17.4184C15.3538 17.4202 15.1156 17.5024 14.93 17.6639L15.5865 18.4182C15.5824 18.4218 15.581 18.4217 15.5839 18.4206C15.5868 18.4196 15.5918 18.4184 15.5982 18.4183L15.5907 17.4184ZM16.2548 17.6532C16.0667 17.4951 15.8276 17.4166 15.5907 17.4184L15.5982 18.4183C15.6047 18.4183 15.6098 18.4194 15.613 18.4205C15.6162 18.4216 15.6152 18.4219 15.6113 18.4187L16.2548 17.6532ZM16.8938 18.2092L16.2613 17.6588L15.6048 18.4131L16.2373 18.9635L16.8938 18.2092ZM18.6339 16.1238L16.2373 18.2092L16.8937 18.9636L19.2903 16.8782L18.6339 16.1238ZM19.3044 15.8835C19.0675 15.8817 18.8284 15.9602 18.6403 16.1183L19.2838 16.8838C19.28 16.887 19.2789 16.8867 19.2821 16.8856C19.2853 16.8845 19.2904 16.8834 19.2969 16.8834L19.3044 15.8835ZM19.9651 16.129C19.7795 15.9674 19.5414 15.8852 19.3044 15.8835L19.2969 16.8834C19.3033 16.8835 19.3083 16.8847 19.3112 16.8857C19.3141 16.8868 19.3127 16.8869 19.3086 16.8833L19.9651 16.129ZM20.2778 16.7937C20.2751 16.529 20.1527 16.2923 19.9651 16.129L19.3086 16.8833C19.2994 16.8753 19.2783 16.8487 19.2778 16.8037L20.2778 16.7937ZM19.9774 17.4648C20.1626 17.2979 20.2804 17.0585 20.2778 16.7937L19.2778 16.8037C19.2774 16.7585 19.2981 16.7308 19.308 16.7219L19.9774 17.4648ZM17.2341 19.8525L19.9709 17.4705L19.3144 16.7162L16.5776 19.0982L17.2341 19.8525ZM16.5656 20.0981C16.8051 20.098 17.0465 20.0158 17.2341 19.8524L16.5775 19.0982C16.5817 19.0946 16.5831 19.0947 16.58 19.0958C16.5771 19.0969 16.5719 19.0981 16.5654 19.0981L16.5656 20.0981ZM16.5651 23.4448C16.5586 23.4448 16.5535 23.4437 16.5505 23.4426C16.5474 23.4415 16.5488 23.4413 16.553 23.4449L15.8974 24.2001C16.0851 24.363 16.3264 24.445 16.5658 24.4448L16.5651 23.4448ZM16.578 23.4449C16.5822 23.4413 16.5835 23.4415 16.5805 23.4426C16.5775 23.4437 16.5723 23.4448 16.5658 23.4448L16.5651 24.4448C16.8046 24.445 17.0458 24.363 17.2336 24.2001L16.578 23.4449ZM19.3144 21.0634L16.5775 23.4453L17.234 24.1997L19.9709 21.8177L19.3144 21.0634ZM19.2778 21.1509C19.2773 21.1057 19.2981 21.078 19.3079 21.0691L19.9774 21.812C20.1626 21.6451 20.2804 21.4057 20.2777 21.1409L19.2778 21.1509ZM19.3085 21.2304C19.2994 21.2225 19.2782 21.1959 19.2778 21.1509L20.2777 21.1409C20.2751 20.8762 20.1527 20.6395 19.9651 20.4761L19.3085 21.2304ZM19.2968 21.2306C19.3033 21.2306 19.3083 21.2318 19.3112 21.2329C19.3141 21.2339 19.3127 21.2341 19.3085 21.2305L19.965 20.4761C19.7795 20.3146 19.5413 20.2324 19.3044 20.2306L19.2968 21.2306ZM19.2838 21.2309C19.2799 21.2342 19.2789 21.2339 19.2821 21.2328C19.2852 21.2317 19.2904 21.2305 19.2968 21.2306L19.3044 20.2306C19.0675 20.2288 18.8283 20.3074 18.6403 20.4654L19.2838 21.2309ZM16.8937 23.3108L19.2903 21.2254L18.6338 20.471L16.2373 22.5564L16.8937 23.3108ZM15.6046 22.7597L16.2371 23.3106L16.8939 22.5565L16.2614 22.0056L15.6046 22.7597ZM15.6074 22.7623C15.6104 22.7634 15.6091 22.7636 15.6049 22.76L16.2611 22.0054C16.1675 21.924 16.06 21.8625 15.9462 21.8215L15.6074 22.7623ZM15.5927 22.7601C15.5992 22.7601 15.6043 22.7612 15.6074 22.7623L15.9462 21.8215C15.8324 21.7805 15.7123 21.76 15.5924 21.7601L15.5927 22.7601ZM15.578 22.7623C15.581 22.7612 15.5862 22.7601 15.5927 22.7601L15.5924 21.7601C15.4724 21.7601 15.3524 21.7806 15.2386 21.8217L15.578 22.7623ZM15.5805 22.7599C15.5764 22.7636 15.575 22.7634 15.578 22.7623L15.2386 21.8217C15.1248 21.8628 15.0173 21.9244 14.9238 22.0058L15.5805 22.7599ZM15.5994 22.7336C15.5926 22.748 15.5848 22.7562 15.5805 22.7599L14.9238 22.0058C14.8301 22.0874 14.7515 22.1881 14.6963 22.3042L15.5994 22.7336ZM15.6113 22.679C15.6113 22.7001 15.6064 22.7189 15.5994 22.7336L14.6963 22.3042C14.641 22.4205 14.6112 22.5483 14.6113 22.6794L15.6113 22.679ZM15.5994 22.6245C15.6064 22.6392 15.6113 22.6579 15.6113 22.679L14.6113 22.6794C14.6113 22.8105 14.6412 22.9383 14.6966 23.0546L15.5994 22.6245ZM15.5805 22.5982C15.5848 22.6019 15.5925 22.6101 15.5994 22.6245L14.6966 23.0546C14.7519 23.1706 14.8305 23.2712 14.9243 23.3527L15.5805 22.5982ZM16.5535 23.4454L15.5807 22.5984L14.9241 23.3525L15.8968 24.1996L16.5535 23.4454ZM15.8969 29.3841C16.0845 29.5474 16.3258 29.6296 16.5654 29.6297L16.5656 28.6297C16.559 28.6297 16.5539 28.6285 16.5509 28.6274C16.5479 28.6263 16.5493 28.6262 16.5535 28.6298L15.8969 29.3841ZM14.9241 28.5375L15.8969 29.3841L16.5534 28.6298L15.5806 27.7832L14.9241 28.5375ZM14.6113 27.8643C14.6114 28.1322 14.7343 28.3724 14.9243 28.5376L15.5805 27.783C15.5898 27.7911 15.6112 27.8182 15.6113 27.8639L14.6113 27.8643ZM14.9238 27.1907C14.7339 27.356 14.6112 27.5964 14.6113 27.8643L15.6113 27.8639C15.6113 27.9095 15.5899 27.9367 15.5805 27.9448L14.9238 27.1907ZM15.5924 26.9449C15.3528 26.945 15.1114 27.0273 14.9238 27.1907L15.5805 27.9448C15.5764 27.9484 15.575 27.9483 15.578 27.9472C15.581 27.9461 15.5861 27.9449 15.5927 27.9449L15.5924 26.9449ZM16.2611 27.1903C16.0734 27.027 15.832 26.9449 15.5924 26.9449L15.5927 27.9449C15.5992 27.9449 15.6044 27.9461 15.6074 27.9472C15.6104 27.9483 15.6091 27.9484 15.6049 27.9448L16.2611 27.1903ZM16.8939 27.7414L16.2614 27.1905L15.6046 27.9446L16.2371 28.4955L16.8939 27.7414ZM18.6338 25.6555L16.2372 27.7413L16.8937 28.4956L19.2903 26.4098L18.6338 25.6555ZM19.3044 25.4151C19.0675 25.4133 18.8283 25.4918 18.6403 25.6499L19.2838 26.4154C19.2799 26.4186 19.2789 26.4183 19.2821 26.4172C19.2852 26.4161 19.2904 26.415 19.2968 26.415L19.3044 25.4151ZM19.965 25.6606C19.7795 25.4991 19.5413 25.4169 19.3044 25.4151L19.2968 26.415C19.3033 26.4151 19.3083 26.4163 19.3112 26.4173C19.3141 26.4184 19.3127 26.4185 19.3085 26.4149L19.965 25.6606ZM20.2777 26.3253C20.2751 26.0606 20.1527 25.8239 19.9651 25.6606L19.3085 26.4149C19.2994 26.4069 19.2782 26.3803 19.2778 26.3353L20.2777 26.3253ZM19.9774 26.9964C20.1626 26.8295 20.2804 26.5902 20.2777 26.3253L19.2778 26.3353C19.2773 26.2901 19.2981 26.2624 19.3079 26.2535L19.9774 26.9964ZM17.234 29.3841L19.9709 27.0021L19.3144 26.2478L16.5775 28.6298L17.234 29.3841ZM16.5656 29.6297C16.8051 29.6296 17.0465 29.5474 17.2341 29.3841L16.5775 28.6298C16.5817 28.6262 16.583 28.6263 16.58 28.6274C16.577 28.6285 16.5719 28.6297 16.5654 28.6297L16.5656 29.6297ZM16.5656 32.9768C16.5591 32.9768 16.554 32.9757 16.551 32.9746C16.548 32.9735 16.5493 32.9733 16.5535 32.977L15.8969 33.7312C16.0845 33.8946 16.3259 33.9768 16.5654 33.9768L16.5656 32.9768ZM16.5791 32.9746C16.5762 32.9756 16.571 32.9768 16.5646 32.9768L16.5665 33.9768C16.6865 33.9766 16.8067 33.9558 16.9205 33.9145L16.5791 32.9746ZM16.5765 32.9771C16.5807 32.9734 16.5821 32.9735 16.5792 32.9746L16.9205 33.9145C17.0343 33.8732 17.1418 33.8113 17.2352 33.7294L16.5765 32.9771ZM19.3145 30.5941L16.5776 32.9761L17.2341 33.7304L19.971 31.3485L19.3145 30.5941ZM19.2778 30.6816C19.2774 30.6365 19.2981 30.6088 19.308 30.5999L19.9774 31.3427C20.1626 31.1758 20.2804 30.9365 20.2778 30.6716L19.2778 30.6816ZM19.3086 30.7612C19.2994 30.7532 19.2783 30.7266 19.2778 30.6816L20.2778 30.6716C20.2751 30.4069 20.1528 30.1702 19.9651 30.0069L19.3086 30.7612ZM19.2969 30.7614C19.3033 30.7614 19.3083 30.7626 19.3112 30.7636C19.3141 30.7647 19.3127 30.7648 19.3086 30.7612L19.9651 30.0069C19.7795 29.8454 19.5414 29.7632 19.3045 29.7614L19.2969 30.7614ZM19.2838 30.7617C19.28 30.7649 19.2789 30.7646 19.2821 30.7635C19.2853 30.7624 19.2904 30.7613 19.2969 30.7614L19.3044 29.7614C19.0675 29.7596 18.8284 29.8382 18.6404 29.9962L19.2838 30.7617ZM16.8938 32.8419L19.2903 30.7561L18.6338 30.0018L16.2373 32.0876L16.8938 32.8419ZM15.6048 32.2914L16.2373 32.8419L16.8938 32.0876L16.2613 31.5371L15.6048 32.2914ZM15.6017 32.2887C15.6046 32.2898 15.6029 32.2898 15.5983 32.2857L16.2678 31.5428C16.1744 31.4587 16.0665 31.3949 15.9519 31.3521L15.6017 32.2887ZM15.5872 32.2864C15.5938 32.2864 15.5989 32.2877 15.6017 32.2887L15.9519 31.3521C15.8373 31.3092 15.7161 31.2873 15.5948 31.2864L15.5872 32.2864ZM15.5723 32.2886C15.5754 32.2875 15.5807 32.2863 15.5872 32.2864L15.5948 31.2864C15.4735 31.2855 15.352 31.3055 15.2368 31.3466L15.5723 32.2886ZM15.5747 32.2862C15.5705 32.2899 15.5692 32.2897 15.5723 32.2886L15.2368 31.3466C15.1217 31.3876 15.0128 31.4496 14.9182 31.5319L15.5747 32.2862ZM15.5938 32.2594C15.5869 32.2741 15.5791 32.2825 15.5747 32.2862L14.9182 31.5319C14.8235 31.6144 14.7441 31.7163 14.6888 31.834L15.5938 32.2594ZM15.6055 32.204C15.6057 32.2253 15.6009 32.2444 15.5938 32.2594L14.6888 31.834C14.6334 31.9519 14.6042 32.0814 14.6055 32.2139L15.6055 32.204ZM15.5929 32.1493C15.6001 32.1638 15.6053 32.1826 15.6055 32.204L14.6055 32.2139C14.6069 32.3465 14.6386 32.4752 14.6962 32.5919L15.5929 32.1493ZM15.5742 32.1239C15.5782 32.1273 15.5859 32.1352 15.5929 32.1493L14.6962 32.5919C14.7537 32.7083 14.8347 32.8087 14.9307 32.8894L15.5742 32.1239ZM16.5537 32.9771L15.5809 32.1296L14.924 32.8836L15.8968 33.7311L16.5537 32.9771Z" fill="white"/>
</svg>
