<svg width="45" height="45" viewBox="0 0 45 45" fill="none" xmlns="http://www.w3.org/2000/svg">
<path d="M0 6C0 2.68629 2.68629 0 6 0H39C42.3137 0 45 2.68629 45 6V39C45 42.3137 42.3137 45 39 45H6C2.68629 45 0 42.3137 0 39V6Z" fill="#01A9F1"/>
<path fill-rule="evenodd" clip-rule="evenodd" d="M8 23C8 14.7157 14.7157 8 23 8C31.2803 8.00962 37.9904 14.7197 38 23C38 31.2843 31.2843 38 23 38C14.7157 38 8 31.2843 8 23ZM8.96774 23C8.96774 30.7498 15.2502 37.0323 23 37.0323C30.7463 37.0237 37.0237 30.7463 37.0323 23C37.0323 15.2502 30.7498 8.96774 23 8.96774C15.2502 8.96774 8.96774 15.2502 8.96774 23ZM20.5806 27.3964L30.3998 17.5772C30.5873 17.3961 30.8846 17.3961 31.0721 17.5772C31.2644 17.7629 31.2697 18.0691 31.084 18.2614L20.9227 28.4226C20.7338 28.6115 20.4275 28.6115 20.2385 28.4226L14.9159 23.1001C14.7349 22.9125 14.7349 22.6152 14.9159 22.4277C15.1016 22.2355 15.4079 22.2302 15.6001 22.4159L20.5806 27.3964Z" fill="white"/>
<path d="M23 8L23.0009 7.25H23V8ZM38 23L38.75 23L38.75 22.9991L38 23ZM23 37.0323L23 37.7823L23.0008 37.7823L23 37.0323ZM37.0323 23L37.7823 23.0008V23H37.0323ZM30.3998 17.5772L29.8787 17.0376L29.8695 17.0468L30.3998 17.5772ZM20.5806 27.3964L20.0503 27.9267L20.5806 28.457L21.1109 27.9267L20.5806 27.3964ZM31.0721 17.5772L31.5932 17.0377L31.5931 17.0376L31.0721 17.5772ZM31.084 18.2614L31.6144 18.7918L31.6234 18.7824L31.084 18.2614ZM20.9227 28.4226L21.453 28.9531L21.453 28.953L20.9227 28.4226ZM20.2385 28.4226L19.7082 28.953L19.7083 28.9531L20.2385 28.4226ZM14.9159 23.1001L14.3763 23.6211L14.3856 23.6304L14.9159 23.1001ZM14.9159 22.4277L14.3765 21.9066L14.3765 21.9067L14.9159 22.4277ZM15.6001 22.4159L16.1305 21.8855L16.1212 21.8765L15.6001 22.4159ZM23 7.25C14.3015 7.25 7.25 14.3015 7.25 23H8.75C8.75 15.1299 15.1299 8.75 23 8.75V7.25ZM38.75 22.9991C38.7399 14.3053 31.6947 7.2601 23.0009 7.25L22.9991 8.75C30.8659 8.75914 37.2409 15.1341 37.25 23.0009L38.75 22.9991ZM23 38.75C31.6985 38.75 38.75 31.6985 38.75 23H37.25C37.25 30.8701 30.8701 37.25 23 37.25V38.75ZM7.25 23C7.25 31.6985 14.3015 38.75 23 38.75V37.25C15.1299 37.25 8.75 30.8701 8.75 23H7.25ZM23 36.2823C15.6644 36.2823 9.71774 30.3356 9.71774 23H8.21774C8.21774 31.164 14.836 37.7823 23 37.7823V36.2823ZM36.2823 22.9992C36.2742 30.3319 30.3319 36.2742 22.9992 36.2823L23.0008 37.7823C31.1607 37.7733 37.7733 31.1607 37.7823 23.0008L36.2823 22.9992ZM23 9.71774C30.3356 9.71774 36.2823 15.6644 36.2823 23H37.7823C37.7823 14.836 31.164 8.21774 23 8.21774V9.71774ZM9.71774 23C9.71774 15.6644 15.6644 9.71774 23 9.71774V8.21774C14.836 8.21774 8.21774 14.836 8.21774 23H9.71774ZM29.8695 17.0468L20.0503 26.866L21.1109 27.9267L30.9301 18.1075L29.8695 17.0468ZM31.5931 17.0376C31.115 16.576 30.357 16.5759 29.8788 17.0377L30.9208 18.1166C30.8176 18.2163 30.6542 18.2162 30.5512 18.1167L31.5931 17.0376ZM31.6234 18.7824C32.097 18.2923 32.0833 17.5112 31.5932 17.0377L30.5511 18.1166C30.4454 18.0145 30.4424 17.846 30.5446 17.7403L31.6234 18.7824ZM21.453 28.953L31.6143 18.7917L30.5537 17.731L20.3924 27.8923L21.453 28.953ZM19.7083 28.9531C20.1901 29.4347 20.9711 29.4347 21.453 28.9531L20.3925 27.8922C20.4964 27.7883 20.6648 27.7883 20.7688 27.8922L19.7083 28.9531ZM14.3856 23.6304L19.7082 28.953L20.7689 27.8923L15.4463 22.5697L14.3856 23.6304ZM14.3765 21.9067C13.9146 22.3849 13.9148 23.1429 14.3764 23.621L15.4555 22.5791C15.555 22.6821 15.5551 22.8456 15.4554 22.9488L14.3765 21.9067ZM16.1212 21.8765C15.631 21.4029 14.8499 21.4166 14.3765 21.9066L15.4554 22.9488C15.3533 23.0544 15.1848 23.0574 15.0791 22.9553L16.1212 21.8765ZM21.1109 26.866L16.1305 21.8855L15.0698 22.9462L20.0503 27.9267L21.1109 26.866Z" fill="white"/>
</svg>
