<svg width="45" height="45" viewBox="0 0 45 45" fill="none" xmlns="http://www.w3.org/2000/svg">
<path d="M0 6C0 2.68629 2.68629 0 6 0H39C42.3137 0 45 2.68629 45 6V39C45 42.3137 42.3137 45 39 45H6C2.68629 45 0 42.3137 0 39V6Z" fill="#01A9F1"/>
<path fill-rule="evenodd" clip-rule="evenodd" d="M30.1131 14.7318C29.7155 10.3044 26.6046 7.11511 22.6391 7.11511C18.6912 7.11511 15.5791 10.2901 15.1646 14.6969C15.0632 14.7493 14.962 14.8027 14.8611 14.8573C14.6412 14.9763 14.4702 15.1577 14.3743 15.3736C14.2783 15.5896 14.2628 15.8282 14.33 16.0529C14.3973 16.2777 14.5436 16.4762 14.7465 16.618C14.9045 16.7284 15.0902 16.7997 15.2854 16.8263L15.3108 16.976C15.0326 17.1516 14.7956 17.3773 14.6149 17.6401C14.383 17.9774 14.2522 18.3642 14.2353 18.7619C14.2292 19.3296 14.4489 19.8801 14.8539 20.3117C15.1958 20.676 15.6503 20.9347 16.1546 21.0564C16.4627 22.8469 17.7197 24.1773 19.0328 25.106L18.9032 26.165C18.3046 26.1683 17.7069 26.2096 17.1144 26.2888C17.0945 26.2916 17.075 26.2956 17.0559 26.3006L15.6956 26.5569C12.2163 27.194 9.59293 30.2635 9.59293 33.6961V36.585C9.59293 36.695 9.64094 36.8006 9.72642 36.8785C9.81189 36.9563 9.92781 37 10.0487 37H15.1591L15.1633 37L15.1674 37H30.1117L30.1159 37L30.12 37H35.23C35.3501 37 35.4653 36.9569 35.5506 36.8799C35.636 36.803 35.6845 36.6985 35.6857 36.5891V33.7002C35.6857 30.2801 33.0464 27.2173 29.5371 26.5739L28.1883 26.3548C28.1652 26.348 28.1415 26.3429 28.1174 26.3395C27.5424 26.2472 26.9612 26.1923 26.378 26.1749L26.246 25.1025C27.5568 24.175 28.81 22.8495 29.1221 21.0688C30.2849 20.8262 31.0429 19.7416 31.0429 18.762C31.0276 18.3806 30.9072 18.0088 30.6928 17.6809C30.5096 17.4008 30.2629 17.1603 29.9699 16.9752C29.9786 16.9236 29.9874 16.8716 29.9963 16.8193C30.1698 16.7888 30.3344 16.7222 30.4765 16.6234C30.6808 16.4813 30.827 16.281 30.8916 16.0544C30.9606 15.8257 30.9435 15.5826 30.8431 15.3638C30.7426 15.145 30.5646 14.9632 30.3374 14.8474C30.2627 14.8083 30.188 14.7698 30.1131 14.7318ZM29.6259 16.0079H29.7649C29.8206 16.0111 29.8757 15.9961 29.9203 15.9657C29.965 15.9353 29.9963 15.8914 30.0087 15.8419C30.0254 15.7899 30.0218 15.7343 29.9985 15.6846C29.9753 15.6348 29.9338 15.5938 29.8811 15.5688C29.7588 15.5025 29.6355 15.4379 29.5114 15.3751C29.473 15.3616 29.4367 15.3434 29.4034 15.3209C27.3022 14.2779 24.9496 13.7186 22.5511 13.6956C20.2128 13.7107 17.9191 14.2567 15.8761 15.2802C15.8424 15.3032 15.8057 15.3217 15.767 15.3354C15.6183 15.4115 15.4709 15.4901 15.325 15.5713C15.2747 15.5962 15.2355 15.6363 15.2141 15.6847C15.1928 15.7331 15.1906 15.7868 15.2079 15.8365C15.2206 15.8867 15.2521 15.9313 15.297 15.9626C15.342 15.9939 15.3975 16.0099 15.454 16.0079H15.548C15.5658 16.0032 15.584 15.9996 15.6023 15.9969C15.6626 15.9881 15.7243 15.9905 15.7836 16.0038L15.8002 16.0079H29.5809C29.5958 16.0072 29.6109 16.0072 29.6259 16.0079ZM29.071 16.838H28.2186C28.2244 16.8576 28.2302 16.877 28.2359 16.8963C28.4232 17.4357 28.5579 17.9892 28.6383 18.5503C28.651 18.5551 28.6647 18.5576 28.6784 18.5574H28.7303C28.7336 18.5573 28.737 18.5573 28.7404 18.5573C28.745 18.5573 28.7497 18.5573 28.7543 18.5575C28.7615 18.5572 28.7686 18.5559 28.7753 18.5536C28.7843 18.5505 28.7924 18.5457 28.7992 18.5395C28.7992 18.5395 28.9173 17.7512 29.071 16.838ZM28.2846 19.3226C28.1935 19.2876 28.1084 19.2391 28.0331 19.1783C27.8556 19.0351 27.746 18.8349 27.7272 18.6196C27.7263 18.6041 27.7263 18.5886 27.7272 18.5731C27.6367 18.0796 27.5125 17.5916 27.3553 17.1121C27.3237 17.0215 27.2951 16.9301 27.2695 16.838H18.0105C17.9846 16.9309 17.9557 17.0231 17.9238 17.1145C17.7668 17.594 17.643 18.0819 17.5533 18.5756V18.6171C17.5349 18.8327 17.4255 19.0335 17.2479 19.1772C17.1721 19.2386 17.0863 19.2875 16.9945 19.3227V20.2101C16.9945 22.554 18.9196 24.1329 20.5353 25.0448C21.1657 25.4027 21.8937 25.5924 22.6366 25.5924C23.3795 25.5924 24.1075 25.4027 24.7379 25.0448C26.3568 24.1316 28.2846 22.5506 28.2846 20.2088V19.3226ZM29.1961 19.2941C29.2599 19.2645 29.3202 19.2281 29.3756 19.1855C29.5509 19.0508 29.6662 18.8624 29.6998 18.6557C29.6998 18.6556 29.7014 18.6454 29.7044 18.626C29.7169 18.5444 29.7543 18.3012 29.8073 17.9683C29.8419 18.0094 29.874 18.0524 29.9037 18.0969C30.0377 18.2982 30.116 18.5262 30.1318 18.7611C30.1363 19.1281 29.9953 19.4842 29.7348 19.7641C29.5848 19.9252 29.4011 20.0549 29.1961 20.1467V19.2941ZM30.5716 32.4932V36.172H34.7742V33.6982C34.7742 30.6653 32.4498 27.9524 29.3671 27.3891L28.2304 27.2048L25.195 30.6259C25.1523 30.674 25.0984 30.7128 25.0371 30.7394C24.9758 30.7661 24.9088 30.7799 24.8409 30.7799C24.7551 30.7798 24.671 30.7577 24.5984 30.716L22.6391 29.5908L20.6802 30.716C20.6076 30.7576 20.5236 30.7798 20.4378 30.7799C20.3698 30.7799 20.3027 30.7661 20.2413 30.7395C20.18 30.7128 20.1259 30.674 20.0832 30.6259L17.0057 27.159L15.8779 27.3717C12.8138 27.9337 10.5044 30.6532 10.5044 33.6982V36.172H14.7075V32.4932C14.7075 32.3832 14.7555 32.2776 14.841 32.1997C14.9265 32.1219 15.0424 32.0782 15.1633 32.0782C15.2841 32.0782 15.4001 32.1219 15.4855 32.1997C15.571 32.2776 15.619 32.3832 15.619 32.4932V36.172H29.6601V32.4932C29.6601 32.3832 29.7081 32.2776 29.7936 32.1997C29.8791 32.1219 29.995 32.0782 30.1159 32.0782C30.2367 32.0782 30.3527 32.1219 30.4381 32.1997C30.5236 32.2776 30.5716 32.3832 30.5716 32.4932ZM16.1399 14.2309C17.0699 13.8217 18.0171 13.5042 18.9748 13.2783C19.2283 11.0836 19.8228 9.34732 20.6336 8.28447C18.3072 9.10227 16.5775 11.3312 16.1399 14.2309ZM19.9172 13.0861C21.7184 12.7759 23.5492 12.7856 25.3671 13.1153C24.9311 9.75433 23.6587 7.94611 22.6396 7.94611C21.6238 7.94611 20.3572 9.74365 19.9172 13.0861ZM26.308 13.3148C27.2602 13.5461 28.2068 13.8658 29.1418 14.2738C28.7161 11.3529 26.9854 9.10607 24.6466 8.28437C25.4624 9.35319 26.0589 11.103 26.308 13.3148ZM16.2093 16.838C16.3636 17.7525 16.4831 18.5423 16.4831 18.5423C16.4961 18.5519 16.5122 18.5572 16.5288 18.5574L16.5387 18.5573L16.5443 18.5573H16.6012C16.6152 18.5576 16.6292 18.5552 16.6422 18.5502C16.7226 17.9905 16.857 17.4382 17.0437 16.8999L17.062 16.838H16.2093ZM22.6384 28.5612L23.7069 27.7533L25.4885 26.402L25.3959 25.6493C25.337 25.6838 25.2783 25.7175 25.2201 25.7504C24.4445 26.1909 23.5486 26.4239 22.6345 26.4228C21.7213 26.4245 20.8261 26.1912 20.0522 25.7496C19.9964 25.7181 19.9403 25.6858 19.8839 25.6529L19.7922 26.4097L22.3955 28.3781L22.6384 28.5612ZM19.1309 26.9948L21.8619 29.053L20.5353 29.8153L18.0596 27.0248C18.4018 27.0028 18.7589 26.9929 19.1309 26.9948ZM15.9021 19.1827C15.9579 19.2259 16.0187 19.2628 16.083 19.2928V20.147C15.8732 20.0512 15.6859 19.9161 15.5345 19.7487C15.2832 19.471 15.1464 19.1219 15.1478 18.7619C15.164 18.5174 15.248 18.2805 15.3921 18.0736C15.4174 18.0372 15.4444 18.002 15.473 17.968C15.5379 18.3764 15.5789 18.6482 15.5789 18.6482C15.6113 18.8563 15.7263 19.0465 15.9021 19.1827ZM23.4139 29.0541L24.742 29.817L27.1885 27.0597C26.8386 27.0205 26.4865 26.9999 26.1339 26.9978L23.4139 29.0541ZM22.64 31.8504C22.5191 31.8504 22.4032 31.8066 22.3177 31.7288C22.2323 31.6509 22.1843 31.5454 22.1843 31.4353V31.2817C22.1843 31.1716 22.2323 31.0661 22.3177 30.9882C22.4032 30.9104 22.5191 30.8666 22.64 30.8666C22.7609 30.8666 22.8768 30.9104 22.9623 30.9882C23.0478 31.0661 23.0958 31.1716 23.0958 31.2817V31.4353C23.0958 31.5454 23.0478 31.6509 22.9623 31.7288C22.8768 31.8066 22.7609 31.8504 22.64 31.8504ZM22.3177 33.5318C22.4032 33.6096 22.5191 33.6534 22.64 33.6534C22.7609 33.6534 22.8768 33.6096 22.9623 33.5318C23.0478 33.454 23.0958 33.3484 23.0958 33.2383V33.0847C23.0958 32.9747 23.0478 32.8691 22.9623 32.7912C22.8768 32.7134 22.7609 32.6697 22.64 32.6697C22.5191 32.6697 22.4032 32.7134 22.3177 32.7912C22.2323 32.8691 22.1843 32.9747 22.1843 33.0847V33.2383C22.1843 33.3484 22.2323 33.454 22.3177 33.5318ZM22.64 35.4565C22.5191 35.4565 22.4032 35.4128 22.3177 35.3349C22.2323 35.2571 22.1843 35.1515 22.1843 35.0414V34.8879C22.1843 34.7778 22.2323 34.6722 22.3177 34.5944C22.4032 34.5165 22.5191 34.4728 22.64 34.4728C22.7609 34.4728 22.8768 34.5165 22.9623 34.5944C23.0478 34.6722 23.0958 34.7778 23.0958 34.8879V35.0414C23.0958 35.1515 23.0478 35.2571 22.9623 35.3349C22.8768 35.4128 22.7609 35.4565 22.64 35.4565Z" fill="white"/>
<path d="M30.1131 14.7318L29.5155 14.7855L29.5453 15.1166L29.8418 15.267L30.1131 14.7318ZM15.1646 14.6969L15.4398 15.23L15.7312 15.0796L15.7619 14.7531L15.1646 14.6969ZM14.8611 14.8573L14.5755 14.3296L14.5755 14.3296L14.8611 14.8573ZM14.3743 15.3736L14.9226 15.6172L14.9226 15.6172L14.3743 15.3736ZM14.33 16.0529L13.7552 16.2249L13.7552 16.2249L14.33 16.0529ZM14.7465 16.618L14.4028 17.1098L14.4028 17.1098L14.7465 16.618ZM15.2854 16.8263L15.877 16.7261L15.8034 16.2913L15.3664 16.2318L15.2854 16.8263ZM15.3108 16.976L15.6311 17.4833L15.9691 17.2699L15.9023 16.8758L15.3108 16.976ZM14.6149 17.6401L14.1204 17.3002L14.1204 17.3002L14.6149 17.6401ZM14.2353 18.7619L13.6359 18.7365L13.6355 18.746L13.6354 18.7554L14.2353 18.7619ZM14.8539 20.3117L14.4164 20.7222L14.4164 20.7222L14.8539 20.3117ZM16.1546 21.0564L16.7459 20.9546L16.6789 20.5657L16.2953 20.4731L16.1546 21.0564ZM19.0328 25.106L19.6284 25.1789L19.6719 24.8231L19.3793 24.6161L19.0328 25.106ZM18.9032 26.165L18.9064 26.765L19.4346 26.7621L19.4987 26.2379L18.9032 26.165ZM17.1144 26.2888L17.0349 25.6941L17.0313 25.6946L17.1144 26.2888ZM17.0559 26.3006L17.1669 26.8903L17.1886 26.8862L17.21 26.8805L17.0559 26.3006ZM15.6956 26.5569L15.8037 27.1471L15.8066 27.1465L15.6956 26.5569ZM9.72642 36.8785L9.32242 37.3221L9.72642 36.8785ZM15.1591 37L15.1616 36.4H15.1591V37ZM15.1633 37L15.1608 37.6001L15.1657 37.6L15.1633 37ZM15.1674 37L15.1674 36.4L15.1649 36.4L15.1674 37ZM30.1117 37L30.1142 36.4H30.1117V37ZM30.1159 37L30.1134 37.6001L30.1184 37.6L30.1159 37ZM30.12 37L30.12 36.4L30.1175 36.4L30.12 37ZM35.23 37L35.23 36.4H35.23V37ZM35.5506 36.8799L35.1489 36.4343L35.1489 36.4343L35.5506 36.8799ZM35.6857 36.5891L36.2857 36.5957V36.5891H35.6857ZM29.5371 26.5739L29.6453 25.9836L29.6333 25.9817L29.5371 26.5739ZM28.1883 26.3548L28.0189 26.9304L28.055 26.941L28.0921 26.9471L28.1883 26.3548ZM28.1174 26.3395L28.0223 26.9321L28.0343 26.9337L28.1174 26.3395ZM26.378 26.1749L25.7825 26.2482L25.8454 26.7593L26.3602 26.7746L26.378 26.1749ZM26.246 25.1025L25.8994 24.6127L25.6067 24.8198L25.6505 25.1758L26.246 25.1025ZM29.1221 21.0688L28.9996 20.4814L28.6014 20.5645L28.5311 20.9652L29.1221 21.0688ZM31.0429 18.762H31.6429V18.7499L31.6424 18.7379L31.0429 18.762ZM30.6928 17.6809L30.1906 18.0092L30.1906 18.0093L30.6928 17.6809ZM29.9699 16.9752L29.3782 16.8755L29.3119 17.2693L29.6495 17.4825L29.9699 16.9752ZM29.9963 16.8193L29.8927 16.2283L29.4759 16.3014L29.4048 16.7185L29.9963 16.8193ZM30.4765 16.6234L30.134 16.1307L30.134 16.1307L30.4765 16.6234ZM30.8916 16.0544L30.3171 15.881L30.3146 15.8899L30.8916 16.0544ZM30.8431 15.3638L30.2978 15.6142L30.2978 15.6142L30.8431 15.3638ZM30.3374 14.8474L30.059 15.3789L30.0648 15.3819L30.3374 14.8474ZM29.6259 16.0079L29.5989 16.6073L29.6124 16.6079H29.6259V16.0079ZM29.7649 16.0079L29.7988 15.4089L29.7819 15.4079H29.7649V16.0079ZM29.9203 15.9657L30.258 16.4616L30.258 16.4616L29.9203 15.9657ZM30.0087 15.8419L29.4374 15.6586L29.4315 15.677L29.4268 15.6958L30.0087 15.8419ZM29.8811 15.5688L29.5953 16.0963L29.6091 16.1038L29.6232 16.1105L29.8811 15.5688ZM29.5114 15.3751L29.7824 14.8398L29.7472 14.8219L29.71 14.8089L29.5114 15.3751ZM29.4034 15.3209L29.7396 14.824L29.7063 14.8014L29.6702 14.7835L29.4034 15.3209ZM22.5511 13.6956L22.5569 13.0955L22.5473 13.0956L22.5511 13.6956ZM15.8761 15.2802L15.6073 14.7437L15.5709 14.762L15.5372 14.7851L15.8761 15.2802ZM15.767 15.3354L15.567 14.7697L15.5293 14.7831L15.4937 14.8013L15.767 15.3354ZM15.325 15.5713L15.5915 16.1089L15.6042 16.1025L15.6167 16.0956L15.325 15.5713ZM15.2141 15.6847L14.6653 15.4423L14.6653 15.4423L15.2141 15.6847ZM15.2079 15.8365L15.7896 15.6894L15.7831 15.6638L15.7744 15.6389L15.2079 15.8365ZM15.297 15.9626L14.9541 16.4549L14.9541 16.4549L15.297 15.9626ZM15.454 16.0079V15.4079H15.4435L15.4329 15.4083L15.454 16.0079ZM15.548 16.0079V16.6079H15.6254L15.7002 16.5883L15.548 16.0079ZM15.6023 15.9969L15.6886 16.5907L15.6886 16.5907L15.6023 15.9969ZM15.7836 16.0038L15.9256 15.4208L15.9154 15.4185L15.7836 16.0038ZM15.8002 16.0079L15.6582 16.5909L15.7282 16.6079H15.8002V16.0079ZM29.5809 16.0079V16.6079H29.5944L29.6079 16.6073L29.5809 16.0079ZM28.2186 16.838V16.238H27.4148L27.6434 17.0087L28.2186 16.838ZM29.071 16.838L29.6627 16.9376L29.7804 16.238H29.071V16.838ZM28.2359 16.8963L27.6608 17.0672L27.6646 17.0803L27.6691 17.0931L28.2359 16.8963ZM28.6383 18.5503L28.0444 18.6355L28.0945 18.985L28.4244 19.1109L28.6383 18.5503ZM28.6784 18.5574L28.6784 17.9573L28.6701 17.9574L28.6784 18.5574ZM28.7303 18.5574L28.7303 19.1575L28.7423 19.1572L28.7303 18.5574ZM28.7543 18.5575L28.7377 19.1572L28.7565 19.1577L28.7753 19.1571L28.7543 18.5575ZM28.7753 18.5536L28.9703 19.121L28.9703 19.121L28.7753 18.5536ZM28.7992 18.5395L29.2043 18.9821L29.3611 18.8386L29.3926 18.6284L28.7992 18.5395ZM28.2846 19.3226H28.8846V18.9103L28.4998 18.7625L28.2846 19.3226ZM28.0331 19.1783L27.6563 19.6452L27.6563 19.6452L28.0331 19.1783ZM27.7272 18.6196L27.1283 18.6548L27.1288 18.6633L27.1295 18.6718L27.7272 18.6196ZM27.7272 18.5731L28.3262 18.6083L28.3305 18.5361L28.3174 18.4649L27.7272 18.5731ZM27.3553 17.1121L27.9256 16.9252L27.9219 16.9144L27.3553 17.1121ZM27.2695 16.838L27.8475 16.6772L27.7253 16.238H27.2695V16.838ZM18.0105 16.838V16.238H17.5546L17.4324 16.6773L18.0105 16.838ZM17.9238 17.1145L17.3573 16.9166L17.3536 16.9278L17.9238 17.1145ZM17.5533 18.5756L16.9629 18.4682L16.9533 18.5214V18.5756H17.5533ZM17.5533 18.6171L18.1511 18.6679L18.1533 18.6425V18.6171H17.5533ZM17.2479 19.1772L17.6253 19.6436L17.6253 19.6436L17.2479 19.1772ZM16.9945 19.3227L16.7797 18.7624L16.3945 18.9101V19.3227H16.9945ZM20.5353 25.0448L20.8315 24.523L20.8302 24.5223L20.5353 25.0448ZM24.7379 25.0448L24.4431 24.5222L24.4417 24.523L24.7379 25.0448ZM29.3756 19.1855L29.01 18.7098L29.01 18.7098L29.3756 19.1855ZM29.1961 19.2941L28.9434 18.7499L28.5961 18.9112V19.2941H29.1961ZM29.6998 18.6557L29.1356 18.4514L29.1166 18.5041L29.1076 18.5595L29.6998 18.6557ZM29.7044 18.626L29.1113 18.5349L29.1113 18.5349L29.7044 18.626ZM29.8073 17.9683L30.267 17.5827L29.4217 16.5749L29.2148 17.8739L29.8073 17.9683ZM29.9037 18.0969L30.4031 17.7644L30.4031 17.7644L29.9037 18.0969ZM30.1318 18.7611L30.7318 18.7539L30.7316 18.7373L30.7305 18.7208L30.1318 18.7611ZM29.7348 19.7641L29.2956 19.3553L29.2956 19.3554L29.7348 19.7641ZM29.1961 20.1467H28.5961V21.0728L29.4414 20.6943L29.1961 20.1467ZM30.5716 36.172H29.9716V36.772H30.5716V36.172ZM34.7742 36.172V36.772H35.3742V36.172H34.7742ZM29.3671 27.3891L29.4749 26.7988L29.4631 26.7969L29.3671 27.3891ZM28.2304 27.2048L28.3264 26.6126L28.0007 26.5597L27.7816 26.8066L28.2304 27.2048ZM25.195 30.6259L25.6436 31.0245L25.6438 31.0241L25.195 30.6259ZM24.8409 30.7799L24.8403 31.3799L24.8411 31.3799L24.8409 30.7799ZM24.5984 30.716L24.2996 31.2363L24.2997 31.2364L24.5984 30.716ZM22.6391 29.5908L22.9379 29.0705L22.6391 28.8989L22.3402 29.0705L22.6391 29.5908ZM20.6802 30.716L20.9789 31.2363L20.9791 31.2362L20.6802 30.716ZM20.4378 30.7799L20.4381 31.3799L20.4384 31.3799L20.4378 30.7799ZM20.2413 30.7395L20.0023 31.2898L20.0023 31.2898L20.2413 30.7395ZM20.0832 30.6259L19.6345 31.0242L19.6346 31.0244L20.0832 30.6259ZM17.0057 27.159L17.4544 26.7607L17.2286 26.5063L16.8945 26.5694L17.0057 27.159ZM15.8779 27.3717L15.9861 27.9618L15.9891 27.9613L15.8779 27.3717ZM10.5044 36.172H9.90445V36.772H10.5044V36.172ZM14.7075 36.172V36.772H15.3075V36.172H14.7075ZM14.841 32.1997L15.245 32.6433L15.245 32.6433L14.841 32.1997ZM15.4855 32.1997L15.0815 32.6433L15.0815 32.6433L15.4855 32.1997ZM15.619 36.172H15.019V36.772H15.619V36.172ZM29.6601 36.172V36.772H30.2601V36.172H29.6601ZM29.7936 32.1997L30.1976 32.6433L30.1976 32.6433L29.7936 32.1997ZM30.4381 32.1997L30.0341 32.6433L30.0341 32.6433L30.4381 32.1997ZM18.9748 13.2783L19.1125 13.8622L19.5225 13.7655L19.5708 13.3471L18.9748 13.2783ZM16.1399 14.2309L15.5466 14.1413L15.384 15.2189L16.3815 14.7801L16.1399 14.2309ZM20.6336 8.28447L21.1106 8.64839L22.3277 7.05293L20.4346 7.71843L20.6336 8.28447ZM25.3671 13.1153L25.2601 13.7056L26.0678 13.8521L25.9622 13.0381L25.3671 13.1153ZM19.9172 13.0861L19.3223 13.0078L19.216 13.8157L20.019 13.6774L19.9172 13.0861ZM29.1418 14.2738L28.9018 14.8237L29.8912 15.2555L29.7355 14.1873L29.1418 14.2738ZM26.308 13.3148L25.7117 13.3819L25.7587 13.7988L26.1663 13.8978L26.308 13.3148ZM24.6466 8.28437L24.8454 7.71829L22.9519 7.05305L24.1696 8.64841L24.6466 8.28437ZM16.4831 18.5423L15.8899 18.6321L15.9271 18.8782L16.1277 19.0257L16.4831 18.5423ZM16.2093 16.838V16.238H15.4995L15.6177 16.9379L16.2093 16.838ZM16.5288 18.5574L16.5215 19.1575L16.5348 19.1573L16.5288 18.5574ZM16.5387 18.5573L16.542 17.9572L16.5328 17.9573L16.5387 18.5573ZM16.5443 18.5573L16.541 19.1573H16.5443V18.5573ZM16.6012 18.5573L16.6127 17.9573H16.6012V18.5573ZM16.6422 18.5502L16.8549 19.1113L17.1858 18.9858L17.2361 18.6355L16.6422 18.5502ZM17.0437 16.8999L17.6106 17.0966L17.6152 17.0833L17.6192 17.0698L17.0437 16.8999ZM17.062 16.838L17.6374 17.008L17.8648 16.238H17.062V16.838ZM23.7069 27.7533L24.0688 28.2318L24.0695 28.2313L23.7069 27.7533ZM22.6384 28.5612L22.2773 29.0404L22.639 29.313L23.0003 29.0398L22.6384 28.5612ZM25.4885 26.402L25.8511 26.8801L26.1262 26.6714L26.084 26.3287L25.4885 26.402ZM25.3959 25.6493L25.9914 25.576L25.8799 24.6706L25.0927 25.1316L25.3959 25.6493ZM25.2201 25.7504L24.9251 25.2279L24.9237 25.2287L25.2201 25.7504ZM22.6345 26.4228L22.6353 25.8228L22.6334 25.8228L22.6345 26.4228ZM20.0522 25.7496L20.3496 25.2284L20.3472 25.2271L20.0522 25.7496ZM19.8839 25.6529L20.1867 25.1349L19.398 24.6738L19.2882 25.5807L19.8839 25.6529ZM19.7922 26.4097L19.1966 26.3376L19.1551 26.6802L19.4304 26.8883L19.7922 26.4097ZM22.3955 28.3781L22.0336 28.8567L22.0344 28.8573L22.3955 28.3781ZM21.8619 29.053L22.1608 29.5732L22.9485 29.1206L22.223 28.5738L21.8619 29.053ZM19.1309 26.9948L19.492 26.5157L19.3331 26.3959L19.1341 26.3948L19.1309 26.9948ZM20.5353 29.8153L20.0865 30.2135L20.4107 30.5789L20.8342 30.3355L20.5353 29.8153ZM18.0596 27.0248L18.0212 26.426L16.7959 26.5045L17.6108 27.4229L18.0596 27.0248ZM16.083 19.2928H16.683V18.9108L16.3369 18.7492L16.083 19.2928ZM15.9021 19.1827L15.5347 19.657L15.5347 19.657L15.9021 19.1827ZM16.083 20.147L15.8338 20.6928L16.683 21.0804V20.147H16.083ZM15.5345 19.7487L15.9794 19.3462L15.9794 19.3462L15.5345 19.7487ZM15.1478 18.7619L14.5491 18.7222L14.5478 18.7409L14.5478 18.7596L15.1478 18.7619ZM15.3921 18.0736L14.8996 17.7308L14.8996 17.7308L15.3921 18.0736ZM15.473 17.968L16.0655 17.8738L15.8594 16.5768L15.0139 17.5817L15.473 17.968ZM15.5789 18.6482L14.9856 18.7377L14.986 18.7404L15.5789 18.6482ZM24.742 29.817L24.4431 30.3372L24.8666 30.5805L25.1908 30.2152L24.742 29.817ZM23.4139 29.0541L23.0521 28.5755L22.3284 29.1225L23.115 29.5743L23.4139 29.0541ZM27.1885 27.0597L27.6373 27.4579L28.4055 26.5921L27.2552 26.4634L27.1885 27.0597ZM26.1339 26.9978L26.1374 26.3978L25.9342 26.3967L25.7721 26.5192L26.1339 26.9978ZM22.3177 31.7288L22.7217 31.2852L22.7217 31.2852L22.3177 31.7288ZM22.9623 31.7288L22.5583 31.2852L22.5583 31.2852L22.9623 31.7288ZM22.3177 33.5318L22.7217 33.0882L22.7217 33.0882L22.3177 33.5318ZM22.9623 33.5318L22.5583 33.0882L22.5583 33.0882L22.9623 33.5318ZM22.3177 35.3349L22.7218 34.8913L22.7217 34.8913L22.3177 35.3349ZM22.3177 34.5944L21.9137 34.1507L21.9137 34.1508L22.3177 34.5944ZM22.9623 34.5944L23.3663 34.1508L23.3663 34.1507L22.9623 34.5944ZM22.9623 35.3349L22.5583 34.8913L22.5583 34.8913L22.9623 35.3349ZM22.6391 7.71511C26.2361 7.71511 29.1401 10.6061 29.5155 14.7855L30.7107 14.6781C30.2908 10.0027 26.9731 6.51511 22.6391 6.51511V7.71511ZM15.7619 14.7531C16.1532 10.5937 19.0583 7.71511 22.6391 7.71511V6.51511C18.3241 6.51511 15.005 9.98651 14.5672 14.6407L15.7619 14.7531ZM15.1466 15.3851C15.2441 15.3323 15.3419 15.2806 15.4398 15.23L14.8893 14.1638C14.7844 14.2179 14.6799 14.2732 14.5755 14.3296L15.1466 15.3851ZM14.9226 15.6172C14.9615 15.5297 15.036 15.4449 15.1466 15.385L14.5755 14.3296C14.2463 14.5078 13.9789 14.7856 13.8259 15.1301L14.9226 15.6172ZM14.9049 15.881C14.879 15.7945 14.8844 15.7033 14.9226 15.6172L13.8259 15.1301C13.6723 15.4759 13.6466 15.8618 13.7552 16.2249L14.9049 15.881ZM15.0902 16.1262C14.9916 16.0573 14.9311 15.9686 14.9049 15.881L13.7552 16.2249C13.8635 16.5868 14.0956 16.8951 14.4028 17.1098L15.0902 16.1262ZM15.3664 16.2318C15.2621 16.2176 15.1672 16.18 15.0902 16.1262L14.4028 17.1098C14.6419 17.2769 14.9182 17.3819 15.2044 17.4208L15.3664 16.2318ZM15.9023 16.8758L15.877 16.7261L14.6938 16.9265L14.7192 17.0762L15.9023 16.8758ZM15.1094 17.9799C15.242 17.7869 15.4188 17.6173 15.6311 17.4833L14.9905 16.4686C14.6463 16.6858 14.3491 16.9676 14.1204 17.3002L15.1094 17.9799ZM14.8348 18.7873C14.8467 18.5055 14.9394 18.2272 15.1094 17.9799L14.1204 17.3002C13.8266 17.7277 13.6576 18.2229 13.6359 18.7365L14.8348 18.7873ZM15.2915 19.9011C14.9874 19.5771 14.8309 19.1742 14.8353 18.7684L13.6354 18.7554C13.6275 19.485 13.9105 20.1831 14.4164 20.7222L15.2915 19.9011ZM16.2953 20.4731C15.8984 20.3774 15.5491 20.1756 15.2915 19.9011L14.4164 20.7222C14.8426 21.1763 15.4021 21.4921 16.0139 21.6397L16.2953 20.4731ZM19.3793 24.6161C18.1234 23.728 17.015 22.5184 16.7459 20.9546L15.5633 21.1582C15.9104 23.1753 17.316 24.6267 18.6864 25.5959L19.3793 24.6161ZM19.4987 26.2379L19.6284 25.1789L18.4373 25.0331L18.3076 26.0921L19.4987 26.2379ZM17.1939 26.8836C17.7611 26.8077 18.3333 26.7681 18.9064 26.765L18.8999 25.565C18.2759 25.5684 17.6527 25.6115 17.0349 25.6941L17.1939 26.8836ZM17.21 26.8805C17.2057 26.8817 17.2015 26.8825 17.1974 26.8831L17.0313 25.6946C16.9876 25.7007 16.9443 25.7095 16.9018 25.7208L17.21 26.8805ZM15.8066 27.1465L17.1669 26.8903L16.9448 25.711L15.5845 25.9673L15.8066 27.1465ZM10.1929 33.6961C10.1929 30.566 12.5965 27.7344 15.8036 27.1471L15.5875 25.9667C11.8361 26.6537 8.99293 29.9609 8.99293 33.6961H10.1929ZM10.1929 36.585V33.6961H8.99293V36.585H10.1929ZM10.1304 36.4349C10.1627 36.4643 10.1929 36.5168 10.1929 36.585H8.99293C8.99293 36.8732 9.11918 37.137 9.32242 37.3221L10.1304 36.4349ZM10.0487 36.4C10.0698 36.4 10.1 36.4071 10.1304 36.4349L9.32242 37.3221C9.52379 37.5055 9.78585 37.6 10.0487 37.6V36.4ZM15.1591 36.4H10.0487V37.6H15.1591V36.4ZM15.1657 36.4001L15.1616 36.4L15.1566 37.6L15.1608 37.6L15.1657 36.4001ZM15.1649 36.4L15.1608 36.4001L15.1657 37.6L15.1699 37.6L15.1649 36.4ZM30.1117 36.4H15.1674V37.6H30.1117V36.4ZM30.1184 36.4001L30.1142 36.4L30.1092 37.6L30.1134 37.6L30.1184 36.4001ZM30.1175 36.4L30.1134 36.4001L30.1184 37.6L30.1225 37.6L30.1175 36.4ZM35.23 36.4H30.12V37.6H35.23V36.4ZM35.1489 36.4343C35.1791 36.4071 35.209 36.4 35.23 36.4L35.2299 37.6C35.4911 37.6 35.7515 37.5067 35.9524 37.3255L35.1489 36.4343ZM35.0858 36.5825C35.0865 36.5149 35.1168 36.4632 35.1489 36.4343L35.9524 37.3255C36.1551 37.1428 36.2826 36.882 36.2857 36.5957L35.0858 36.5825ZM35.0857 33.7002V36.5891H36.2857V33.7002H35.0857ZM29.4289 27.1641C32.6709 27.7584 35.0857 30.5872 35.0857 33.7002H36.2857C36.2857 29.9729 33.422 26.6761 29.6452 25.9838L29.4289 27.1641ZM28.0921 26.9471L29.4408 27.1662L29.6333 25.9817L28.2845 25.7626L28.0921 26.9471ZM28.0343 26.9337C28.0293 26.9331 28.0242 26.932 28.0189 26.9304L28.3577 25.7792C28.3062 25.7641 28.2537 25.7528 28.2004 25.7453L28.0343 26.9337ZM26.3602 26.7746C26.9175 26.7912 27.473 26.8438 28.0223 26.9319L28.2125 25.7471C27.6119 25.6507 27.0048 25.5933 26.3958 25.5752L26.3602 26.7746ZM25.6505 25.1758L25.7825 26.2482L26.9735 26.1016L26.8415 25.0292L25.6505 25.1758ZM28.5311 20.9652C28.2586 22.5202 27.1533 23.7255 25.8994 24.6127L26.5926 25.5923C27.9602 24.6245 29.3615 23.1787 29.7131 21.1724L28.5311 20.9652ZM30.4429 18.762C30.4429 19.4721 29.8701 20.2998 28.9996 20.4814L29.2447 21.6561C30.6996 21.3526 31.6429 20.0112 31.6429 18.762H30.4429ZM30.1906 18.0093C30.3473 18.2489 30.4325 18.516 30.4434 18.7861L31.6424 18.7379C31.6226 18.2452 31.4671 17.7687 31.195 17.3526L30.1906 18.0093ZM29.6495 17.4825C29.8729 17.6236 30.0565 17.8041 30.1906 18.0092L31.195 17.3526C30.9628 16.9975 30.6529 16.697 30.2903 16.468L29.6495 17.4825ZM29.4048 16.7185C29.3959 16.7712 29.387 16.8235 29.3782 16.8755L30.5615 17.075C30.5702 17.0237 30.579 16.972 30.5878 16.92L29.4048 16.7185ZM30.134 16.1307C30.066 16.178 29.9835 16.2123 29.8927 16.2283L30.1 17.4102C30.3561 17.3653 30.6028 17.2663 30.819 17.116L30.134 16.1307ZM30.3146 15.8899C30.2902 15.9755 30.2315 16.0629 30.134 16.1307L30.819 17.116C31.1301 16.8997 31.3638 16.5865 31.4686 16.2189L30.3146 15.8899ZM30.2978 15.6142C30.3377 15.7012 30.3435 15.7936 30.3172 15.881L31.4659 16.2278C31.5777 15.8579 31.5493 15.4641 31.3883 15.1135L30.2978 15.6142ZM30.0648 15.3819C30.1794 15.4403 30.2572 15.5257 30.2978 15.6142L31.3883 15.1135C31.228 14.7644 30.9497 14.4861 30.6099 14.3128L30.0648 15.3819ZM29.8418 15.267C29.9143 15.3037 29.9867 15.341 30.059 15.3789L30.6157 14.3159C30.5387 14.2755 30.4616 14.2358 30.3844 14.1967L29.8418 15.267ZM29.6259 16.6079H29.7649V15.4079H29.6259V16.6079ZM29.731 16.607C29.914 16.6173 30.1005 16.5689 30.258 16.4616L29.5826 15.4697C29.6508 15.4233 29.7271 15.4048 29.7988 15.4089L29.731 16.607ZM30.258 16.4616C30.4164 16.3537 30.5402 16.1889 30.5907 15.988L29.4268 15.6958C29.4524 15.5938 29.5135 15.5168 29.5826 15.4697L30.258 16.4616ZM30.5801 16.0252C30.6433 15.828 30.6289 15.6163 30.5421 15.4306L29.455 15.9385C29.4147 15.8524 29.4075 15.7519 29.4374 15.6586L30.5801 16.0252ZM30.5421 15.4306C30.4562 15.2465 30.3092 15.108 30.1391 15.0271L29.6232 16.1105C29.5584 16.0796 29.4944 16.023 29.455 15.9385L30.5421 15.4306ZM30.1669 15.0412C30.0397 14.9723 29.9115 14.9051 29.7824 14.8398L29.2403 15.9103C29.3596 15.9707 29.4779 16.0327 29.5953 16.0963L30.1669 15.0412ZM29.71 14.8089C29.719 14.8121 29.7291 14.8169 29.7396 14.824L29.0672 15.8179C29.1442 15.87 29.227 15.9111 29.3128 15.9412L29.71 14.8089ZM29.6702 14.7835C27.4863 13.6994 25.0442 13.1195 22.5569 13.0956L22.5454 14.2955C24.855 14.3177 27.1182 14.8564 29.1366 15.8583L29.6702 14.7835ZM22.5473 13.0956C20.1188 13.1113 17.7342 13.6783 15.6073 14.7437L16.1448 15.8166C18.104 14.8352 20.3069 14.3101 22.555 14.2956L22.5473 13.0956ZM15.5372 14.7851C15.5478 14.7778 15.5579 14.773 15.567 14.7697L15.9669 15.9011C16.0535 15.8705 16.1371 15.8286 16.215 15.7753L15.5372 14.7851ZM15.4937 14.8013C15.3389 14.8805 15.1854 14.9624 15.0334 15.0469L15.6167 16.0956C15.7565 16.0179 15.8977 15.9425 16.0402 15.8696L15.4937 14.8013ZM15.0586 15.0337C14.8908 15.1168 14.747 15.2573 14.6653 15.4423L15.763 15.9271C15.724 16.0154 15.6586 16.0756 15.5915 16.1089L15.0586 15.0337ZM14.6653 15.4423C14.5828 15.6291 14.5737 15.84 14.6414 16.0341L15.7744 15.6389C15.8074 15.7335 15.8027 15.8371 15.763 15.9271L14.6653 15.4423ZM14.6262 15.9836C14.6765 16.1824 14.798 16.3462 14.9541 16.4549L15.64 15.4702C15.7062 15.5164 15.7647 15.591 15.7896 15.6894L14.6262 15.9836ZM14.9541 16.4549C15.1093 16.563 15.2934 16.6139 15.4751 16.6075L15.4329 15.4083C15.5015 15.4059 15.5747 15.4247 15.64 15.4702L14.9541 16.4549ZM15.454 16.6079H15.548V15.4079H15.454V16.6079ZM15.7002 16.5883C15.6963 16.5893 15.6924 16.5901 15.6886 16.5907L15.516 15.4031C15.4755 15.409 15.4354 15.4172 15.3958 15.4275L15.7002 16.5883ZM15.6886 16.5907C15.6765 16.5924 15.6642 16.592 15.6517 16.5892L15.9154 15.4185C15.7843 15.389 15.6488 15.3838 15.516 15.4031L15.6886 16.5907ZM15.6415 16.5868L15.6582 16.5909L15.9423 15.425L15.9256 15.4209L15.6415 16.5868ZM15.8002 16.6079H29.5809V15.4079H15.8002V16.6079ZM29.6079 16.6073C29.6049 16.6074 29.6019 16.6074 29.5989 16.6073L29.653 15.4085C29.6199 15.407 29.5868 15.407 29.5538 15.4085L29.6079 16.6073ZM28.2186 17.438H29.071V16.238H28.2186V17.438ZM27.6434 17.0087C27.6492 17.0284 27.655 17.0479 27.6608 17.0672L28.811 16.7253C28.8053 16.7061 28.7996 16.6868 28.7938 16.6674L27.6434 17.0087ZM27.6691 17.0931C27.8439 17.5966 27.9694 18.1127 28.0444 18.6355L29.2322 18.4651C29.1463 17.8658 29.0025 17.2749 28.8027 16.6994L27.6691 17.0931ZM28.4244 19.1109C28.5089 19.1431 28.5981 19.1585 28.6867 19.1573L28.6701 17.9574C28.7313 17.9566 28.7931 17.9672 28.8523 17.9897L28.4244 19.1109ZM28.6784 19.1574H28.7303V17.9574H28.6784V19.1574ZM28.7404 17.9573C28.7329 17.9573 28.7255 17.9573 28.7182 17.9575L28.7423 19.1572C28.7417 19.1573 28.7411 19.1573 28.7404 19.1573V17.9573ZM28.7709 17.9577C28.7608 17.9574 28.7506 17.9573 28.7404 17.9573V19.1573C28.7394 19.1573 28.7385 19.1572 28.7377 19.1572L28.7709 17.9577ZM28.7753 19.1571C28.841 19.1548 28.9067 19.1428 28.9703 19.121L28.5804 17.9861C28.6304 17.9689 28.682 17.9596 28.7333 17.9578L28.7753 19.1571ZM28.9703 19.121C29.0543 19.0921 29.1347 19.0458 29.2043 18.9821L28.3941 18.097C28.4502 18.0456 28.5143 18.0088 28.5804 17.9861L28.9703 19.121ZM28.7992 18.5395C29.3926 18.6284 29.3926 18.6284 29.3926 18.6284C29.3926 18.6284 29.3926 18.6284 29.3926 18.6284C29.3926 18.6284 29.3926 18.6284 29.3926 18.6283C29.3926 18.6283 29.3926 18.6281 29.3926 18.628C29.3927 18.6276 29.3928 18.6271 29.3929 18.6263C29.3931 18.6249 29.3934 18.6227 29.3939 18.6197C29.3948 18.6139 29.3961 18.6051 29.3978 18.5936C29.4013 18.5705 29.4065 18.5365 29.4132 18.4927C29.4265 18.4052 29.446 18.2788 29.4702 18.124C29.5187 17.8143 29.5863 17.3913 29.6627 16.9376L28.4793 16.7385C28.402 17.1979 28.3337 17.6257 28.2847 17.9384C28.2602 18.0948 28.2405 18.2226 28.2269 18.3114C28.2202 18.3558 28.2149 18.3905 28.2113 18.4141C28.2095 18.4259 28.2082 18.435 28.2072 18.4411C28.2068 18.4442 28.2064 18.4465 28.2062 18.4481C28.2061 18.4489 28.206 18.4495 28.2059 18.4499C28.2059 18.4501 28.2059 18.4503 28.2059 18.4504C28.2058 18.4505 28.2058 18.4505 28.2058 18.4505C28.2058 18.4506 28.2058 18.4506 28.2058 18.4506C28.2058 18.4506 28.2058 18.4506 28.7992 18.5395ZM28.4998 18.7625C28.465 18.7491 28.4348 18.7315 28.4099 18.7113L27.6563 19.6452C27.782 19.7467 27.922 19.826 28.0694 19.8827L28.4998 18.7625ZM28.4099 18.7113C28.3516 18.6643 28.3287 18.6104 28.325 18.5675L27.1295 18.6718C27.1633 19.0594 27.3597 19.4059 27.6563 19.6452L28.4099 18.7113ZM28.3262 18.5844C28.3267 18.5924 28.3267 18.6004 28.3262 18.6083L27.1283 18.5379C27.126 18.5769 27.126 18.6159 27.1283 18.6548L28.3262 18.5844ZM28.3174 18.4649C28.2219 17.9445 28.091 17.4303 27.9255 16.9252L26.7852 17.2989C26.934 17.7529 27.0515 18.2146 27.1371 18.6814L28.3174 18.4649ZM27.9219 16.9144C27.8945 16.836 27.8697 16.7569 27.8475 16.6772L26.6915 16.9989C26.7205 17.1034 26.753 17.2071 26.7888 17.3098L27.9219 16.9144ZM18.0105 17.438H27.2695V16.238H18.0105V17.438ZM18.4902 17.3124C18.5264 17.2088 18.5592 17.1042 18.5885 16.9988L17.4324 16.6773C17.4101 16.7576 17.385 16.8375 17.3574 16.9166L18.4902 17.3124ZM18.1436 18.6829C18.2284 18.2163 18.3454 17.7549 18.494 17.3013L17.3536 16.9278C17.1881 17.4331 17.0576 17.9476 16.9629 18.4682L18.1436 18.6829ZM18.1533 18.6171V18.5756H16.9533V18.6171H18.1533ZM17.6253 19.6436C17.922 19.4036 18.1181 19.0561 18.1511 18.6679L16.9554 18.5663C16.9518 18.6094 16.9289 18.6635 16.8705 18.7108L17.6253 19.6436ZM17.2093 19.8829C17.3578 19.826 17.4988 19.746 17.6253 19.6436L16.8705 18.7108C16.8453 18.7311 16.8149 18.749 16.7797 18.7624L17.2093 19.8829ZM17.5945 20.2101V19.3227H16.3945V20.2101H17.5945ZM20.8302 24.5223C19.2391 23.6242 17.5945 22.199 17.5945 20.2101H16.3945C16.3945 22.9089 18.6002 24.6415 20.2404 25.5673L20.8302 24.5223ZM22.6366 24.9924C21.9949 24.9924 21.3693 24.8283 20.8315 24.523L20.2391 25.5666C20.9622 25.977 21.7926 26.1924 22.6366 26.1924V24.9924ZM24.4417 24.523C23.9039 24.8283 23.2783 24.9924 22.6366 24.9924V26.1924C23.4806 26.1924 24.311 25.977 25.0341 25.5666L24.4417 24.523ZM27.6846 20.2088C27.6846 22.1953 26.0378 23.6227 24.4431 24.5222L25.0327 25.5674C26.6757 24.6406 28.8846 22.9059 28.8846 20.2088H27.6846ZM27.6846 19.3226V20.2088H28.8846V19.3226H27.6846ZM29.01 18.7098C28.9904 18.7248 28.9682 18.7384 28.9434 18.7499L29.4489 19.8382C29.5516 19.7905 29.6499 19.7315 29.7413 19.6612L29.01 18.7098ZM29.1076 18.5595C29.0999 18.6064 29.0717 18.6624 29.01 18.7098L29.7413 19.6612C30.0302 19.4392 30.2325 19.1184 30.292 18.752L29.1076 18.5595ZM29.1113 18.5349C29.1098 18.5447 29.1087 18.5519 29.108 18.5566C29.1076 18.5591 29.1074 18.5604 29.1073 18.5611C29.1072 18.5615 29.1073 18.5609 29.1075 18.5599C29.1075 18.5596 29.1078 18.5577 29.1083 18.5552C29.1084 18.5543 29.109 18.5509 29.1098 18.5465C29.1102 18.5446 29.1111 18.5394 29.1125 18.5326C29.1132 18.5294 29.1146 18.5227 29.1167 18.5142C29.1177 18.5099 29.1195 18.503 29.1218 18.4946C29.1238 18.4877 29.1284 18.4715 29.1356 18.4514L30.2639 18.8601C30.276 18.8268 30.2824 18.7992 30.2829 18.7972C30.2849 18.7887 30.2864 18.782 30.287 18.7788C30.2884 18.7721 30.2894 18.7668 30.2898 18.7649C30.2906 18.7604 30.2912 18.7569 30.2914 18.756C30.2918 18.7533 30.2921 18.7512 30.2922 18.7505C30.2925 18.7489 30.2928 18.7473 30.2929 18.7465C30.2932 18.7445 30.2936 18.7421 30.294 18.7395C30.2948 18.7343 30.296 18.7267 30.2974 18.7171L29.1113 18.5349ZM29.2148 17.8739C29.1615 18.2084 29.1239 18.4529 29.1113 18.5349L30.2974 18.7171C30.3099 18.636 30.347 18.394 30.3998 18.0627L29.2148 17.8739ZM29.3476 18.3538C29.3681 18.3783 29.387 18.4035 29.4043 18.4294L30.4031 17.7644C30.3611 17.7012 30.3156 17.6406 30.267 17.5827L29.3476 18.3538ZM29.4043 18.4294C29.4819 18.5461 29.5246 18.6738 29.5332 18.8015L30.7305 18.7208C30.7074 18.3786 30.5935 18.0503 30.4031 17.7644L29.4043 18.4294ZM29.5319 18.7684C29.5344 18.9741 29.4559 19.183 29.2956 19.3553L30.174 20.1728C30.5347 19.7853 30.7382 19.282 30.7318 18.7539L29.5319 18.7684ZM29.2956 19.3554C29.2027 19.4551 29.0858 19.5387 28.9509 19.5991L29.4414 20.6943C29.7163 20.5712 29.967 20.3954 30.174 20.1728L29.2956 19.3554ZM29.7961 20.1467V19.2941H28.5961V20.1467H29.7961ZM31.1716 36.172V32.4932H29.9716V36.172H31.1716ZM34.7742 35.572H30.5716V36.772H34.7742V35.572ZM34.1742 33.6982V36.172H35.3742V33.6982H34.1742ZM29.2592 27.9793C32.0709 28.4931 34.1742 30.969 34.1742 33.6982H35.3742C35.3742 30.3615 32.8288 27.4117 29.4749 26.7989L29.2592 27.9793ZM28.1344 27.7971L29.271 27.9814L29.4631 26.7969L28.3264 26.6126L28.1344 27.7971ZM25.6438 31.0241L28.6792 27.603L27.7816 26.8066L24.7462 30.2277L25.6438 31.0241ZM25.2764 31.2897C25.4144 31.2296 25.5407 31.1403 25.6436 31.0245L24.7465 30.2274C24.764 30.2078 24.7823 30.1959 24.7978 30.1892L25.2764 31.2897ZM24.8411 31.3799C24.9899 31.3799 25.1384 31.3496 25.2764 31.2897L24.7978 30.1892C24.8132 30.1825 24.8277 30.1799 24.8407 30.1799L24.8411 31.3799ZM24.2997 31.2364C24.4654 31.3315 24.6526 31.3797 24.8403 31.3799L24.8415 30.1799C24.8576 30.1799 24.8766 30.1839 24.8971 30.1956L24.2997 31.2364ZM22.3403 30.1111L24.2996 31.2363L24.8972 30.1957L22.9379 29.0705L22.3403 30.1111ZM20.9791 31.2362L22.9379 30.1111L22.3402 29.0705L20.3814 30.1957L20.9791 31.2362ZM20.4384 31.3799C20.6261 31.3797 20.8132 31.3314 20.9789 31.2363L20.3816 30.1956C20.402 30.1838 20.4211 30.1799 20.4371 30.1799L20.4384 31.3799ZM20.0023 31.2898C20.1405 31.3498 20.2892 31.38 20.4381 31.3799L20.4375 30.1799C20.4504 30.1799 20.4649 30.1824 20.4803 30.1891L20.0023 31.2898ZM19.6346 31.0244C19.7377 31.1403 19.8641 31.2298 20.0023 31.2898L20.4803 30.1891C20.4958 30.1959 20.5142 30.2077 20.5317 30.2274L19.6346 31.0244ZM16.557 27.5573L19.6345 31.0242L20.5319 30.2276L17.4544 26.7607L16.557 27.5573ZM15.9891 27.9613L17.1169 27.7486L16.8945 26.5694L15.7667 26.7821L15.9891 27.9613ZM11.1044 33.6982C11.1044 30.9526 13.1972 28.4734 15.9861 27.9618L15.7696 26.7815C12.4304 27.394 9.90445 30.3539 9.90445 33.6982H11.1044ZM11.1044 36.172V33.6982H9.90445V36.172H11.1044ZM14.7075 35.572H10.5044V36.772H14.7075V35.572ZM14.1075 32.4932V36.172H15.3075V32.4932H14.1075ZM14.437 31.7561C14.2337 31.9412 14.1075 32.205 14.1075 32.4932H15.3075C15.3075 32.5614 15.2773 32.6139 15.245 32.6433L14.437 31.7561ZM15.1633 31.4782C14.9004 31.4782 14.6384 31.5727 14.437 31.7561L15.245 32.6433C15.2146 32.6711 15.1843 32.6782 15.1633 32.6782V31.4782ZM15.8895 31.7561C15.6882 31.5727 15.4261 31.4782 15.1633 31.4782V32.6782C15.1422 32.6782 15.112 32.6711 15.0815 32.6433L15.8895 31.7561ZM16.219 32.4932C16.219 32.2049 16.0928 31.9412 15.8895 31.7561L15.0815 32.6433C15.0492 32.6139 15.019 32.5614 15.019 32.4932H16.219ZM16.219 36.172V32.4932H15.019V36.172H16.219ZM29.6601 35.572H15.619V36.772H29.6601V35.572ZM29.0601 32.4932V36.172H30.2601V32.4932H29.0601ZM29.3896 31.7561C29.1864 31.9412 29.0601 32.205 29.0601 32.4932H30.2601C30.2601 32.5614 30.2299 32.6139 30.1976 32.6433L29.3896 31.7561ZM30.1159 31.4782C29.853 31.4782 29.591 31.5727 29.3896 31.7561L30.1976 32.6433C30.1672 32.6711 30.137 32.6782 30.1159 32.6782V31.4782ZM30.8421 31.7561C30.6408 31.5727 30.3787 31.4782 30.1159 31.4782V32.6782C30.0948 32.6782 30.0646 32.6711 30.0341 32.6433L30.8421 31.7561ZM31.1716 32.4932C31.1716 32.2049 31.0454 31.9412 30.8421 31.7561L30.0341 32.6433C30.0019 32.6139 29.9716 32.5614 29.9716 32.4932H31.1716ZM18.837 12.6943C17.843 12.9288 16.8611 13.2581 15.8983 13.6816L16.3815 14.7801C17.2788 14.3853 18.1912 14.0796 19.1125 13.8622L18.837 12.6943ZM20.1566 7.92056C19.2533 9.10462 18.6382 10.9625 18.3787 13.2094L19.5708 13.3471C19.8183 11.2046 20.3923 9.59001 21.1106 8.64839L20.1566 7.92056ZM16.7332 14.3204C17.1434 11.6016 18.7502 9.58253 20.8326 8.85052L20.4346 7.71843C17.8642 8.622 16.0115 11.0608 15.5466 14.1413L16.7332 14.3204ZM25.4742 12.5249C23.588 12.1828 21.6865 12.1725 19.8154 12.4948L20.019 13.6774C21.7504 13.3792 23.5105 13.3883 25.2601 13.7056L25.4742 12.5249ZM22.6396 8.54611C22.7131 8.54611 22.8531 8.57966 23.0528 8.74418C23.2509 8.9075 23.476 9.17547 23.7015 9.56875C24.1519 10.3545 24.5611 11.5659 24.7721 13.1925L25.9622 13.0381C25.7372 11.3037 25.2921 9.93053 24.7425 8.97193C24.468 8.49304 24.1566 8.09889 23.816 7.81814C23.4767 7.53859 23.0756 7.34611 22.6396 7.34611V8.54611ZM20.5121 13.1644C20.725 11.5469 21.1336 10.3427 21.5826 9.56176C21.8073 9.17092 22.0314 8.90478 22.2286 8.74265C22.4272 8.57937 22.5665 8.54611 22.6396 8.54611V7.34611C22.2048 7.34611 21.8048 7.53754 21.4665 7.81575C21.1267 8.09511 20.8162 8.48726 20.5423 8.96361C19.9941 9.91709 19.5494 11.2829 19.3223 13.0078L20.5121 13.1644ZM29.3818 13.7239C28.416 13.3024 27.4365 12.9715 26.4496 12.7317L26.1663 13.8978C27.0839 14.1207 27.9977 14.4292 28.9018 14.8237L29.3818 13.7239ZM24.4477 8.85045C26.5406 9.58574 28.1487 11.6205 28.548 14.3603L29.7355 14.1873C29.2834 11.0853 27.4302 8.6264 24.8454 7.71829L24.4477 8.85045ZM26.9042 13.2476C26.6492 10.9833 26.0324 9.11106 25.1235 7.92034L24.1696 8.64841C24.8924 9.59531 25.4686 11.2227 25.7117 13.3819L26.9042 13.2476ZM16.4831 18.5423C17.0764 18.4526 17.0764 18.4526 17.0764 18.4526C17.0764 18.4526 17.0764 18.4525 17.0764 18.4525C17.0764 18.4525 17.0764 18.4525 17.0764 18.4524C17.0763 18.4523 17.0763 18.4521 17.0763 18.4519C17.0762 18.4515 17.0761 18.4509 17.076 18.4501C17.0758 18.4485 17.0754 18.4462 17.075 18.4431C17.074 18.437 17.0726 18.4279 17.0708 18.4161C17.0672 18.3924 17.0619 18.3577 17.0551 18.3133C17.0413 18.2243 17.0215 18.0963 16.9968 17.9397C16.9474 17.6265 16.8786 17.1982 16.8009 16.7382L15.6177 16.9379C15.6944 17.3924 15.7625 17.8163 15.8114 18.1266C15.8359 18.2817 15.8555 18.4083 15.8691 18.496C15.8758 18.5399 15.881 18.574 15.8846 18.5972C15.8863 18.6087 15.8877 18.6175 15.8886 18.6234C15.889 18.6263 15.8894 18.6285 15.8896 18.63C15.8897 18.6307 15.8898 18.6313 15.8898 18.6316C15.8898 18.6318 15.8899 18.6319 15.8899 18.632C15.8899 18.632 15.8899 18.6321 15.8899 18.6321C15.8899 18.6321 15.8899 18.6321 15.8899 18.6321C15.8899 18.6321 15.8899 18.6321 16.4831 18.5423ZM16.5361 17.9574C16.6398 17.9587 16.7465 17.9913 16.8386 18.059L16.1277 19.0257C16.2457 19.1125 16.3846 19.1556 16.5215 19.1573L16.5361 17.9574ZM16.5328 17.9573L16.5229 17.9574L16.5348 19.1573L16.5447 19.1572L16.5328 17.9573ZM16.5476 17.9573L16.542 17.9573L16.5354 19.1572L16.541 19.1573L16.5476 17.9573ZM16.6012 17.9573H16.5443V19.1573H16.6012V17.9573ZM16.4295 17.9892C16.489 17.9666 16.5512 17.9562 16.6127 17.9574L16.5896 19.1572C16.6792 19.1589 16.7694 19.1437 16.8549 19.1113L16.4295 17.9892ZM16.4769 16.7033C16.2777 17.2775 16.1342 17.867 16.0483 18.4649L17.2361 18.6355C17.311 18.114 17.4363 17.599 17.6106 17.0966L16.4769 16.7033ZM16.4866 16.6681L16.4683 16.73L17.6192 17.0698L17.6374 17.008L16.4866 16.6681ZM16.2093 17.438H17.062V16.238H16.2093V17.438ZM23.3451 27.2747L22.2765 28.0826L23.0003 29.0398L24.0688 28.2318L23.3451 27.2747ZM25.126 25.924L23.3444 27.2752L24.0695 28.2313L25.8511 26.8801L25.126 25.924ZM24.8004 25.7226L24.893 26.4753L26.084 26.3287L25.9914 25.576L24.8004 25.7226ZM25.5151 26.2729C25.576 26.2385 25.6374 26.2032 25.6991 26.1671L25.0927 25.1316C25.0366 25.1644 24.9807 25.1965 24.9251 25.2279L25.5151 26.2729ZM22.6338 27.0228C23.6493 27.024 24.648 26.7654 25.5164 26.2721L24.9237 25.2287C24.2411 25.6165 23.4479 25.8238 22.6353 25.8228L22.6338 27.0228ZM19.7548 26.2707C20.622 26.7655 21.6205 27.0247 22.6357 27.0228L22.6334 25.8228C21.8221 25.8244 21.0302 25.6168 20.3496 25.2284L19.7548 26.2707ZM19.581 26.1708C19.6401 26.2054 19.6989 26.2391 19.7572 26.2721L20.3472 25.2271C20.294 25.197 20.2404 25.1663 20.1867 25.1349L19.581 26.1708ZM20.3879 26.4818L20.4795 25.725L19.2882 25.5807L19.1966 26.3376L20.3879 26.4818ZM22.7573 27.8995L20.1541 25.9311L19.4304 26.8883L22.0336 28.8567L22.7573 27.8995ZM22.9995 28.0821L22.7566 27.899L22.0344 28.8573L22.2773 29.0404L22.9995 28.0821ZM22.223 28.5738L19.492 26.5157L18.7698 27.474L21.5007 29.5321L22.223 28.5738ZM20.8342 30.3355L22.1608 29.5732L21.5629 28.5328L20.2364 29.295L20.8342 30.3355ZM17.6108 27.4229L20.0865 30.2135L20.9841 29.4171L18.5084 26.6266L17.6108 27.4229ZM19.1341 26.3948C18.7494 26.3928 18.3784 26.4031 18.0212 26.426L18.098 27.6235C18.4252 27.6026 18.7684 27.5929 19.1278 27.5948L19.1341 26.3948ZM16.3369 18.7492C16.3118 18.7375 16.2893 18.7237 16.2695 18.7084L15.5347 19.657C15.6266 19.7282 15.7255 19.7881 15.8291 19.8365L16.3369 18.7492ZM16.683 20.147V19.2928H15.483V20.147H16.683ZM15.0896 20.1513C15.2983 20.3819 15.553 20.5646 15.8338 20.6928L16.3321 19.6012C16.1933 19.5378 16.0736 19.4503 15.9794 19.3462L15.0896 20.1513ZM14.5478 18.7596C14.5458 19.2757 14.7424 19.7676 15.0896 20.1513L15.9794 19.3462C15.824 19.1743 15.747 18.9681 15.7478 18.7642L14.5478 18.7596ZM14.8996 17.7308C14.6952 18.0246 14.5727 18.3656 14.5491 18.7222L15.7465 18.8016C15.7552 18.6691 15.8009 18.5365 15.8845 18.4163L14.8996 17.7308ZM15.0139 17.5817C14.9736 17.6296 14.9355 17.6793 14.8996 17.7308L15.8845 18.4163C15.8993 18.3951 15.9151 18.3744 15.9321 18.3543L15.0139 17.5817ZM15.5789 18.6482C16.1722 18.5587 16.1722 18.5587 16.1722 18.5587C16.1722 18.5587 16.1722 18.5587 16.1722 18.5587C16.1722 18.5586 16.1722 18.5586 16.1722 18.5586C16.1722 18.5586 16.1722 18.5585 16.1722 18.5584C16.1721 18.5583 16.1721 18.5581 16.1721 18.5578C16.172 18.5572 16.1718 18.5564 16.1717 18.5553C16.1714 18.5531 16.1709 18.5499 16.1702 18.5458C16.169 18.5374 16.1671 18.525 16.1646 18.5089C16.1597 18.4767 16.1525 18.4296 16.1433 18.3697C16.1248 18.25 16.0982 18.079 16.0655 17.8738L14.8804 18.0622C14.9127 18.2654 14.9391 18.4345 14.9573 18.5528C14.9664 18.6119 14.9735 18.6583 14.9783 18.6898C14.9807 18.7056 14.9826 18.7176 14.9838 18.7257C14.9844 18.7297 14.9849 18.7328 14.9852 18.7348C14.9853 18.7358 14.9854 18.7365 14.9855 18.737C14.9856 18.7373 14.9856 18.7374 14.9856 18.7376C14.9856 18.7376 14.9856 18.7377 14.9856 18.7377C14.9856 18.7377 14.9856 18.7377 14.9856 18.7377C14.9856 18.7377 14.9856 18.7377 14.9856 18.7377C14.9856 18.7377 14.9856 18.7377 15.5789 18.6482ZM16.2695 18.7084C16.2074 18.6603 16.1792 18.6036 16.1718 18.556L14.986 18.7404C15.0434 19.1091 15.2451 19.4327 15.5347 19.657L16.2695 18.7084ZM25.0409 29.2967L23.7128 28.5338L23.115 29.5743L24.4431 30.3372L25.0409 29.2967ZM26.7397 26.6615L24.2932 29.4188L25.1908 30.2152L27.6373 27.4579L26.7397 26.6615ZM26.1304 27.5978C26.4619 27.5997 26.7929 27.6191 27.1218 27.6559L27.2552 26.4634C26.8843 26.4219 26.511 26.4 26.1374 26.3978L26.1304 27.5978ZM23.7757 29.5327L26.4957 27.4765L25.7721 26.5192L23.0521 28.5755L23.7757 29.5327ZM21.9137 32.1724C22.1151 32.3558 22.3772 32.4504 22.64 32.4504V31.2504C22.6611 31.2504 22.6913 31.2575 22.7217 31.2852L21.9137 32.1724ZM21.5843 31.4353C21.5843 31.7236 21.7105 31.9873 21.9138 32.1724L22.7217 31.2852C22.754 31.3146 22.7843 31.3672 22.7843 31.4353H21.5843ZM21.5843 31.2817V31.4353H22.7843V31.2817H21.5843ZM21.9137 30.5446C21.7105 30.7297 21.5843 30.9934 21.5843 31.2817H22.7843C22.7843 31.3498 22.754 31.4024 22.7217 31.4318L21.9137 30.5446ZM22.64 30.2666C22.3772 30.2666 22.1151 30.3612 21.9137 30.5446L22.7217 31.4318C22.6913 31.4595 22.6611 31.4666 22.64 31.4666V30.2666ZM23.3663 30.5446C23.1649 30.3612 22.9029 30.2666 22.64 30.2666V31.4666C22.6189 31.4666 22.5887 31.4595 22.5583 31.4318L23.3663 30.5446ZM23.6958 31.2817C23.6958 30.9934 23.5695 30.7297 23.3663 30.5446L22.5583 31.4318C22.526 31.4024 22.4958 31.3498 22.4958 31.2817H23.6958ZM23.6958 31.4353V31.2817H22.4958V31.4353H23.6958ZM23.3663 32.1724C23.5695 31.9873 23.6958 31.7236 23.6958 31.4353H22.4958C22.4958 31.3672 22.526 31.3146 22.5583 31.2852L23.3663 32.1724ZM22.64 32.4504C22.9029 32.4504 23.1649 32.3558 23.3663 32.1724L22.5583 31.2852C22.5887 31.2575 22.6189 31.2504 22.64 31.2504V32.4504ZM22.64 33.0534C22.6611 33.0534 22.6913 33.0605 22.7217 33.0882L21.9137 33.9754C22.1151 34.1588 22.3772 34.2534 22.64 34.2534V33.0534ZM22.5583 33.0882C22.5887 33.0605 22.6189 33.0534 22.64 33.0534V34.2534C22.9029 34.2534 23.1649 34.1588 23.3663 33.9754L22.5583 33.0882ZM22.4958 33.2383C22.4958 33.1702 22.526 33.1176 22.5583 33.0882L23.3663 33.9754C23.5695 33.7903 23.6958 33.5266 23.6958 33.2383H22.4958ZM22.4958 33.0847V33.2383H23.6958V33.0847H22.4958ZM22.5583 33.2348C22.526 33.2054 22.4958 33.1529 22.4958 33.0847H23.6958C23.6958 32.7964 23.5695 32.5327 23.3663 32.3476L22.5583 33.2348ZM22.64 33.2697C22.6189 33.2697 22.5887 33.2626 22.5583 33.2348L23.3663 32.3476C23.1649 32.1642 22.9029 32.0697 22.64 32.0697V33.2697ZM22.7217 33.2348C22.6913 33.2626 22.6611 33.2697 22.64 33.2697V32.0697C22.3772 32.0697 22.1151 32.1642 21.9137 32.3476L22.7217 33.2348ZM22.7843 33.0847C22.7843 33.1529 22.754 33.2054 22.7217 33.2348L21.9137 32.3476C21.7105 32.5327 21.5843 32.7964 21.5843 33.0847H22.7843ZM22.7843 33.2383V33.0847H21.5843V33.2383H22.7843ZM22.7217 33.0882C22.754 33.1176 22.7843 33.1702 22.7843 33.2383H21.5843C21.5843 33.5266 21.7105 33.7903 21.9138 33.9754L22.7217 33.0882ZM21.9137 35.7785C22.1151 35.9619 22.3772 36.0565 22.64 36.0565V34.8565C22.6611 34.8565 22.6913 34.8636 22.7218 34.8913L21.9137 35.7785ZM21.5843 35.0414C21.5843 35.3297 21.7105 35.5934 21.9137 35.7785L22.7217 34.8913C22.754 34.9207 22.7843 34.9733 22.7843 35.0414H21.5843ZM21.5843 34.8879V35.0414H22.7843V34.8879H21.5843ZM21.9137 34.1508C21.7105 34.3358 21.5843 34.5996 21.5843 34.8879H22.7843C22.7843 34.956 22.754 35.0085 22.7218 35.038L21.9137 34.1508ZM22.64 33.8728C22.3772 33.8728 22.1151 33.9674 21.9137 34.1507L22.7217 35.038C22.6913 35.0657 22.6611 35.0728 22.64 35.0728V33.8728ZM23.3663 34.1507C23.1649 33.9674 22.9029 33.8728 22.64 33.8728V35.0728C22.6189 35.0728 22.5887 35.0657 22.5583 35.038L23.3663 34.1507ZM23.6958 34.8879C23.6958 34.5996 23.5695 34.3358 23.3663 34.1508L22.5583 35.038C22.526 35.0085 22.4958 34.956 22.4958 34.8879H23.6958ZM23.6958 35.0414V34.8879H22.4958V35.0414H23.6958ZM23.3663 35.7785C23.5695 35.5934 23.6958 35.3297 23.6958 35.0414H22.4958C22.4958 34.9733 22.526 34.9207 22.5583 34.8913L23.3663 35.7785ZM22.64 36.0565C22.9029 36.0565 23.1649 35.9619 23.3663 35.7785L22.5583 34.8913C22.5887 34.8636 22.6189 34.8565 22.64 34.8565V36.0565Z" fill="white"/>
</svg>
