<svg width="584" height="786" viewBox="0 0 584 786" fill="none" xmlns="http://www.w3.org/2000/svg">
<path fill-rule="evenodd" clip-rule="evenodd" d="M-261.811 521.215C-273.7 455.433 -265.448 383.371 -216.3 323.914C-169.389 267.165 -140.282 256.132 -52.6854 236.468C-51.8215 42.093 144.788 27.7628 216.644 154.504C272.345 233.976 333.583 161.078 428.715 219.76C486.53 260.037 522.744 315.454 535.561 376.68C548.578 438.863 543.427 506.363 500.898 564.579C423.199 644.287 366.453 606.432 291.3 636.157C219.85 664.416 161.618 728.773 84.5389 729.258C0.795935 729.784 -1.35537 626.352 -64.4461 588.455C-190.904 490.136 -230.628 607.343 -261.811 521.215Z" fill="white"/>
</svg>
