<svg width="45" height="45" viewBox="0 0 45 45" fill="none" xmlns="http://www.w3.org/2000/svg">
<path d="M0 6C0 2.68629 2.68629 0 6 0H39C42.3137 0 45 2.68629 45 6V39C45 42.3137 42.3137 45 39 45H6C2.68629 45 0 42.3137 0 39V6Z" fill="#01A9F1"/>
<path fill-rule="evenodd" clip-rule="evenodd" d="M33.5153 24.5855L28.7039 17.699C29.3856 17.3719 29.8519 16.7192 29.8519 15.9686C29.8519 15.147 29.2933 14.4427 28.5049 14.1544L29.9624 9.50171C30.0253 9.30098 29.964 9.08497 29.8024 8.93734C28.8328 8.05213 27.2552 8.05213 26.2856 8.93734C26.0537 9.1491 25.7454 9.2657 25.4174 9.2657C25.0894 9.2657 24.781 9.1491 24.5477 8.93596L24.5446 8.93314C23.5784 8.05093 22.0036 8.04846 21.0336 8.92791L21.0155 8.94435C20.5367 9.37839 19.7591 9.37712 19.282 8.94153L19.2774 8.93734C18.3078 8.05213 16.7303 8.05213 15.7607 8.93734C15.5989 9.08508 15.5377 9.30127 15.6007 9.50211L17.0614 14.1533C16.2713 14.4408 15.7112 15.1459 15.7112 15.9686C15.7112 16.7193 16.1774 17.3719 16.8592 17.699L12.0477 24.5855C10.1863 27.2496 10.0684 30.4945 11.7322 33.2654C13.396 36.0363 16.4557 37.6907 19.9169 37.6907H25.6461C29.1072 37.6907 32.1669 36.0363 33.8308 33.2654C35.4946 30.4945 35.3767 27.2496 33.5153 24.5855ZM18.3873 9.75002L18.3919 9.75422C19.3581 10.6364 20.9329 10.6388 21.9029 9.75944L21.921 9.74301C22.3997 9.30897 23.1773 9.31023 23.6559 9.74715L23.6589 9.74996C24.6285 10.6352 26.2061 10.6352 27.1757 9.74996C27.5702 9.38977 28.1686 9.32638 28.6348 9.55981L27.2393 14.0147H18.3275L16.9284 9.55975C17.3946 9.32638 17.9928 9.38988 18.3873 9.75002ZM32.727 32.7129C31.2875 35.1102 28.6405 36.5414 25.6462 36.5414H19.9169C16.9226 36.5414 14.2756 35.1102 12.8361 32.7129C11.3967 30.3157 11.4987 27.5085 13.109 25.2036L18.1962 17.9224H19.9492C20.2968 17.9224 20.5786 17.6651 20.5786 17.3478C20.5786 17.0304 20.2968 16.7731 19.9492 16.7731H17.8512C17.3653 16.7731 16.97 16.4122 16.97 15.9686C16.97 15.5249 17.3653 15.1641 17.8512 15.1641H17.8532H27.7119C28.1978 15.1641 28.593 15.5249 28.593 15.9686C28.593 16.4122 28.1978 16.7731 27.7119 16.7731H25.6139C25.2662 16.7731 24.9845 17.0304 24.9845 17.3478C24.9845 17.6651 25.2662 17.9224 25.6139 17.9224H27.3668L32.4541 25.2036C34.0644 27.5084 34.1664 30.3156 32.727 32.7129ZM23.8912 27.0371C23.7333 26.9861 23.5721 26.9331 23.411 26.878V24.2735C23.8377 24.3882 24.1227 24.5741 24.1348 24.5821C24.4117 24.7715 24.8045 24.7212 25.0137 24.4691C25.2236 24.2162 25.1692 23.8558 24.8921 23.664C24.8551 23.6385 24.2699 23.2418 23.411 23.0917V22.5198C23.411 22.2024 23.1292 21.9451 22.7816 21.9451C22.4339 21.9451 22.1522 22.2024 22.1522 22.5198V23.0876C22.0455 23.1062 21.9375 23.1298 21.828 23.1599C20.9421 23.4029 20.28 24.0946 20.0999 24.965C19.9356 25.7597 20.2145 26.5262 20.8278 26.9654C21.1606 27.2037 21.5764 27.4213 22.1522 27.6525V30.9853C21.6565 30.9566 21.3249 30.8537 20.7722 30.5235C20.4813 30.3497 20.0912 30.4242 19.9009 30.6898C19.7106 30.9554 19.7921 31.3115 20.083 31.4853C20.8891 31.9667 21.4348 32.1031 22.1522 32.1353V32.7296C22.1522 33.047 22.4339 33.3042 22.7816 33.3042C23.1292 33.3042 23.411 33.047 23.411 32.7296V32.0756C24.7588 31.8061 25.5471 30.7792 25.7239 29.8186C25.9551 28.5628 25.2357 27.471 23.8912 27.0371ZM21.6046 26.061C21.3627 25.8877 21.2601 25.5494 21.3369 25.1782C21.4075 24.8367 21.6591 24.425 22.1522 24.2726V26.3772C21.9452 26.2764 21.7585 26.1712 21.6046 26.061ZM24.4825 29.628C24.3918 30.1202 24.028 30.6422 23.4109 30.8729V28.1008L23.4716 28.1207C24.6001 28.4849 24.5307 29.3665 24.4825 29.628ZM23.2266 17.7541C23.1095 17.861 22.9471 17.9225 22.7816 17.9225C22.616 17.9225 22.4537 17.861 22.3366 17.7541C22.2195 17.6472 22.1522 17.4989 22.1522 17.3478C22.1522 17.1967 22.2195 17.0484 22.3366 16.9415C22.4537 16.8346 22.6161 16.7731 22.7816 16.7731C22.9471 16.7731 23.1095 16.8346 23.2266 16.9415C23.3437 17.0484 23.411 17.1967 23.411 17.3478C23.411 17.4989 23.3437 17.6472 23.2266 17.7541Z" fill="white"/>
<path d="M28.7039 17.699L28.4876 17.2482L27.9569 17.5028L28.294 17.9854L28.7039 17.699ZM33.5153 24.5855L33.1054 24.8718L33.1054 24.8718L33.5153 24.5855ZM28.5049 14.1544L28.0277 14.0049L27.8851 14.4601L28.3332 14.624L28.5049 14.1544ZM29.9624 9.50171L30.4396 9.65119L30.4396 9.65117L29.9624 9.50171ZM29.8024 8.93734L30.1396 8.56816L30.1395 8.56808L29.8024 8.93734ZM26.2856 8.93734L25.9485 8.56808L25.9485 8.56809L26.2856 8.93734ZM24.5477 8.93596L24.8848 8.56676L24.8847 8.56665L24.5477 8.93596ZM24.5446 8.93314L24.2074 9.30237L24.2075 9.30245L24.5446 8.93314ZM21.0336 8.92791L20.6977 8.55749L20.6971 8.55808L21.0336 8.92791ZM21.0155 8.94435L21.3513 9.31479L21.352 9.31419L21.0155 8.94435ZM19.282 8.94153L18.9449 9.31075L18.9449 9.31076L19.282 8.94153ZM19.2774 8.93734L19.6146 8.56812L19.6146 8.56808L19.2774 8.93734ZM15.7607 8.93734L15.4236 8.56808L15.4235 8.56816L15.7607 8.93734ZM15.6007 9.50211L15.1236 9.65177L15.1237 9.65193L15.6007 9.50211ZM17.0614 14.1533L17.2324 14.6231L17.6817 14.4596L17.5385 14.0035L17.0614 14.1533ZM16.8592 17.699L17.2691 17.9854L17.6062 17.5029L17.0755 17.2482L16.8592 17.699ZM12.0477 24.5855L12.4576 24.8718L12.4576 24.8718L12.0477 24.5855ZM11.7322 33.2654L12.1608 33.008L12.1608 33.008L11.7322 33.2654ZM33.8308 33.2654L34.2594 33.5228L34.2594 33.5228L33.8308 33.2654ZM18.3919 9.75422L18.0547 10.1235L18.0548 10.1235L18.3919 9.75422ZM18.3873 9.75002L18.0502 10.1193L18.0502 10.1193L18.3873 9.75002ZM21.9029 9.75944L22.2387 10.1299L22.2394 10.1293L21.9029 9.75944ZM21.921 9.74301L21.5851 9.37259L21.5845 9.37318L21.921 9.74301ZM23.6559 9.74715L23.993 9.37795L23.993 9.3779L23.6559 9.74715ZM23.6589 9.74996L23.3218 10.1192L23.3218 10.1192L23.6589 9.74996ZM27.1757 9.74996L27.5128 10.1192L27.5128 10.1192L27.1757 9.74996ZM28.6348 9.55981L29.112 9.70927L29.2392 9.3032L28.8587 9.11271L28.6348 9.55981ZM27.2393 14.0147V14.5147H27.6066L27.7165 14.1642L27.2393 14.0147ZM18.3275 14.0147L17.8505 14.1646L17.9605 14.5147H18.3275V14.0147ZM16.9284 9.55975L16.7046 9.11263L16.3237 9.30325L16.4514 9.70957L16.9284 9.55975ZM32.727 32.7129L33.1556 32.9703L33.1556 32.9703L32.727 32.7129ZM12.8361 32.7129L13.2648 32.4555L13.2648 32.4555L12.8361 32.7129ZM13.109 25.2036L12.6991 24.9172L12.6991 24.9172L13.109 25.2036ZM18.1962 17.9224V17.4224H17.9356L17.7863 17.636L18.1962 17.9224ZM27.3668 17.9224L27.7767 17.636L27.6274 17.4224H27.3668V17.9224ZM32.4541 25.2036L32.8639 24.9172L32.8639 24.9172L32.4541 25.2036ZM23.411 26.878H22.911V27.2354L23.2492 27.3511L23.411 26.878ZM23.8912 27.0371L23.7376 27.5129L23.7377 27.513L23.8912 27.0371ZM23.411 24.2735L23.5407 23.7907L22.911 23.6215V24.2735H23.411ZM24.1348 24.5821L24.4171 24.1694L24.4119 24.1659L24.1348 24.5821ZM25.0137 24.4691L25.3985 24.7884L25.3985 24.7884L25.0137 24.4691ZM24.8921 23.664L24.6075 24.0752L24.6076 24.0752L24.8921 23.664ZM23.411 23.0917H22.911V23.5119L23.3249 23.5842L23.411 23.0917ZM22.1522 23.0876L22.2384 23.5801L22.6522 23.5076V23.0876H22.1522ZM21.828 23.1599L21.9602 23.6421L21.9603 23.6421L21.828 23.1599ZM20.0999 24.965L19.6103 24.8637L19.6103 24.8637L20.0999 24.965ZM20.8278 26.9654L20.5367 27.3719L20.5367 27.3719L20.8278 26.9654ZM22.1522 27.6525H22.6522V27.3144L22.3384 27.1885L22.1522 27.6525ZM22.1522 30.9853L22.1233 31.4844L22.6522 31.515V30.9853H22.1522ZM20.7722 30.5235L20.5157 30.9527L20.5158 30.9528L20.7722 30.5235ZM19.9009 30.6898L20.3073 30.9811L20.3074 30.981L19.9009 30.6898ZM20.083 31.4853L19.8266 31.9146L19.8267 31.9146L20.083 31.4853ZM22.1522 32.1353H22.6522V31.6573L22.1746 31.6358L22.1522 32.1353ZM23.411 32.0756L23.3129 31.5853L22.911 31.6657V32.0756H23.411ZM25.7239 29.8186L26.2156 29.9092L26.2157 29.9092L25.7239 29.8186ZM21.3369 25.1782L20.8472 25.0769L20.8472 25.0769L21.3369 25.1782ZM21.6046 26.061L21.8958 25.6545L21.8957 25.6545L21.6046 26.061ZM22.1522 24.2726H22.6522V23.5948L22.0045 23.7949L22.1522 24.2726ZM22.1522 26.3772L21.9333 26.8267L22.6522 27.1767V26.3772H22.1522ZM23.4109 30.8729H22.9109V31.5936L23.586 31.3413L23.4109 30.8729ZM24.4825 29.628L23.9908 29.5374L23.9907 29.5375L24.4825 29.628ZM23.4109 28.1008L23.5665 27.6256L22.9109 27.411V28.1008H23.4109ZM23.4716 28.1207L23.3161 28.5959L23.3181 28.5965L23.4716 28.1207ZM23.2266 17.7541L22.8895 17.3848L22.8895 17.3848L23.2266 17.7541ZM22.3366 17.7541L21.9995 18.1233L21.9995 18.1233L22.3366 17.7541ZM22.3366 16.9415L21.9995 16.5723L21.9995 16.5723L22.3366 16.9415ZM23.2266 16.9415L22.8895 17.3108L22.8895 17.3108L23.2266 16.9415ZM28.294 17.9854L33.1054 24.8718L33.9252 24.2991L29.1138 17.4126L28.294 17.9854ZM29.3519 15.9686C29.3519 16.501 29.0205 16.9925 28.4876 17.2482L28.9202 18.1498C29.7507 17.7513 30.3519 16.9373 30.3519 15.9686H29.3519ZM28.3332 14.624C28.954 14.851 29.3519 15.3867 29.3519 15.9686H30.3519C30.3519 14.9073 29.6327 14.0344 28.6766 13.6848L28.3332 14.624ZM29.4853 9.35223L28.0277 14.0049L28.982 14.3039L30.4396 9.65119L29.4853 9.35223ZM29.4652 9.30652C29.4791 9.31927 29.4839 9.33025 29.4856 9.33606C29.4871 9.34155 29.4872 9.34635 29.4853 9.35225L30.4396 9.65117C30.5635 9.25546 30.4371 8.83988 30.1396 8.56816L29.4652 9.30652ZM26.6228 9.3066C27.4014 8.59571 28.6866 8.59571 29.4653 9.3066L30.1395 8.56808C28.979 7.50855 27.1091 7.50855 25.9485 8.56808L26.6228 9.3066ZM25.4174 9.7657C25.864 9.7657 26.2943 9.60649 26.6228 9.30659L25.9485 8.56809C25.8131 8.69171 25.6267 8.7657 25.4174 8.7657V9.7657ZM24.2105 9.30516C24.5401 9.60621 24.9703 9.7657 25.4174 9.7657V8.7657C25.2085 8.7657 25.022 8.69199 24.8848 8.56676L24.2105 9.30516ZM24.2075 9.30245L24.2106 9.30527L24.8847 8.56665L24.8816 8.56384L24.2075 9.30245ZM21.3694 9.29834C22.1485 8.59194 23.4319 8.59422 24.2074 9.30237L24.8817 8.56392C23.725 7.50763 21.8586 7.50497 20.6977 8.55749L21.3694 9.29834ZM21.352 9.31419L21.37 9.29775L20.6971 8.55808L20.679 8.57451L21.352 9.31419ZM18.9449 9.31076C19.6125 9.92036 20.6816 9.92193 21.3513 9.31479L20.6797 8.57391C20.3918 8.83485 19.9057 8.83389 19.6192 8.57231L18.9449 9.31076ZM18.9403 9.30655L18.9449 9.31075L19.6192 8.57232L19.6146 8.56812L18.9403 9.30655ZM16.0978 9.3066C16.8765 8.59571 18.1617 8.59571 18.9403 9.3066L19.6146 8.56808C18.454 7.50855 16.5841 7.50855 15.4236 8.56808L16.0978 9.3066ZM16.0778 9.35245C16.0759 9.34647 16.0759 9.34161 16.0775 9.33609C16.0791 9.33027 16.0839 9.31928 16.0979 9.30652L15.4235 8.56816C15.1258 8.84012 14.9995 9.25599 15.1236 9.65177L16.0778 9.35245ZM17.5385 14.0035L16.0777 9.3523L15.1237 9.65193L16.5844 14.3031L17.5385 14.0035ZM16.2112 15.9686C16.2112 15.3859 16.6102 14.8496 17.2324 14.6231L16.8904 13.6834C15.9324 14.0321 15.2112 14.9058 15.2112 15.9686H16.2112ZM17.0755 17.2482C16.5426 16.9926 16.2112 16.5011 16.2112 15.9686H15.2112C15.2112 16.9374 15.8123 17.7513 16.6429 18.1498L17.0755 17.2482ZM12.4576 24.8718L17.2691 17.9854L16.4493 17.4127L11.6378 24.2991L12.4576 24.8718ZM12.1608 33.008C10.5993 30.4074 10.7083 27.3754 12.4576 24.8718L11.6378 24.2991C9.66428 27.1237 9.53743 30.5815 11.3035 33.5228L12.1608 33.008ZM19.9169 37.1907C16.6162 37.1907 13.7268 35.6159 12.1608 33.008L11.3035 33.5228C13.0652 36.4568 16.2952 38.1907 19.9169 38.1907V37.1907ZM25.6461 37.1907H19.9169V38.1907H25.6461V37.1907ZM33.4021 33.008C31.8361 35.6159 28.9467 37.1907 25.6461 37.1907V38.1907C29.2677 38.1907 32.4976 36.4568 34.2594 33.5228L33.4021 33.008ZM33.1054 24.8718C34.8547 27.3754 34.9637 30.4074 33.4021 33.008L34.2594 33.5228C36.0255 30.5815 35.8987 27.1237 33.9252 24.2991L33.1054 24.8718ZM18.729 9.38497L18.7244 9.38077L18.0502 10.1193L18.0547 10.1235L18.729 9.38497ZM21.5671 9.38901C20.788 10.0953 19.5046 10.0931 18.729 9.38496L18.0548 10.1235C19.2116 11.1797 21.0778 11.1823 22.2387 10.1299L21.5671 9.38901ZM21.5845 9.37318L21.5664 9.38962L22.2394 10.1293L22.2574 10.1128L21.5845 9.37318ZM23.993 9.3779C23.3243 8.76735 22.2552 8.76508 21.5851 9.37259L22.2568 10.1134C22.5442 9.85286 23.0304 9.85312 23.3187 10.1164L23.993 9.3779ZM23.9961 9.38076L23.993 9.37795L23.3187 10.1163L23.3218 10.1192L23.9961 9.38076ZM26.8386 9.3807C26.0599 10.0916 24.7747 10.0916 23.9961 9.3807L23.3218 10.1192C24.4824 11.1787 26.3523 11.1787 27.5128 10.1192L26.8386 9.3807ZM28.8587 9.11271C28.2185 8.79223 27.395 8.87271 26.8386 9.38072L27.5128 10.1192C27.7454 9.90682 28.1186 9.86054 28.411 10.0069L28.8587 9.11271ZM27.7165 14.1642L29.112 9.70927L28.1577 9.41034L26.7622 13.8653L27.7165 14.1642ZM18.3275 14.5147H27.2393V13.5147H18.3275V14.5147ZM16.4514 9.70957L17.8505 14.1646L18.8046 13.8649L17.4054 9.40993L16.4514 9.70957ZM18.7244 9.38077C18.1681 8.87289 17.3448 8.7922 16.7046 9.11263L17.1522 10.0069C17.4445 9.86057 17.8175 9.90688 18.0502 10.1193L18.7244 9.38077ZM25.6462 37.0414C28.801 37.0414 31.6183 35.5306 33.1556 32.9703L32.2983 32.4555C30.9568 34.6898 28.48 36.0414 25.6462 36.0414V37.0414ZM19.9169 37.0414H25.6462V36.0414H19.9169V37.0414ZM12.4074 32.9703C13.9448 35.5306 16.7621 37.0414 19.9169 37.0414V36.0414C17.0831 36.0414 14.6063 34.6898 13.2648 32.4555L12.4074 32.9703ZM12.6991 24.9172C10.9767 27.3826 10.8657 30.4028 12.4074 32.9703L13.2648 32.4555C11.9276 30.2286 12.0207 27.6343 13.5189 25.4899L12.6991 24.9172ZM17.7863 17.636L12.6991 24.9172L13.5189 25.4899L18.6061 18.2088L17.7863 17.636ZM19.9492 17.4224H18.1962V18.4224H19.9492V17.4224ZM20.0786 17.3478C20.0786 17.3528 20.0774 17.3664 20.0571 17.3849C20.0361 17.404 19.9993 17.4224 19.9492 17.4224V18.4224C20.5292 18.4224 21.0786 17.9831 21.0786 17.3478H20.0786ZM19.9492 17.2731C19.9993 17.2731 20.0361 17.2915 20.0571 17.3107C20.0774 17.3291 20.0786 17.3427 20.0786 17.3478H21.0786C21.0786 16.7124 20.5292 16.2731 19.9492 16.2731V17.2731ZM17.8512 17.2731H19.9492V16.2731H17.8512V17.2731ZM16.47 15.9686C16.47 16.7302 17.1329 17.2731 17.8512 17.2731V16.2731C17.5976 16.2731 17.47 16.0942 17.47 15.9686H16.47ZM17.8512 14.6641C17.1329 14.6641 16.47 15.2069 16.47 15.9686H17.47C17.47 15.8429 17.5976 15.6641 17.8512 15.6641V14.6641ZM17.8532 14.6641H17.8512V15.6641H17.8532V14.6641ZM27.7119 14.6641H17.8532V15.6641H27.7119V14.6641ZM29.093 15.9686C29.093 15.2069 28.4301 14.6641 27.7119 14.6641V15.6641C27.9654 15.6641 28.093 15.8429 28.093 15.9686H29.093ZM27.7119 17.2731C28.4301 17.2731 29.093 16.7302 29.093 15.9686H28.093C28.093 16.0942 27.9654 16.2731 27.7119 16.2731V17.2731ZM25.6139 17.2731H27.7119V16.2731H25.6139V17.2731ZM25.4845 17.3478C25.4845 17.3427 25.4857 17.3291 25.5059 17.3107C25.5269 17.2915 25.5638 17.2731 25.6139 17.2731V16.2731C25.0339 16.2731 24.4845 16.7124 24.4845 17.3478H25.4845ZM25.6139 17.4224C25.5638 17.4224 25.5269 17.404 25.5059 17.3849C25.4857 17.3664 25.4845 17.3528 25.4845 17.3478H24.4845C24.4845 17.9831 25.0339 18.4224 25.6139 18.4224V17.4224ZM27.3668 17.4224H25.6139V18.4224H27.3668V17.4224ZM32.8639 24.9172L27.7767 17.636L26.957 18.2088L32.0442 25.4899L32.8639 24.9172ZM33.1556 32.9703C34.6974 30.4027 34.5864 27.3826 32.8639 24.9172L32.0442 25.4899C33.5424 27.6343 33.6355 30.2285 32.2983 32.4555L33.1556 32.9703ZM23.2492 27.3511C23.4139 27.4074 23.5779 27.4614 23.7376 27.5129L24.0448 26.5613C23.8886 26.5109 23.7303 26.4588 23.5728 26.4049L23.2492 27.3511ZM22.911 24.2735V26.878H23.911V24.2735H22.911ZM24.4119 24.1659C24.3736 24.1404 24.0381 23.9243 23.5407 23.7907L23.2812 24.7564C23.6373 24.8521 23.8718 25.0077 23.8577 24.9983L24.4119 24.1659ZM24.6289 24.1498C24.6131 24.1689 24.5823 24.1893 24.536 24.1952C24.4897 24.2012 24.4471 24.19 24.417 24.1694L23.8525 24.9948C24.3339 25.324 25.0178 25.2472 25.3985 24.7884L24.6289 24.1498ZM24.6076 24.0752C24.6356 24.0946 24.6402 24.1123 24.6411 24.1183C24.6417 24.1223 24.6415 24.126 24.6404 24.1299C24.6394 24.1334 24.6369 24.1403 24.6289 24.1499L25.3985 24.7884C25.8042 24.2995 25.6839 23.6039 25.1766 23.2529L24.6076 24.0752ZM23.3249 23.5842C23.7009 23.65 24.0192 23.7702 24.2475 23.8773C24.3611 23.9306 24.451 23.9799 24.5128 24.0162C24.5747 24.0525 24.6077 24.0753 24.6075 24.0752L25.1767 23.2529C25.1109 23.2074 24.4567 22.7669 23.4971 22.5992L23.3249 23.5842ZM22.911 22.5198V23.0917H23.911V22.5198H22.911ZM22.7816 22.4451C22.8317 22.4451 22.8685 22.4635 22.8895 22.4827C22.9097 22.5012 22.911 22.5147 22.911 22.5198H23.911C23.911 21.8844 23.3615 21.4451 22.7816 21.4451V22.4451ZM22.6522 22.5198C22.6522 22.5147 22.6534 22.5012 22.6736 22.4827C22.6946 22.4635 22.7315 22.4451 22.7816 22.4451V21.4451C22.2016 21.4451 21.6522 21.8844 21.6522 22.5198H22.6522ZM22.6522 23.0876V22.5198H21.6522V23.0876H22.6522ZM21.9603 23.6421C22.0533 23.6166 22.1459 23.5963 22.2384 23.5801L22.0659 22.595C21.9452 22.6162 21.8217 22.6431 21.6956 22.6777L21.9603 23.6421ZM20.5895 25.0663C20.73 24.3876 21.248 23.8375 21.9602 23.6421L21.6957 22.6777C20.6363 22.9684 19.83 23.8016 19.6103 24.8637L20.5895 25.0663ZM21.1189 26.5589C20.6814 26.2456 20.4614 25.6862 20.5896 25.0662L19.6103 24.8637C19.4098 25.8332 19.7475 26.8069 20.5367 27.3719L21.1189 26.5589ZM22.3384 27.1885C21.7847 26.9662 21.4082 26.766 21.1188 26.5589L20.5367 27.3719C20.913 27.6414 21.3681 27.8765 21.9659 28.1165L22.3384 27.1885ZM22.6522 30.9853V27.6525H21.6522V30.9853H22.6522ZM20.5158 30.9528C21.125 31.3166 21.5337 31.4504 22.1233 31.4844L22.181 30.4861C21.7793 30.4629 21.5249 30.3907 21.0286 30.0943L20.5158 30.9528ZM20.3074 30.981C20.3201 30.9632 20.3473 30.9416 20.3926 30.933C20.4378 30.9244 20.4822 30.9327 20.5157 30.9527L21.0287 30.0943C20.5276 29.7948 19.8448 29.9095 19.4944 30.3986L20.3074 30.981ZM20.3395 31.0561C20.3077 31.0371 20.3005 31.0176 20.2989 31.0104C20.2979 31.006 20.2979 31.0023 20.2986 30.999C20.2992 30.9961 20.3009 30.9901 20.3073 30.9811L19.4945 30.3986C19.1225 30.9177 19.3015 31.6009 19.8266 31.9146L20.3395 31.0561ZM22.1746 31.6358C21.5402 31.6073 21.0747 31.4952 20.3394 31.0561L19.8267 31.9146C20.7034 32.4382 21.3295 32.5988 22.1297 32.6348L22.1746 31.6358ZM22.6522 32.7296V32.1353H21.6522V32.7296H22.6522ZM22.7816 32.8042C22.7315 32.8042 22.6946 32.7858 22.6736 32.7667C22.6534 32.7482 22.6522 32.7346 22.6522 32.7296H21.6522C21.6522 33.3649 22.2016 33.8042 22.7816 33.8042V32.8042ZM22.911 32.7296C22.911 32.7346 22.9097 32.7482 22.8895 32.7667C22.8685 32.7858 22.8317 32.8042 22.7816 32.8042V33.8042C23.3615 33.8042 23.911 33.3649 23.911 32.7296H22.911ZM22.911 32.0756V32.7296H23.911V32.0756H22.911ZM25.2322 29.7281C25.0893 30.5043 24.4438 31.3592 23.3129 31.5853L23.509 32.5659C25.0738 32.253 26.0048 31.0542 26.2156 29.9092L25.2322 29.7281ZM23.7377 27.513C24.8816 27.8821 25.411 28.7568 25.2322 29.7281L26.2157 29.9092C26.4992 28.3687 25.5899 27.0599 24.0448 26.5613L23.7377 27.513ZM20.8472 25.0769C20.7438 25.5773 20.8633 26.1451 21.3135 26.4675L21.8957 25.6545C21.8621 25.6304 21.7764 25.5216 21.8265 25.2794L20.8472 25.0769ZM22.0045 23.7949C21.2975 24.0134 20.9454 24.6021 20.8472 25.0769L21.8265 25.2794C21.8696 25.0713 22.0208 24.8365 22.2998 24.7503L22.0045 23.7949ZM22.6522 26.3772V24.2726H21.6522V26.3772H22.6522ZM21.3135 26.4675C21.4981 26.5997 21.7118 26.7189 21.9333 26.8267L22.371 25.9276C22.1786 25.834 22.0188 25.7426 21.8958 25.6545L21.3135 26.4675ZM23.586 31.3413C24.3785 31.045 24.8539 30.3719 24.9742 29.7186L23.9907 29.5375C23.9298 29.8686 23.6774 30.2395 23.2358 30.4046L23.586 31.3413ZM22.9109 28.1008V30.8729H23.9109V28.1008H22.9109ZM23.6272 27.6455L23.5665 27.6256L23.2553 28.576L23.3161 28.5959L23.6272 27.6455ZM24.9742 29.7187C25.0066 29.5426 25.0495 29.1508 24.8835 28.7295C24.707 28.2816 24.3212 27.8695 23.6252 27.6449L23.3181 28.5965C23.7505 28.7361 23.8943 28.9469 23.9531 29.0962C24.0225 29.2722 24.0065 29.4519 23.9908 29.5374L24.9742 29.7187ZM22.7816 18.4225C23.066 18.4225 23.3502 18.3182 23.5637 18.1233L22.8895 17.3848C22.8688 17.4037 22.8283 17.4225 22.7816 17.4225V18.4225ZM21.9995 18.1233C22.2129 18.3182 22.4971 18.4225 22.7816 18.4225V17.4225C22.7349 17.4225 22.6944 17.4037 22.6737 17.3848L21.9995 18.1233ZM21.6522 17.3478C21.6522 17.6472 21.7845 17.9271 21.9995 18.1233L22.6737 17.3848C22.6546 17.3673 22.6522 17.3507 22.6522 17.3478H21.6522ZM21.9995 16.5723C21.7845 16.7685 21.6522 17.0484 21.6522 17.3478H22.6522C22.6522 17.3449 22.6546 17.3283 22.6737 17.3108L21.9995 16.5723ZM22.7816 16.2731C22.4972 16.2731 22.2129 16.3774 21.9995 16.5723L22.6737 17.3108C22.6944 17.2919 22.7349 17.2731 22.7816 17.2731V16.2731ZM23.5637 16.5723C23.3502 16.3774 23.066 16.2731 22.7816 16.2731V17.2731C22.8283 17.2731 22.8688 17.2919 22.8895 17.3108L23.5637 16.5723ZM23.911 17.3478C23.911 17.0484 23.7787 16.7685 23.5637 16.5723L22.8895 17.3108C22.9086 17.3283 22.911 17.3449 22.911 17.3478H23.911ZM23.5637 18.1233C23.7787 17.9271 23.911 17.6472 23.911 17.3478H22.911C22.911 17.3507 22.9086 17.3673 22.8895 17.3848L23.5637 18.1233Z" fill="white"/>
</svg>
