<svg width="905" height="1140" viewBox="0 0 905 1140" fill="none" xmlns="http://www.w3.org/2000/svg">
<path fill-rule="evenodd" clip-rule="evenodd" d="M-85.0326 748.506C-179.745 697.248 -256.746 569.028 -207.665 466.433C-154.247 354.771 21.5287 370.548 129.27 300.546C192.423 259.514 216.006 176.511 284.834 146.444C359.429 113.858 444.898 106.543 516.426 131.423C587.763 156.237 644.907 211.436 668.896 280.036C690.879 342.9 631.749 413.617 638.64 480.914C648.92 581.315 793.389 680.838 718.196 761.522C642.331 842.928 512.756 741.62 406.381 730.136C350.286 724.08 300.058 708.05 242.739 710.193C130.974 714.371 7.59603 798.637 -85.0326 748.506Z" fill="white"/>
</svg>
