<svg width="967" height="1180" viewBox="0 0 967 1180" fill="none" xmlns="http://www.w3.org/2000/svg">
<path fill-rule="evenodd" clip-rule="evenodd" d="M-143.623 815.827C-178.455 729.558 -192.391 630.958 -155.692 541.457C-120.664 456.032 1.05115 495.837 2.24861 392.25C4.74525 176.277 215.242 186.888 276.548 239.211C421.405 362.844 436.699 228.665 572.242 239.211C693.242 248.625 785.242 277.277 831.9 475.609C850.689 555.476 811.382 690.774 754.242 743.277C643.308 845.211 559.236 783.732 483.308 838.211C411.122 890.004 455.924 1015.04 368.337 1030.52C273.178 1047.35 186.908 907.249 102.819 868.371C-72.9675 760.343 -80.2409 925.776 -143.623 815.827Z" fill="#FBFCFF"/>
</svg>
